<?xml version="1.0" encoding="utf-8" standalone="no"?>
<!DOCTYPE svg PUBLIC "-//W3C//DTD SVG 1.1//EN"
  "http://www.w3.org/Graphics/SVG/1.1/DTD/svg11.dtd">
<svg xmlns:xlink="http://www.w3.org/1999/xlink" width="460.8pt" height="345.6pt" viewBox="0 0 460.8 345.6" xmlns="http://www.w3.org/2000/svg" version="1.1">
 <metadata>
  <rdf:RDF xmlns:dc="http://purl.org/dc/elements/1.1/" xmlns:cc="http://creativecommons.org/ns#" xmlns:rdf="http://www.w3.org/1999/02/22-rdf-syntax-ns#">
   <cc:Work>
    <dc:type rdf:resource="http://purl.org/dc/dcmitype/StillImage"/>
    <dc:date>2022-10-11T20:28:10.921872</dc:date>
    <dc:format>image/svg+xml</dc:format>
    <dc:creator>
     <cc:Agent>
      <dc:title>Matplotlib v3.6.0, https://matplotlib.org/</dc:title>
     </cc:Agent>
    </dc:creator>
   </cc:Work>
  </rdf:RDF>
 </metadata>
 <defs>
  <style type="text/css">*{stroke-linejoin: round; stroke-linecap: butt}</style>
 </defs>
 <g id="figure_1">
  <g id="patch_1">
   <path d="M 0 345.6 
L 460.8 345.6 
L 460.8 0 
L 0 0 
z
" style="fill: #ffffff"/>
  </g>
  <g id="axes_1">
   <g id="patch_2">
    <path d="M 57.6 307.584 
L 414.72 307.584 
L 414.72 41.472 
L 57.6 41.472 
z
" style="fill: #ffffff"/>
   </g>
   <g id="matplotlib.axis_1">
    <g id="xtick_1">
     <g id="line2d_1">
      <defs>
       <path id="mb9e204cb97" d="M 0 0 
L 0 3.5 
" style="stroke: #000000; stroke-width: 0.8"/>
      </defs>
      <g>
       <use xlink:href="#mb9e204cb97" x="73.832727" y="307.584" style="stroke: #000000; stroke-width: 0.8"/>
      </g>
     </g>
     <g id="text_1">
      <!-- −3 -->
      <g transform="translate(66.461634 322.182437) scale(0.1 -0.1)">
       <defs>
        <path id="DejaVuSans-2212" d="M 678 2272 
L 4684 2272 
L 4684 1741 
L 678 1741 
L 678 2272 
z
" transform="scale(0.015625)"/>
        <path id="DejaVuSans-33" d="M 2597 2516 
Q 3050 2419 3304 2112 
Q 3559 1806 3559 1356 
Q 3559 666 3084 287 
Q 2609 -91 1734 -91 
Q 1441 -91 1130 -33 
Q 819 25 488 141 
L 488 750 
Q 750 597 1062 519 
Q 1375 441 1716 441 
Q 2309 441 2620 675 
Q 2931 909 2931 1356 
Q 2931 1769 2642 2001 
Q 2353 2234 1838 2234 
L 1294 2234 
L 1294 2753 
L 1863 2753 
Q 2328 2753 2575 2939 
Q 2822 3125 2822 3475 
Q 2822 3834 2567 4026 
Q 2313 4219 1838 4219 
Q 1578 4219 1281 4162 
Q 984 4106 628 3988 
L 628 4550 
Q 988 4650 1302 4700 
Q 1616 4750 1894 4750 
Q 2613 4750 3031 4423 
Q 3450 4097 3450 3541 
Q 3450 3153 3228 2886 
Q 3006 2619 2597 2516 
z
" transform="scale(0.015625)"/>
       </defs>
       <use xlink:href="#DejaVuSans-2212"/>
       <use xlink:href="#DejaVuSans-33" x="83.789062"/>
      </g>
     </g>
    </g>
    <g id="xtick_2">
     <g id="line2d_2">
      <g>
       <use xlink:href="#mb9e204cb97" x="127.941818" y="307.584" style="stroke: #000000; stroke-width: 0.8"/>
      </g>
     </g>
     <g id="text_2">
      <!-- −2 -->
      <g transform="translate(120.570724 322.182437) scale(0.1 -0.1)">
       <defs>
        <path id="DejaVuSans-32" d="M 1228 531 
L 3431 531 
L 3431 0 
L 469 0 
L 469 531 
Q 828 903 1448 1529 
Q 2069 2156 2228 2338 
Q 2531 2678 2651 2914 
Q 2772 3150 2772 3378 
Q 2772 3750 2511 3984 
Q 2250 4219 1831 4219 
Q 1534 4219 1204 4116 
Q 875 4013 500 3803 
L 500 4441 
Q 881 4594 1212 4672 
Q 1544 4750 1819 4750 
Q 2544 4750 2975 4387 
Q 3406 4025 3406 3419 
Q 3406 3131 3298 2873 
Q 3191 2616 2906 2266 
Q 2828 2175 2409 1742 
Q 1991 1309 1228 531 
z
" transform="scale(0.015625)"/>
       </defs>
       <use xlink:href="#DejaVuSans-2212"/>
       <use xlink:href="#DejaVuSans-32" x="83.789062"/>
      </g>
     </g>
    </g>
    <g id="xtick_3">
     <g id="line2d_3">
      <g>
       <use xlink:href="#mb9e204cb97" x="182.050909" y="307.584" style="stroke: #000000; stroke-width: 0.8"/>
      </g>
     </g>
     <g id="text_3">
      <!-- −1 -->
      <g transform="translate(174.679815 322.182437) scale(0.1 -0.1)">
       <defs>
        <path id="DejaVuSans-31" d="M 794 531 
L 1825 531 
L 1825 4091 
L 703 3866 
L 703 4441 
L 1819 4666 
L 2450 4666 
L 2450 531 
L 3481 531 
L 3481 0 
L 794 0 
L 794 531 
z
" transform="scale(0.015625)"/>
       </defs>
       <use xlink:href="#DejaVuSans-2212"/>
       <use xlink:href="#DejaVuSans-31" x="83.789062"/>
      </g>
     </g>
    </g>
    <g id="xtick_4">
     <g id="line2d_4">
      <g>
       <use xlink:href="#mb9e204cb97" x="236.16" y="307.584" style="stroke: #000000; stroke-width: 0.8"/>
      </g>
     </g>
     <g id="text_4">
      <!-- 0 -->
      <g transform="translate(232.97875 322.182437) scale(0.1 -0.1)">
       <defs>
        <path id="DejaVuSans-30" d="M 2034 4250 
Q 1547 4250 1301 3770 
Q 1056 3291 1056 2328 
Q 1056 1369 1301 889 
Q 1547 409 2034 409 
Q 2525 409 2770 889 
Q 3016 1369 3016 2328 
Q 3016 3291 2770 3770 
Q 2525 4250 2034 4250 
z
M 2034 4750 
Q 2819 4750 3233 4129 
Q 3647 3509 3647 2328 
Q 3647 1150 3233 529 
Q 2819 -91 2034 -91 
Q 1250 -91 836 529 
Q 422 1150 422 2328 
Q 422 3509 836 4129 
Q 1250 4750 2034 4750 
z
" transform="scale(0.015625)"/>
       </defs>
       <use xlink:href="#DejaVuSans-30"/>
      </g>
     </g>
    </g>
    <g id="xtick_5">
     <g id="line2d_5">
      <g>
       <use xlink:href="#mb9e204cb97" x="290.269091" y="307.584" style="stroke: #000000; stroke-width: 0.8"/>
      </g>
     </g>
     <g id="text_5">
      <!-- 1 -->
      <g transform="translate(287.087841 322.182437) scale(0.1 -0.1)">
       <use xlink:href="#DejaVuSans-31"/>
      </g>
     </g>
    </g>
    <g id="xtick_6">
     <g id="line2d_6">
      <g>
       <use xlink:href="#mb9e204cb97" x="344.378182" y="307.584" style="stroke: #000000; stroke-width: 0.8"/>
      </g>
     </g>
     <g id="text_6">
      <!-- 2 -->
      <g transform="translate(341.196932 322.182437) scale(0.1 -0.1)">
       <use xlink:href="#DejaVuSans-32"/>
      </g>
     </g>
    </g>
    <g id="xtick_7">
     <g id="line2d_7">
      <g>
       <use xlink:href="#mb9e204cb97" x="398.487273" y="307.584" style="stroke: #000000; stroke-width: 0.8"/>
      </g>
     </g>
     <g id="text_7">
      <!-- 3 -->
      <g transform="translate(395.306023 322.182437) scale(0.1 -0.1)">
       <use xlink:href="#DejaVuSans-33"/>
      </g>
     </g>
    </g>
    <g id="text_8">
     <!-- reflection scaling coefficient -->
     <g transform="translate(165.732656 335.860562) scale(0.1 -0.1)">
      <defs>
       <path id="DejaVuSans-72" d="M 2631 2963 
Q 2534 3019 2420 3045 
Q 2306 3072 2169 3072 
Q 1681 3072 1420 2755 
Q 1159 2438 1159 1844 
L 1159 0 
L 581 0 
L 581 3500 
L 1159 3500 
L 1159 2956 
Q 1341 3275 1631 3429 
Q 1922 3584 2338 3584 
Q 2397 3584 2469 3576 
Q 2541 3569 2628 3553 
L 2631 2963 
z
" transform="scale(0.015625)"/>
       <path id="DejaVuSans-65" d="M 3597 1894 
L 3597 1613 
L 953 1613 
Q 991 1019 1311 708 
Q 1631 397 2203 397 
Q 2534 397 2845 478 
Q 3156 559 3463 722 
L 3463 178 
Q 3153 47 2828 -22 
Q 2503 -91 2169 -91 
Q 1331 -91 842 396 
Q 353 884 353 1716 
Q 353 2575 817 3079 
Q 1281 3584 2069 3584 
Q 2775 3584 3186 3129 
Q 3597 2675 3597 1894 
z
M 3022 2063 
Q 3016 2534 2758 2815 
Q 2500 3097 2075 3097 
Q 1594 3097 1305 2825 
Q 1016 2553 972 2059 
L 3022 2063 
z
" transform="scale(0.015625)"/>
       <path id="DejaVuSans-66" d="M 2375 4863 
L 2375 4384 
L 1825 4384 
Q 1516 4384 1395 4259 
Q 1275 4134 1275 3809 
L 1275 3500 
L 2222 3500 
L 2222 3053 
L 1275 3053 
L 1275 0 
L 697 0 
L 697 3053 
L 147 3053 
L 147 3500 
L 697 3500 
L 697 3744 
Q 697 4328 969 4595 
Q 1241 4863 1831 4863 
L 2375 4863 
z
" transform="scale(0.015625)"/>
       <path id="DejaVuSans-6c" d="M 603 4863 
L 1178 4863 
L 1178 0 
L 603 0 
L 603 4863 
z
" transform="scale(0.015625)"/>
       <path id="DejaVuSans-63" d="M 3122 3366 
L 3122 2828 
Q 2878 2963 2633 3030 
Q 2388 3097 2138 3097 
Q 1578 3097 1268 2742 
Q 959 2388 959 1747 
Q 959 1106 1268 751 
Q 1578 397 2138 397 
Q 2388 397 2633 464 
Q 2878 531 3122 666 
L 3122 134 
Q 2881 22 2623 -34 
Q 2366 -91 2075 -91 
Q 1284 -91 818 406 
Q 353 903 353 1747 
Q 353 2603 823 3093 
Q 1294 3584 2113 3584 
Q 2378 3584 2631 3529 
Q 2884 3475 3122 3366 
z
" transform="scale(0.015625)"/>
       <path id="DejaVuSans-74" d="M 1172 4494 
L 1172 3500 
L 2356 3500 
L 2356 3053 
L 1172 3053 
L 1172 1153 
Q 1172 725 1289 603 
Q 1406 481 1766 481 
L 2356 481 
L 2356 0 
L 1766 0 
Q 1100 0 847 248 
Q 594 497 594 1153 
L 594 3053 
L 172 3053 
L 172 3500 
L 594 3500 
L 594 4494 
L 1172 4494 
z
" transform="scale(0.015625)"/>
       <path id="DejaVuSans-69" d="M 603 3500 
L 1178 3500 
L 1178 0 
L 603 0 
L 603 3500 
z
M 603 4863 
L 1178 4863 
L 1178 4134 
L 603 4134 
L 603 4863 
z
" transform="scale(0.015625)"/>
       <path id="DejaVuSans-6f" d="M 1959 3097 
Q 1497 3097 1228 2736 
Q 959 2375 959 1747 
Q 959 1119 1226 758 
Q 1494 397 1959 397 
Q 2419 397 2687 759 
Q 2956 1122 2956 1747 
Q 2956 2369 2687 2733 
Q 2419 3097 1959 3097 
z
M 1959 3584 
Q 2709 3584 3137 3096 
Q 3566 2609 3566 1747 
Q 3566 888 3137 398 
Q 2709 -91 1959 -91 
Q 1206 -91 779 398 
Q 353 888 353 1747 
Q 353 2609 779 3096 
Q 1206 3584 1959 3584 
z
" transform="scale(0.015625)"/>
       <path id="DejaVuSans-6e" d="M 3513 2113 
L 3513 0 
L 2938 0 
L 2938 2094 
Q 2938 2591 2744 2837 
Q 2550 3084 2163 3084 
Q 1697 3084 1428 2787 
Q 1159 2491 1159 1978 
L 1159 0 
L 581 0 
L 581 3500 
L 1159 3500 
L 1159 2956 
Q 1366 3272 1645 3428 
Q 1925 3584 2291 3584 
Q 2894 3584 3203 3211 
Q 3513 2838 3513 2113 
z
" transform="scale(0.015625)"/>
       <path id="DejaVuSans-20" transform="scale(0.015625)"/>
       <path id="DejaVuSans-73" d="M 2834 3397 
L 2834 2853 
Q 2591 2978 2328 3040 
Q 2066 3103 1784 3103 
Q 1356 3103 1142 2972 
Q 928 2841 928 2578 
Q 928 2378 1081 2264 
Q 1234 2150 1697 2047 
L 1894 2003 
Q 2506 1872 2764 1633 
Q 3022 1394 3022 966 
Q 3022 478 2636 193 
Q 2250 -91 1575 -91 
Q 1294 -91 989 -36 
Q 684 19 347 128 
L 347 722 
Q 666 556 975 473 
Q 1284 391 1588 391 
Q 1994 391 2212 530 
Q 2431 669 2431 922 
Q 2431 1156 2273 1281 
Q 2116 1406 1581 1522 
L 1381 1569 
Q 847 1681 609 1914 
Q 372 2147 372 2553 
Q 372 3047 722 3315 
Q 1072 3584 1716 3584 
Q 2034 3584 2315 3537 
Q 2597 3491 2834 3397 
z
" transform="scale(0.015625)"/>
       <path id="DejaVuSans-61" d="M 2194 1759 
Q 1497 1759 1228 1600 
Q 959 1441 959 1056 
Q 959 750 1161 570 
Q 1363 391 1709 391 
Q 2188 391 2477 730 
Q 2766 1069 2766 1631 
L 2766 1759 
L 2194 1759 
z
M 3341 1997 
L 3341 0 
L 2766 0 
L 2766 531 
Q 2569 213 2275 61 
Q 1981 -91 1556 -91 
Q 1019 -91 701 211 
Q 384 513 384 1019 
Q 384 1609 779 1909 
Q 1175 2209 1959 2209 
L 2766 2209 
L 2766 2266 
Q 2766 2663 2505 2880 
Q 2244 3097 1772 3097 
Q 1472 3097 1187 3025 
Q 903 2953 641 2809 
L 641 3341 
Q 956 3463 1253 3523 
Q 1550 3584 1831 3584 
Q 2591 3584 2966 3190 
Q 3341 2797 3341 1997 
z
" transform="scale(0.015625)"/>
       <path id="DejaVuSans-67" d="M 2906 1791 
Q 2906 2416 2648 2759 
Q 2391 3103 1925 3103 
Q 1463 3103 1205 2759 
Q 947 2416 947 1791 
Q 947 1169 1205 825 
Q 1463 481 1925 481 
Q 2391 481 2648 825 
Q 2906 1169 2906 1791 
z
M 3481 434 
Q 3481 -459 3084 -895 
Q 2688 -1331 1869 -1331 
Q 1566 -1331 1297 -1286 
Q 1028 -1241 775 -1147 
L 775 -588 
Q 1028 -725 1275 -790 
Q 1522 -856 1778 -856 
Q 2344 -856 2625 -561 
Q 2906 -266 2906 331 
L 2906 616 
Q 2728 306 2450 153 
Q 2172 0 1784 0 
Q 1141 0 747 490 
Q 353 981 353 1791 
Q 353 2603 747 3093 
Q 1141 3584 1784 3584 
Q 2172 3584 2450 3431 
Q 2728 3278 2906 2969 
L 2906 3500 
L 3481 3500 
L 3481 434 
z
" transform="scale(0.015625)"/>
      </defs>
      <use xlink:href="#DejaVuSans-72"/>
      <use xlink:href="#DejaVuSans-65" x="38.863281"/>
      <use xlink:href="#DejaVuSans-66" x="100.386719"/>
      <use xlink:href="#DejaVuSans-6c" x="135.591797"/>
      <use xlink:href="#DejaVuSans-65" x="163.375"/>
      <use xlink:href="#DejaVuSans-63" x="224.898438"/>
      <use xlink:href="#DejaVuSans-74" x="279.878906"/>
      <use xlink:href="#DejaVuSans-69" x="319.087891"/>
      <use xlink:href="#DejaVuSans-6f" x="346.871094"/>
      <use xlink:href="#DejaVuSans-6e" x="408.052734"/>
      <use xlink:href="#DejaVuSans-20" x="471.431641"/>
      <use xlink:href="#DejaVuSans-73" x="503.21875"/>
      <use xlink:href="#DejaVuSans-63" x="555.318359"/>
      <use xlink:href="#DejaVuSans-61" x="610.298828"/>
      <use xlink:href="#DejaVuSans-6c" x="671.578125"/>
      <use xlink:href="#DejaVuSans-69" x="699.361328"/>
      <use xlink:href="#DejaVuSans-6e" x="727.144531"/>
      <use xlink:href="#DejaVuSans-67" x="790.523438"/>
      <use xlink:href="#DejaVuSans-20" x="854"/>
      <use xlink:href="#DejaVuSans-63" x="885.787109"/>
      <use xlink:href="#DejaVuSans-6f" x="940.767578"/>
      <use xlink:href="#DejaVuSans-65" x="1001.949219"/>
      <use xlink:href="#DejaVuSans-66" x="1063.472656"/>
      <use xlink:href="#DejaVuSans-66" x="1098.677734"/>
      <use xlink:href="#DejaVuSans-69" x="1133.882812"/>
      <use xlink:href="#DejaVuSans-63" x="1161.666016"/>
      <use xlink:href="#DejaVuSans-69" x="1216.646484"/>
      <use xlink:href="#DejaVuSans-65" x="1244.429688"/>
      <use xlink:href="#DejaVuSans-6e" x="1305.953125"/>
      <use xlink:href="#DejaVuSans-74" x="1369.332031"/>
     </g>
    </g>
   </g>
   <g id="matplotlib.axis_2">
    <g id="ytick_1">
     <g id="line2d_8">
      <defs>
       <path id="m67633e8b82" d="M 0 0 
L -3.5 0 
" style="stroke: #000000; stroke-width: 0.8"/>
      </defs>
      <g>
       <use xlink:href="#m67633e8b82" x="57.6" y="305.60766" style="stroke: #000000; stroke-width: 0.8"/>
      </g>
     </g>
     <g id="text_9">
      <!-- 0 -->
      <g transform="translate(44.2375 309.406879) scale(0.1 -0.1)">
       <use xlink:href="#DejaVuSans-30"/>
      </g>
     </g>
    </g>
    <g id="ytick_2">
     <g id="line2d_9">
      <g>
       <use xlink:href="#m67633e8b82" x="57.6" y="255.510332" style="stroke: #000000; stroke-width: 0.8"/>
      </g>
     </g>
     <g id="text_10">
      <!-- 10 -->
      <g transform="translate(37.875 259.30955) scale(0.1 -0.1)">
       <use xlink:href="#DejaVuSans-31"/>
       <use xlink:href="#DejaVuSans-30" x="63.623047"/>
      </g>
     </g>
    </g>
    <g id="ytick_3">
     <g id="line2d_10">
      <g>
       <use xlink:href="#m67633e8b82" x="57.6" y="205.413003" style="stroke: #000000; stroke-width: 0.8"/>
      </g>
     </g>
     <g id="text_11">
      <!-- 20 -->
      <g transform="translate(37.875 209.212222) scale(0.1 -0.1)">
       <use xlink:href="#DejaVuSans-32"/>
       <use xlink:href="#DejaVuSans-30" x="63.623047"/>
      </g>
     </g>
    </g>
    <g id="ytick_4">
     <g id="line2d_11">
      <g>
       <use xlink:href="#m67633e8b82" x="57.6" y="155.315674" style="stroke: #000000; stroke-width: 0.8"/>
      </g>
     </g>
     <g id="text_12">
      <!-- 30 -->
      <g transform="translate(37.875 159.114893) scale(0.1 -0.1)">
       <use xlink:href="#DejaVuSans-33"/>
       <use xlink:href="#DejaVuSans-30" x="63.623047"/>
      </g>
     </g>
    </g>
    <g id="ytick_5">
     <g id="line2d_12">
      <g>
       <use xlink:href="#m67633e8b82" x="57.6" y="105.218346" style="stroke: #000000; stroke-width: 0.8"/>
      </g>
     </g>
     <g id="text_13">
      <!-- 40 -->
      <g transform="translate(37.875 109.017565) scale(0.1 -0.1)">
       <defs>
        <path id="DejaVuSans-34" d="M 2419 4116 
L 825 1625 
L 2419 1625 
L 2419 4116 
z
M 2253 4666 
L 3047 4666 
L 3047 1625 
L 3713 1625 
L 3713 1100 
L 3047 1100 
L 3047 0 
L 2419 0 
L 2419 1100 
L 313 1100 
L 313 1709 
L 2253 4666 
z
" transform="scale(0.015625)"/>
       </defs>
       <use xlink:href="#DejaVuSans-34"/>
       <use xlink:href="#DejaVuSans-30" x="63.623047"/>
      </g>
     </g>
    </g>
    <g id="ytick_6">
     <g id="line2d_13">
      <g>
       <use xlink:href="#m67633e8b82" x="57.6" y="55.121017" style="stroke: #000000; stroke-width: 0.8"/>
      </g>
     </g>
     <g id="text_14">
      <!-- 50 -->
      <g transform="translate(37.875 58.920236) scale(0.1 -0.1)">
       <defs>
        <path id="DejaVuSans-35" d="M 691 4666 
L 3169 4666 
L 3169 4134 
L 1269 4134 
L 1269 2991 
Q 1406 3038 1543 3061 
Q 1681 3084 1819 3084 
Q 2600 3084 3056 2656 
Q 3513 2228 3513 1497 
Q 3513 744 3044 326 
Q 2575 -91 1722 -91 
Q 1428 -91 1123 -41 
Q 819 9 494 109 
L 494 744 
Q 775 591 1075 516 
Q 1375 441 1709 441 
Q 2250 441 2565 725 
Q 2881 1009 2881 1497 
Q 2881 1984 2565 2268 
Q 2250 2553 1709 2553 
Q 1456 2553 1204 2497 
Q 953 2441 691 2322 
L 691 4666 
z
" transform="scale(0.015625)"/>
       </defs>
       <use xlink:href="#DejaVuSans-35"/>
       <use xlink:href="#DejaVuSans-30" x="63.623047"/>
      </g>
     </g>
    </g>
    <g id="text_15">
     <!-- percentage bit errors -->
     <g transform="translate(31.795312 227.399875) rotate(-90) scale(0.1 -0.1)">
      <defs>
       <path id="DejaVuSans-70" d="M 1159 525 
L 1159 -1331 
L 581 -1331 
L 581 3500 
L 1159 3500 
L 1159 2969 
Q 1341 3281 1617 3432 
Q 1894 3584 2278 3584 
Q 2916 3584 3314 3078 
Q 3713 2572 3713 1747 
Q 3713 922 3314 415 
Q 2916 -91 2278 -91 
Q 1894 -91 1617 61 
Q 1341 213 1159 525 
z
M 3116 1747 
Q 3116 2381 2855 2742 
Q 2594 3103 2138 3103 
Q 1681 3103 1420 2742 
Q 1159 2381 1159 1747 
Q 1159 1113 1420 752 
Q 1681 391 2138 391 
Q 2594 391 2855 752 
Q 3116 1113 3116 1747 
z
" transform="scale(0.015625)"/>
       <path id="DejaVuSans-62" d="M 3116 1747 
Q 3116 2381 2855 2742 
Q 2594 3103 2138 3103 
Q 1681 3103 1420 2742 
Q 1159 2381 1159 1747 
Q 1159 1113 1420 752 
Q 1681 391 2138 391 
Q 2594 391 2855 752 
Q 3116 1113 3116 1747 
z
M 1159 2969 
Q 1341 3281 1617 3432 
Q 1894 3584 2278 3584 
Q 2916 3584 3314 3078 
Q 3713 2572 3713 1747 
Q 3713 922 3314 415 
Q 2916 -91 2278 -91 
Q 1894 -91 1617 61 
Q 1341 213 1159 525 
L 1159 0 
L 581 0 
L 581 4863 
L 1159 4863 
L 1159 2969 
z
" transform="scale(0.015625)"/>
      </defs>
      <use xlink:href="#DejaVuSans-70"/>
      <use xlink:href="#DejaVuSans-65" x="63.476562"/>
      <use xlink:href="#DejaVuSans-72" x="125"/>
      <use xlink:href="#DejaVuSans-63" x="163.863281"/>
      <use xlink:href="#DejaVuSans-65" x="218.84375"/>
      <use xlink:href="#DejaVuSans-6e" x="280.367188"/>
      <use xlink:href="#DejaVuSans-74" x="343.746094"/>
      <use xlink:href="#DejaVuSans-61" x="382.955078"/>
      <use xlink:href="#DejaVuSans-67" x="444.234375"/>
      <use xlink:href="#DejaVuSans-65" x="507.710938"/>
      <use xlink:href="#DejaVuSans-20" x="569.234375"/>
      <use xlink:href="#DejaVuSans-62" x="601.021484"/>
      <use xlink:href="#DejaVuSans-69" x="664.498047"/>
      <use xlink:href="#DejaVuSans-74" x="692.28125"/>
      <use xlink:href="#DejaVuSans-20" x="731.490234"/>
      <use xlink:href="#DejaVuSans-65" x="763.277344"/>
      <use xlink:href="#DejaVuSans-72" x="824.800781"/>
      <use xlink:href="#DejaVuSans-72" x="864.164062"/>
      <use xlink:href="#DejaVuSans-6f" x="903.027344"/>
      <use xlink:href="#DejaVuSans-72" x="964.208984"/>
      <use xlink:href="#DejaVuSans-73" x="1005.322266"/>
     </g>
    </g>
   </g>
   <g id="line2d_14">
    <path d="M 73.832727 55.972672 
L 74.157707 55.972672 
L 74.482686 54.369557 
L 75.457625 54.369557 
L 75.782604 55.972672 
L 76.432563 55.972672 
L 76.757543 54.369557 
L 77.082523 54.31946 
L 77.407502 55.972672 
L 78.057461 56.022769 
L 78.382441 54.369557 
L 79.0324 54.369557 
L 79.357379 54.31946 
L 79.682359 55.972672 
L 80.007338 54.31946 
L 80.332318 54.369557 
L 80.657297 56.022769 
L 81.307256 55.972672 
L 81.632236 54.369557 
L 82.607174 54.31946 
L 82.932154 54.31946 
L 83.257133 56.022769 
L 84.232072 55.972672 
L 84.557052 54.31946 
L 84.882031 54.31946 
L 85.207011 55.972672 
L 85.85697 55.972672 
L 86.181949 54.369557 
L 86.831908 54.369557 
L 87.156888 55.972672 
L 87.481867 55.972672 
L 87.806847 54.369557 
L 88.131826 55.972672 
L 88.456806 56.022769 
L 88.781785 54.369557 
L 89.106765 55.972672 
L 89.431744 55.972672 
L 89.756724 54.369557 
L 90.081704 55.972672 
L 90.406683 54.31946 
L 90.731663 55.972672 
L 91.056642 55.972672 
L 91.381622 54.369557 
L 91.706601 55.972672 
L 92.031581 56.022769 
L 92.35656 54.31946 
L 92.68154 55.972672 
L 93.006519 54.369557 
L 93.331499 55.972672 
L 93.656478 54.31946 
L 94.306437 54.31946 
L 94.631417 56.022769 
L 94.956396 55.972672 
L 95.281376 54.369557 
L 95.606355 54.31946 
L 95.931335 55.972672 
L 96.256314 54.31946 
L 96.581294 55.972672 
L 96.906274 54.419655 
L 97.556233 54.31946 
L 97.881212 55.972672 
L 98.531171 55.972672 
L 98.856151 54.369557 
L 99.50611 54.369557 
L 99.831089 56.022769 
L 100.156069 54.31946 
L 100.481048 55.972672 
L 100.806028 54.269363 
L 101.131007 55.972672 
L 101.780966 55.972672 
L 102.105946 54.31946 
L 102.430925 55.972672 
L 103.080885 55.972672 
L 103.405864 54.31946 
L 103.730844 55.972672 
L 104.055823 54.369557 
L 104.705782 54.269363 
L 105.030762 55.972672 
L 105.355741 54.31946 
L 105.680721 54.269363 
L 106.0057 54.369557 
L 106.33068 55.972672 
L 106.655659 55.972672 
L 106.980639 54.31946 
L 109.905455 54.31946 
L 110.230434 55.972672 
L 110.555414 54.419655 
L 111.205373 54.31946 
L 111.530352 54.419655 
L 112.180311 54.369557 
L 112.505291 55.972672 
L 112.83027 55.972672 
L 113.15525 54.31946 
L 113.480229 55.972672 
L 116.405045 56.022769 
L 116.730025 54.31946 
L 117.055004 55.972672 
L 117.379984 54.419655 
L 117.704963 55.972672 
L 118.354922 55.972672 
L 118.679902 54.31946 
L 119.329861 54.369557 
L 119.65484 56.122964 
L 119.97982 54.369557 
L 120.304799 55.972672 
L 120.629779 54.31946 
L 120.954758 55.972672 
L 121.279738 54.369557 
L 121.604717 56.022769 
L 122.579656 55.972672 
L 122.904636 54.369557 
L 123.229615 55.972672 
L 123.554595 54.31946 
L 124.204554 54.369557 
L 124.529533 54.31946 
L 124.854513 55.972672 
L 125.179492 54.369557 
L 125.504472 56.122964 
L 125.829451 54.369557 
L 126.80439 54.31946 
L 127.129369 54.419655 
L 127.779328 54.269363 
L 128.104308 54.419655 
L 128.429287 56.022769 
L 128.754267 55.972672 
L 129.079247 54.369557 
L 129.404226 55.972672 
L 129.729206 54.369557 
L 130.054185 55.972672 
L 130.379165 54.369557 
L 130.704144 55.972672 
L 131.029124 54.369557 
L 131.679083 54.31946 
L 132.004062 55.972672 
L 132.329042 54.369557 
L 132.654021 55.972672 
L 133.30398 55.972672 
L 133.62896 54.31946 
L 133.953939 56.072866 
L 134.278919 54.369557 
L 134.603898 55.972672 
L 134.928878 54.369557 
L 135.903817 54.419655 
L 136.228796 55.972672 
L 136.553776 55.972672 
L 136.878755 54.31946 
L 137.203735 55.972672 
L 137.528714 54.419655 
L 137.853694 56.022769 
L 138.828632 55.972672 
L 139.478591 55.972672 
L 139.803571 54.31946 
L 140.12855 56.022769 
L 140.45353 54.369557 
L 140.778509 56.022769 
L 141.428468 55.972672 
L 141.753448 54.31946 
L 142.403407 54.419655 
L 142.728387 56.072866 
L 143.053366 54.369557 
L 143.378346 54.31946 
L 143.703325 55.972672 
L 144.028305 55.972672 
L 144.353284 54.31946 
L 144.678264 54.31946 
L 145.003243 55.972672 
L 145.978182 56.022769 
L 146.303161 54.369557 
L 146.95312 54.369557 
L 147.603079 54.419655 
L 147.928059 55.972672 
L 148.253038 54.369557 
L 148.902998 54.419655 
L 149.227977 54.31946 
L 149.552957 54.369557 
L 149.877936 55.972672 
L 150.202916 54.369557 
L 150.527895 54.419655 
L 150.852875 55.972672 
L 151.177854 56.173061 
L 151.502834 54.269363 
L 152.152793 54.419655 
L 152.477772 56.122964 
L 152.802752 56.072866 
L 153.127731 56.173061 
L 153.452711 54.369557 
L 153.77769 54.369557 
L 154.10267 56.273256 
L 154.427649 54.419655 
L 154.752629 54.369557 
L 155.077609 56.022769 
L 155.402588 55.972672 
L 155.727568 56.072866 
L 156.052547 55.972672 
L 156.702506 56.072866 
L 157.027486 54.31946 
L 157.677445 54.419655 
L 158.002424 55.972672 
L 158.652383 56.022769 
L 158.977363 54.369557 
L 159.302342 56.022769 
L 159.627322 54.369557 
L 159.952301 56.022769 
L 160.277281 55.972672 
L 160.60226 56.122964 
L 162.227158 55.972672 
L 162.877117 55.972672 
L 163.202097 54.519849 
L 163.527076 54.519849 
L 163.852056 54.369557 
L 164.177035 55.972672 
L 164.502015 54.369557 
L 164.826994 56.072866 
L 165.151974 56.022769 
L 165.476953 54.369557 
L 165.801933 55.972672 
L 166.126912 54.369557 
L 166.451892 55.972672 
L 167.101851 55.972672 
L 167.42683 56.273256 
L 167.75181 56.022769 
L 168.07679 56.022769 
L 168.401769 54.369557 
L 168.726749 56.022769 
L 169.051728 54.31946 
L 169.376708 56.072866 
L 169.701687 55.972672 
L 170.026667 54.419655 
L 170.351646 55.972672 
L 170.676626 54.419655 
L 171.001605 54.369557 
L 171.326585 56.022769 
L 171.651564 54.419655 
L 171.976544 54.31946 
L 172.301523 54.419655 
L 172.626503 54.31946 
L 173.276462 54.369557 
L 173.601441 56.072866 
L 173.926421 54.31946 
L 174.2514 56.072866 
L 174.57638 54.519849 
L 174.90136 55.972672 
L 175.226339 54.670141 
L 175.551319 56.022769 
L 175.876298 54.569947 
L 176.201278 56.37345 
L 176.526257 54.620044 
L 176.851237 54.269363 
L 177.176216 54.369557 
L 177.501196 56.022769 
L 177.826175 54.620044 
L 178.151155 54.870531 
L 178.476134 56.37345 
L 178.801114 54.519849 
L 179.126093 56.122964 
L 179.451073 54.569947 
L 179.776052 56.122964 
L 180.101032 56.37345 
L 180.426011 54.469752 
L 180.750991 54.569947 
L 181.075971 56.523742 
L 181.72593 55.922574 
L 182.050909 58.477538 
L 182.700868 119.245598 
L 183.025848 131.76993 
L 183.675807 141.789396 
L 184.000786 157.770444 
L 184.650745 168.892051 
L 184.975725 168.591467 
L 185.300704 178.961614 
L 186.275643 197.146944 
L 186.600622 196.495679 
L 186.925602 204.411057 
L 187.575561 213.979646 
L 188.22552 214.28023 
L 188.5505 214.079841 
L 188.875479 228.207288 
L 189.200459 224.700475 
L 189.525438 225.552129 
L 189.850418 235.371206 
L 190.175397 228.658164 
L 190.500377 229.459721 
L 190.825356 238.827921 
L 191.475315 241.583274 
L 192.125274 246.092034 
L 192.775233 248.947582 
L 193.100213 248.747192 
L 193.425192 251.151864 
L 193.750172 248.446608 
L 194.075152 253.506439 
L 194.400131 255.009358 
L 194.725111 254.157704 
L 195.37507 256.66257 
L 195.700049 254.307996 
L 196.025029 261.471914 
L 196.350008 262.373666 
L 196.674988 261.7224 
L 196.999967 265.529797 
L 197.324947 265.379505 
L 197.974906 268.385345 
L 198.299885 267.082815 
L 198.624865 269.287097 
L 198.949844 268.936416 
L 199.274824 271.441282 
L 199.599803 268.335248 
L 199.924783 271.240893 
L 200.249762 270.840114 
L 200.574742 270.138752 
L 200.899722 275.098387 
L 201.224701 270.138752 
L 201.549681 273.695662 
L 201.87466 274.697609 
L 202.19964 274.847901 
L 202.524619 274.447122 
L 203.174578 278.555103 
L 203.499558 277.352767 
L 203.824537 277.10228 
L 204.474496 280.85958 
L 204.799476 280.759385 
L 205.124455 280.358607 
L 205.449435 280.709288 
L 205.774414 282.262305 
L 206.099394 280.258412 
L 206.424373 282.512792 
L 206.749353 283.614933 
L 207.074333 283.414544 
L 207.399312 285.218048 
L 207.724292 282.061916 
L 208.374251 286.720967 
L 208.69923 283.364446 
L 209.02421 283.915517 
L 209.349189 285.318242 
L 209.674169 283.715128 
L 209.999148 285.16795 
L 210.324128 287.472427 
L 210.649107 284.366393 
L 210.974087 286.921357 
L 211.299066 285.318242 
L 211.624046 287.923303 
L 211.949025 288.674763 
L 212.274005 286.971454 
L 212.598984 289.626613 
L 212.923964 288.674763 
L 213.248943 289.125639 
L 213.573923 287.873206 
L 213.898903 287.622719 
L 214.223882 288.023498 
L 214.548862 289.376126 
L 214.873841 289.075542 
L 215.198821 289.275931 
L 215.5238 290.127586 
L 215.84878 289.927197 
L 216.173759 290.42817 
L 216.498739 289.977294 
L 217.148698 289.977294 
L 217.473677 289.175737 
L 218.123636 289.626613 
L 218.448616 291.981187 
L 218.773595 290.127586 
L 219.098575 289.576515 
L 219.423554 291.079435 
L 219.748534 291.329922 
L 220.073514 290.528364 
L 220.398493 290.528364 
L 220.723473 293.283718 
L 221.048452 292.331868 
L 221.373432 292.582355 
L 221.698411 291.329922 
L 222.023391 293.23362 
L 222.34837 292.68255 
L 222.67335 293.584302 
L 222.998329 293.43401 
L 223.323309 291.480214 
L 223.648288 293.133426 
L 223.973268 293.333815 
L 224.298247 293.834788 
L 224.623227 292.081382 
L 224.948206 291.830895 
L 225.273186 293.333815 
L 225.598165 293.584302 
L 225.923145 293.383912 
L 226.573104 293.484107 
L 226.898084 293.834788 
L 227.223063 293.584302 
L 227.548043 293.033231 
L 227.873022 293.333815 
L 228.198002 294.335761 
L 228.522981 294.385859 
L 228.847961 293.484107 
L 229.17294 293.183523 
L 229.49792 293.884885 
L 229.822899 294.285664 
L 230.147879 294.235567 
L 230.797838 294.586248 
L 231.122817 292.983134 
L 231.447797 294.836735 
L 232.097756 294.686443 
L 232.422735 295.137319 
L 232.747715 293.884885 
L 233.072695 295.488 
L 233.722654 294.686443 
L 234.047633 293.98508 
L 234.372613 294.085275 
L 234.697592 293.784691 
L 235.022572 294.636345 
L 235.347551 294.185469 
L 235.672531 292.983134 
L 235.99751 293.884885 
L 236.32249 294.285664 
L 236.647469 294.385859 
L 236.972449 293.684496 
L 237.297428 295.488 
L 237.622408 295.087221 
L 237.947387 293.684496 
L 238.272367 294.235567 
L 238.597346 295.437903 
L 238.922326 293.734593 
L 239.247305 293.934983 
L 239.572285 292.632452 
L 239.897265 293.834788 
L 240.222244 293.484107 
L 240.547224 294.936929 
L 240.872203 292.732647 
L 241.197183 292.882939 
L 241.522162 292.882939 
L 241.847142 293.684496 
L 242.172121 293.333815 
L 242.497101 294.786637 
L 242.82208 293.934983 
L 243.14706 294.185469 
L 243.472039 293.383912 
L 243.797019 294.335761 
L 244.121998 294.435956 
L 244.446978 295.287611 
L 244.771957 294.185469 
L 245.096937 294.335761 
L 245.421916 294.085275 
L 245.746896 293.23362 
L 246.071876 293.033231 
L 246.396855 291.580408 
L 247.371794 294.085275 
L 247.696773 292.68255 
L 248.346732 291.580408 
L 248.671712 292.532258 
L 248.996691 292.081382 
L 249.321671 292.68255 
L 249.64665 291.880992 
L 249.97163 290.728754 
L 250.296609 292.381966 
L 250.621589 293.333815 
L 250.946568 290.327975 
L 251.271548 292.381966 
L 251.596527 292.181576 
L 251.921507 291.680603 
L 252.246486 292.081382 
L 252.571466 291.029338 
L 253.221425 290.879046 
L 253.546405 291.129532 
L 254.196364 290.378072 
L 254.521343 289.67671 
L 254.846323 290.97924 
L 255.171302 291.680603 
L 255.496282 288.674763 
L 255.821261 290.929143 
L 256.47122 289.025445 
L 256.7962 290.22778 
L 257.121179 290.378072 
L 257.446159 288.92525 
L 257.771138 289.225834 
L 258.096118 287.42233 
L 258.421097 288.424277 
L 259.071057 288.774958 
L 259.396036 288.875153 
L 259.721016 287.021551 
L 260.045995 286.67087 
L 260.370975 287.823109 
L 261.020934 286.169897 
L 261.345913 286.370286 
L 261.670893 286.771065 
L 261.995872 286.069702 
L 262.320852 285.719021 
L 262.645831 284.767172 
L 262.970811 285.969508 
L 263.62077 284.767172 
L 263.945749 285.568729 
L 264.270729 283.915517 
L 264.595708 284.917464 
L 264.920688 284.767172 
L 265.245667 285.719021 
L 265.570647 280.759385 
L 265.895627 281.560943 
L 266.220606 282.011819 
L 266.545586 281.711235 
L 267.195545 279.607147 
L 267.520524 280.759385 
L 268.170483 277.202475 
L 268.495463 274.948095 
L 269.145422 277.85374 
L 269.470401 276.300723 
L 269.795381 276.951988 
L 270.12036 273.344981 
L 270.44534 273.044397 
L 270.770319 274.797803 
L 271.095299 271.541477 
L 271.420278 271.591574 
L 271.745258 273.044397 
L 272.070238 272.493326 
L 272.395217 272.24284 
L 272.720197 266.631939 
L 273.370156 270.238946 
L 273.695135 266.732133 
L 274.020115 266.080868 
L 274.345094 265.980673 
L 274.670074 265.229214 
L 274.995053 262.273471 
L 275.320033 261.121233 
L 275.645012 261.471914 
L 275.969992 261.572109 
L 276.294971 262.073082 
L 276.619951 257.814809 
L 276.94493 259.067242 
L 277.26991 259.267631 
L 277.919869 254.959261 
L 278.244848 254.909164 
L 278.569828 250.85128 
L 278.894808 244.539017 
L 279.219787 252.053616 
L 279.544767 248.997679 
L 279.869746 244.789503 
L 280.194726 244.739406 
L 281.169664 238.176656 
L 281.494644 233.267118 
L 281.819623 230.211181 
L 282.144603 232.315269 
L 282.794562 222.245706 
L 283.119541 223.999112 
L 283.7695 219.690742 
L 284.09448 220.943175 
L 284.419459 216.835194 
L 284.744439 210.122152 
L 285.069419 200.303076 
L 285.394398 208.168356 
L 285.719378 199.351226 
L 286.044357 197.59782 
L 286.369337 194.942661 
L 287.019296 173.901783 
L 287.344275 182.067648 
L 287.669255 167.58952 
L 287.994234 174.15227 
L 288.644193 155.265577 
L 288.969173 133.82392 
L 289.944111 101.21056 
L 290.269091 60.681821 
L 290.91905 53.718292 
L 291.244029 57.225105 
L 291.569009 53.818487 
L 291.893989 53.818487 
L 292.218968 57.976565 
L 292.543948 53.568 
L 292.868927 53.618097 
L 293.193907 54.018876 
L 293.518886 56.824326 
L 293.843866 56.974618 
L 294.168845 56.824326 
L 294.493825 53.768389 
L 294.818804 53.718292 
L 295.143784 56.724132 
L 295.468763 53.718292 
L 295.793743 56.874424 
L 296.118722 53.568 
L 296.443702 56.874424 
L 296.768681 56.774229 
L 297.093661 53.818487 
L 297.41864 56.724132 
L 297.74362 56.674034 
L 298.0686 53.568 
L 298.718559 53.668195 
L 299.043538 56.724132 
L 299.368518 53.768389 
L 299.693497 56.874424 
L 300.018477 53.568 
L 300.343456 56.724132 
L 300.668436 56.774229 
L 300.993415 53.618097 
L 301.318395 53.768389 
L 301.643374 53.618097 
L 301.968354 53.768389 
L 302.293333 53.668195 
L 302.618313 56.774229 
L 302.943292 53.768389 
L 303.268272 56.724132 
L 303.593251 53.718292 
L 303.918231 56.874424 
L 304.24321 53.768389 
L 304.56819 56.974618 
L 304.89317 53.768389 
L 305.218149 53.768389 
L 305.543129 56.724132 
L 305.868108 53.568 
L 306.193088 56.724132 
L 306.518067 53.668195 
L 306.843047 56.724132 
L 307.168026 56.674034 
L 307.493006 56.824326 
L 307.817985 53.668195 
L 308.142965 53.618097 
L 308.467944 53.768389 
L 308.792924 53.568 
L 309.117903 56.724132 
L 310.417821 56.724132 
L 310.742801 53.568 
L 311.067781 53.568 
L 311.39276 53.768389 
L 311.71774 56.724132 
L 312.042719 56.724132 
L 312.367699 53.568 
L 312.692678 53.668195 
L 313.017658 53.618097 
L 313.342637 56.724132 
L 313.667617 56.674034 
L 313.992596 53.768389 
L 314.317576 56.724132 
L 314.642555 56.774229 
L 314.967535 53.818487 
L 315.292514 56.724132 
L 315.617494 56.724132 
L 315.942473 53.668195 
L 316.267453 56.724132 
L 316.592432 56.724132 
L 316.917412 53.568 
L 317.242391 53.618097 
L 317.567371 56.724132 
L 317.892351 56.974618 
L 318.21733 56.674034 
L 319.192269 56.724132 
L 319.842228 56.824326 
L 320.167207 53.768389 
L 320.492187 56.874424 
L 320.817166 53.668195 
L 321.142146 56.724132 
L 322.117084 56.724132 
L 322.442064 53.618097 
L 322.767043 56.724132 
L 323.092023 53.618097 
L 323.417002 53.718292 
L 323.741982 56.824326 
L 324.066962 56.724132 
L 324.391941 53.618097 
L 324.716921 53.568 
L 325.0419 56.724132 
L 325.36688 53.718292 
L 325.691859 56.724132 
L 326.016839 56.724132 
L 326.341818 53.568 
L 326.666798 56.724132 
L 327.316757 56.774229 
L 327.641736 53.618097 
L 327.966716 53.668195 
L 328.291695 56.674034 
L 328.616675 56.724132 
L 328.941654 53.768389 
L 329.266634 56.724132 
L 329.591613 53.768389 
L 329.916593 56.724132 
L 331.86647 56.724132 
L 332.19145 53.668195 
L 332.516429 53.568 
L 332.841409 56.724132 
L 333.816347 56.724132 
L 334.141327 53.568 
L 334.466306 53.768389 
L 334.791286 56.724132 
L 335.116265 53.568 
L 336.416183 53.618097 
L 336.741163 56.724132 
L 337.066143 53.668195 
L 337.716102 53.568 
L 338.041081 53.718292 
L 338.366061 56.724132 
L 338.69104 53.668195 
L 339.990958 53.618097 
L 340.315938 56.724132 
L 340.640917 53.668195 
L 340.965897 53.768389 
L 341.290876 56.724132 
L 341.615856 53.618097 
L 341.940835 53.668195 
L 342.265815 56.724132 
L 342.590794 56.724132 
L 342.915774 53.618097 
L 343.890713 53.718292 
L 344.215692 56.724132 
L 344.540672 53.568 
L 344.865651 56.724132 
L 345.190631 56.724132 
L 345.51561 53.618097 
L 345.84059 53.618097 
L 346.165569 56.724132 
L 346.490549 56.724132 
L 346.815528 53.568 
L 347.140508 53.618097 
L 347.465487 56.724132 
L 347.790467 53.768389 
L 348.115446 53.568 
L 348.440426 56.724132 
L 348.765405 53.568 
L 349.090385 56.724132 
L 349.415364 53.568 
L 350.065324 53.568 
L 350.390303 53.568 
L 350.715283 56.724132 
L 351.040262 57.024716 
L 351.365242 56.724132 
L 351.690221 53.668195 
L 352.015201 53.568 
L 352.34018 53.618097 
L 352.66516 56.724132 
L 353.640098 56.724132 
L 353.965078 53.618097 
L 354.290057 56.724132 
L 354.615037 56.724132 
L 354.940016 53.568 
L 355.914955 53.618097 
L 356.239934 56.724132 
L 356.564914 53.668195 
L 356.889894 56.724132 
L 357.539853 56.724132 
L 357.864832 53.568 
L 358.189812 56.724132 
L 358.514791 53.568 
L 358.839771 53.768389 
L 359.16475 56.724132 
L 359.48973 56.724132 
L 359.814709 53.568 
L 360.139689 53.768389 
L 360.464668 56.824326 
L 361.114627 56.724132 
L 361.764586 56.724132 
L 362.089566 53.568 
L 363.389484 53.568 
L 363.714464 56.724132 
L 364.039443 56.724132 
L 364.364423 53.718292 
L 364.689402 53.668195 
L 365.014382 56.724132 
L 365.664341 56.724132 
L 365.98932 53.618097 
L 366.3143 56.724132 
L 366.639279 53.718292 
L 366.964259 56.724132 
L 367.289238 53.618097 
L 367.614218 56.724132 
L 367.939197 56.724132 
L 368.264177 53.568 
L 368.589156 53.668195 
L 368.914136 53.618097 
L 369.239115 56.724132 
L 369.564095 53.618097 
L 369.889075 56.724132 
L 370.539034 56.724132 
L 370.864013 53.568 
L 371.838952 53.668195 
L 372.163931 56.724132 
L 372.488911 53.718292 
L 372.81389 56.724132 
L 373.13887 56.724132 
L 373.463849 53.568 
L 373.788829 56.724132 
L 374.113808 53.568 
L 374.438788 53.668195 
L 374.763767 53.618097 
L 375.088747 56.724132 
L 377.688583 56.724132 
L 378.013563 53.568 
L 378.338542 53.618097 
L 378.663522 56.724132 
L 378.988501 56.724132 
L 379.313481 53.618097 
L 379.63846 56.724132 
L 379.96344 56.724132 
L 380.288419 53.618097 
L 380.613399 56.724132 
L 380.938378 53.568 
L 381.263358 53.568 
L 381.588337 56.724132 
L 381.913317 56.724132 
L 382.238296 53.568 
L 382.563276 53.668195 
L 383.538215 53.568 
L 383.863194 56.724132 
L 384.188174 53.568 
L 384.513153 53.618097 
L 384.838133 56.724132 
L 385.813071 56.724132 
L 386.138051 53.568 
L 386.46303 56.724132 
L 387.112989 56.724132 
L 387.437969 53.568 
L 387.762948 53.568 
L 388.087928 56.724132 
L 388.737887 56.724132 
L 389.062867 53.568 
L 389.712826 53.768389 
L 390.037805 53.568 
L 391.337723 53.568 
L 391.662703 56.724132 
L 391.987682 53.618097 
L 392.312662 56.724132 
L 393.2876 56.724132 
L 393.61258 53.718292 
L 393.937559 56.724132 
L 394.262539 53.568 
L 394.587518 56.724132 
L 395.237477 56.724132 
L 395.562457 56.724132 
L 395.887437 53.568 
L 396.212416 53.668195 
L 396.537396 56.724132 
L 397.187355 56.724132 
L 397.512334 53.618097 
L 397.837314 56.724132 
L 398.162293 56.724132 
L 398.487273 53.618097 
L 398.487273 53.618097 
" clip-path="url(#p97cb3d42ed)" style="fill: none; stroke: #1f77b4; stroke-width: 1.5; stroke-linecap: square"/>
   </g>
   <g id="patch_3">
    <path d="M 57.6 307.584 
L 57.6 41.472 
" style="fill: none; stroke: #000000; stroke-width: 0.8; stroke-linejoin: miter; stroke-linecap: square"/>
   </g>
   <g id="patch_4">
    <path d="M 414.72 307.584 
L 414.72 41.472 
" style="fill: none; stroke: #000000; stroke-width: 0.8; stroke-linejoin: miter; stroke-linecap: square"/>
   </g>
   <g id="patch_5">
    <path d="M 57.6 307.584 
L 414.72 307.584 
" style="fill: none; stroke: #000000; stroke-width: 0.8; stroke-linejoin: miter; stroke-linecap: square"/>
   </g>
   <g id="patch_6">
    <path d="M 57.6 41.472 
L 414.72 41.472 
" style="fill: none; stroke: #000000; stroke-width: 0.8; stroke-linejoin: miter; stroke-linecap: square"/>
   </g>
  </g>
 </g>
 <defs>
  <clipPath id="p97cb3d42ed">
   <rect x="57.6" y="41.472" width="357.12" height="266.112"/>
  </clipPath>
 </defs>
</svg>
