<?xml version="1.0" encoding="utf-8" standalone="no"?>
<!DOCTYPE svg PUBLIC "-//W3C//DTD SVG 1.1//EN"
  "http://www.w3.org/Graphics/SVG/1.1/DTD/svg11.dtd">
<svg xmlns:xlink="http://www.w3.org/1999/xlink" width="460.8pt" height="345.6pt" viewBox="0 0 460.8 345.6" xmlns="http://www.w3.org/2000/svg" version="1.1">
 <metadata>
  <rdf:RDF xmlns:dc="http://purl.org/dc/elements/1.1/" xmlns:cc="http://creativecommons.org/ns#" xmlns:rdf="http://www.w3.org/1999/02/22-rdf-syntax-ns#">
   <cc:Work>
    <dc:type rdf:resource="http://purl.org/dc/dcmitype/StillImage"/>
    <dc:date>2022-10-11T21:29:10.330300</dc:date>
    <dc:format>image/svg+xml</dc:format>
    <dc:creator>
     <cc:Agent>
      <dc:title>Matplotlib v3.6.0, https://matplotlib.org/</dc:title>
     </cc:Agent>
    </dc:creator>
   </cc:Work>
  </rdf:RDF>
 </metadata>
 <defs>
  <style type="text/css">*{stroke-linejoin: round; stroke-linecap: butt}</style>
 </defs>
 <g id="figure_1">
  <g id="patch_1">
   <path d="M 0 345.6 
L 460.8 345.6 
L 460.8 0 
L 0 0 
z
" style="fill: #ffffff"/>
  </g>
  <g id="axes_1">
   <g id="patch_2">
    <path d="M 57.6 307.584 
L 414.72 307.584 
L 414.72 41.472 
L 57.6 41.472 
z
" style="fill: #ffffff"/>
   </g>
   <g id="matplotlib.axis_1">
    <g id="xtick_1">
     <g id="line2d_1">
      <defs>
       <path id="me3b092a31d" d="M 0 0 
L 0 3.5 
" style="stroke: #000000; stroke-width: 0.8"/>
      </defs>
      <g>
       <use xlink:href="#me3b092a31d" x="73.832727" y="307.584" style="stroke: #000000; stroke-width: 0.8"/>
      </g>
     </g>
     <g id="text_1">
      <!-- −3 -->
      <g transform="translate(66.461634 322.182437) scale(0.1 -0.1)">
       <defs>
        <path id="DejaVuSans-2212" d="M 678 2272 
L 4684 2272 
L 4684 1741 
L 678 1741 
L 678 2272 
z
" transform="scale(0.015625)"/>
        <path id="DejaVuSans-33" d="M 2597 2516 
Q 3050 2419 3304 2112 
Q 3559 1806 3559 1356 
Q 3559 666 3084 287 
Q 2609 -91 1734 -91 
Q 1441 -91 1130 -33 
Q 819 25 488 141 
L 488 750 
Q 750 597 1062 519 
Q 1375 441 1716 441 
Q 2309 441 2620 675 
Q 2931 909 2931 1356 
Q 2931 1769 2642 2001 
Q 2353 2234 1838 2234 
L 1294 2234 
L 1294 2753 
L 1863 2753 
Q 2328 2753 2575 2939 
Q 2822 3125 2822 3475 
Q 2822 3834 2567 4026 
Q 2313 4219 1838 4219 
Q 1578 4219 1281 4162 
Q 984 4106 628 3988 
L 628 4550 
Q 988 4650 1302 4700 
Q 1616 4750 1894 4750 
Q 2613 4750 3031 4423 
Q 3450 4097 3450 3541 
Q 3450 3153 3228 2886 
Q 3006 2619 2597 2516 
z
" transform="scale(0.015625)"/>
       </defs>
       <use xlink:href="#DejaVuSans-2212"/>
       <use xlink:href="#DejaVuSans-33" x="83.789062"/>
      </g>
     </g>
    </g>
    <g id="xtick_2">
     <g id="line2d_2">
      <g>
       <use xlink:href="#me3b092a31d" x="127.941818" y="307.584" style="stroke: #000000; stroke-width: 0.8"/>
      </g>
     </g>
     <g id="text_2">
      <!-- −2 -->
      <g transform="translate(120.570724 322.182437) scale(0.1 -0.1)">
       <defs>
        <path id="DejaVuSans-32" d="M 1228 531 
L 3431 531 
L 3431 0 
L 469 0 
L 469 531 
Q 828 903 1448 1529 
Q 2069 2156 2228 2338 
Q 2531 2678 2651 2914 
Q 2772 3150 2772 3378 
Q 2772 3750 2511 3984 
Q 2250 4219 1831 4219 
Q 1534 4219 1204 4116 
Q 875 4013 500 3803 
L 500 4441 
Q 881 4594 1212 4672 
Q 1544 4750 1819 4750 
Q 2544 4750 2975 4387 
Q 3406 4025 3406 3419 
Q 3406 3131 3298 2873 
Q 3191 2616 2906 2266 
Q 2828 2175 2409 1742 
Q 1991 1309 1228 531 
z
" transform="scale(0.015625)"/>
       </defs>
       <use xlink:href="#DejaVuSans-2212"/>
       <use xlink:href="#DejaVuSans-32" x="83.789062"/>
      </g>
     </g>
    </g>
    <g id="xtick_3">
     <g id="line2d_3">
      <g>
       <use xlink:href="#me3b092a31d" x="182.050909" y="307.584" style="stroke: #000000; stroke-width: 0.8"/>
      </g>
     </g>
     <g id="text_3">
      <!-- −1 -->
      <g transform="translate(174.679815 322.182437) scale(0.1 -0.1)">
       <defs>
        <path id="DejaVuSans-31" d="M 794 531 
L 1825 531 
L 1825 4091 
L 703 3866 
L 703 4441 
L 1819 4666 
L 2450 4666 
L 2450 531 
L 3481 531 
L 3481 0 
L 794 0 
L 794 531 
z
" transform="scale(0.015625)"/>
       </defs>
       <use xlink:href="#DejaVuSans-2212"/>
       <use xlink:href="#DejaVuSans-31" x="83.789062"/>
      </g>
     </g>
    </g>
    <g id="xtick_4">
     <g id="line2d_4">
      <g>
       <use xlink:href="#me3b092a31d" x="236.16" y="307.584" style="stroke: #000000; stroke-width: 0.8"/>
      </g>
     </g>
     <g id="text_4">
      <!-- 0 -->
      <g transform="translate(232.97875 322.182437) scale(0.1 -0.1)">
       <defs>
        <path id="DejaVuSans-30" d="M 2034 4250 
Q 1547 4250 1301 3770 
Q 1056 3291 1056 2328 
Q 1056 1369 1301 889 
Q 1547 409 2034 409 
Q 2525 409 2770 889 
Q 3016 1369 3016 2328 
Q 3016 3291 2770 3770 
Q 2525 4250 2034 4250 
z
M 2034 4750 
Q 2819 4750 3233 4129 
Q 3647 3509 3647 2328 
Q 3647 1150 3233 529 
Q 2819 -91 2034 -91 
Q 1250 -91 836 529 
Q 422 1150 422 2328 
Q 422 3509 836 4129 
Q 1250 4750 2034 4750 
z
" transform="scale(0.015625)"/>
       </defs>
       <use xlink:href="#DejaVuSans-30"/>
      </g>
     </g>
    </g>
    <g id="xtick_5">
     <g id="line2d_5">
      <g>
       <use xlink:href="#me3b092a31d" x="290.269091" y="307.584" style="stroke: #000000; stroke-width: 0.8"/>
      </g>
     </g>
     <g id="text_5">
      <!-- 1 -->
      <g transform="translate(287.087841 322.182437) scale(0.1 -0.1)">
       <use xlink:href="#DejaVuSans-31"/>
      </g>
     </g>
    </g>
    <g id="xtick_6">
     <g id="line2d_6">
      <g>
       <use xlink:href="#me3b092a31d" x="344.378182" y="307.584" style="stroke: #000000; stroke-width: 0.8"/>
      </g>
     </g>
     <g id="text_6">
      <!-- 2 -->
      <g transform="translate(341.196932 322.182437) scale(0.1 -0.1)">
       <use xlink:href="#DejaVuSans-32"/>
      </g>
     </g>
    </g>
    <g id="xtick_7">
     <g id="line2d_7">
      <g>
       <use xlink:href="#me3b092a31d" x="398.487273" y="307.584" style="stroke: #000000; stroke-width: 0.8"/>
      </g>
     </g>
     <g id="text_7">
      <!-- 3 -->
      <g transform="translate(395.306023 322.182437) scale(0.1 -0.1)">
       <use xlink:href="#DejaVuSans-33"/>
      </g>
     </g>
    </g>
    <g id="text_8">
     <!-- reflection scaling coefficient -->
     <g transform="translate(165.732656 335.860562) scale(0.1 -0.1)">
      <defs>
       <path id="DejaVuSans-72" d="M 2631 2963 
Q 2534 3019 2420 3045 
Q 2306 3072 2169 3072 
Q 1681 3072 1420 2755 
Q 1159 2438 1159 1844 
L 1159 0 
L 581 0 
L 581 3500 
L 1159 3500 
L 1159 2956 
Q 1341 3275 1631 3429 
Q 1922 3584 2338 3584 
Q 2397 3584 2469 3576 
Q 2541 3569 2628 3553 
L 2631 2963 
z
" transform="scale(0.015625)"/>
       <path id="DejaVuSans-65" d="M 3597 1894 
L 3597 1613 
L 953 1613 
Q 991 1019 1311 708 
Q 1631 397 2203 397 
Q 2534 397 2845 478 
Q 3156 559 3463 722 
L 3463 178 
Q 3153 47 2828 -22 
Q 2503 -91 2169 -91 
Q 1331 -91 842 396 
Q 353 884 353 1716 
Q 353 2575 817 3079 
Q 1281 3584 2069 3584 
Q 2775 3584 3186 3129 
Q 3597 2675 3597 1894 
z
M 3022 2063 
Q 3016 2534 2758 2815 
Q 2500 3097 2075 3097 
Q 1594 3097 1305 2825 
Q 1016 2553 972 2059 
L 3022 2063 
z
" transform="scale(0.015625)"/>
       <path id="DejaVuSans-66" d="M 2375 4863 
L 2375 4384 
L 1825 4384 
Q 1516 4384 1395 4259 
Q 1275 4134 1275 3809 
L 1275 3500 
L 2222 3500 
L 2222 3053 
L 1275 3053 
L 1275 0 
L 697 0 
L 697 3053 
L 147 3053 
L 147 3500 
L 697 3500 
L 697 3744 
Q 697 4328 969 4595 
Q 1241 4863 1831 4863 
L 2375 4863 
z
" transform="scale(0.015625)"/>
       <path id="DejaVuSans-6c" d="M 603 4863 
L 1178 4863 
L 1178 0 
L 603 0 
L 603 4863 
z
" transform="scale(0.015625)"/>
       <path id="DejaVuSans-63" d="M 3122 3366 
L 3122 2828 
Q 2878 2963 2633 3030 
Q 2388 3097 2138 3097 
Q 1578 3097 1268 2742 
Q 959 2388 959 1747 
Q 959 1106 1268 751 
Q 1578 397 2138 397 
Q 2388 397 2633 464 
Q 2878 531 3122 666 
L 3122 134 
Q 2881 22 2623 -34 
Q 2366 -91 2075 -91 
Q 1284 -91 818 406 
Q 353 903 353 1747 
Q 353 2603 823 3093 
Q 1294 3584 2113 3584 
Q 2378 3584 2631 3529 
Q 2884 3475 3122 3366 
z
" transform="scale(0.015625)"/>
       <path id="DejaVuSans-74" d="M 1172 4494 
L 1172 3500 
L 2356 3500 
L 2356 3053 
L 1172 3053 
L 1172 1153 
Q 1172 725 1289 603 
Q 1406 481 1766 481 
L 2356 481 
L 2356 0 
L 1766 0 
Q 1100 0 847 248 
Q 594 497 594 1153 
L 594 3053 
L 172 3053 
L 172 3500 
L 594 3500 
L 594 4494 
L 1172 4494 
z
" transform="scale(0.015625)"/>
       <path id="DejaVuSans-69" d="M 603 3500 
L 1178 3500 
L 1178 0 
L 603 0 
L 603 3500 
z
M 603 4863 
L 1178 4863 
L 1178 4134 
L 603 4134 
L 603 4863 
z
" transform="scale(0.015625)"/>
       <path id="DejaVuSans-6f" d="M 1959 3097 
Q 1497 3097 1228 2736 
Q 959 2375 959 1747 
Q 959 1119 1226 758 
Q 1494 397 1959 397 
Q 2419 397 2687 759 
Q 2956 1122 2956 1747 
Q 2956 2369 2687 2733 
Q 2419 3097 1959 3097 
z
M 1959 3584 
Q 2709 3584 3137 3096 
Q 3566 2609 3566 1747 
Q 3566 888 3137 398 
Q 2709 -91 1959 -91 
Q 1206 -91 779 398 
Q 353 888 353 1747 
Q 353 2609 779 3096 
Q 1206 3584 1959 3584 
z
" transform="scale(0.015625)"/>
       <path id="DejaVuSans-6e" d="M 3513 2113 
L 3513 0 
L 2938 0 
L 2938 2094 
Q 2938 2591 2744 2837 
Q 2550 3084 2163 3084 
Q 1697 3084 1428 2787 
Q 1159 2491 1159 1978 
L 1159 0 
L 581 0 
L 581 3500 
L 1159 3500 
L 1159 2956 
Q 1366 3272 1645 3428 
Q 1925 3584 2291 3584 
Q 2894 3584 3203 3211 
Q 3513 2838 3513 2113 
z
" transform="scale(0.015625)"/>
       <path id="DejaVuSans-20" transform="scale(0.015625)"/>
       <path id="DejaVuSans-73" d="M 2834 3397 
L 2834 2853 
Q 2591 2978 2328 3040 
Q 2066 3103 1784 3103 
Q 1356 3103 1142 2972 
Q 928 2841 928 2578 
Q 928 2378 1081 2264 
Q 1234 2150 1697 2047 
L 1894 2003 
Q 2506 1872 2764 1633 
Q 3022 1394 3022 966 
Q 3022 478 2636 193 
Q 2250 -91 1575 -91 
Q 1294 -91 989 -36 
Q 684 19 347 128 
L 347 722 
Q 666 556 975 473 
Q 1284 391 1588 391 
Q 1994 391 2212 530 
Q 2431 669 2431 922 
Q 2431 1156 2273 1281 
Q 2116 1406 1581 1522 
L 1381 1569 
Q 847 1681 609 1914 
Q 372 2147 372 2553 
Q 372 3047 722 3315 
Q 1072 3584 1716 3584 
Q 2034 3584 2315 3537 
Q 2597 3491 2834 3397 
z
" transform="scale(0.015625)"/>
       <path id="DejaVuSans-61" d="M 2194 1759 
Q 1497 1759 1228 1600 
Q 959 1441 959 1056 
Q 959 750 1161 570 
Q 1363 391 1709 391 
Q 2188 391 2477 730 
Q 2766 1069 2766 1631 
L 2766 1759 
L 2194 1759 
z
M 3341 1997 
L 3341 0 
L 2766 0 
L 2766 531 
Q 2569 213 2275 61 
Q 1981 -91 1556 -91 
Q 1019 -91 701 211 
Q 384 513 384 1019 
Q 384 1609 779 1909 
Q 1175 2209 1959 2209 
L 2766 2209 
L 2766 2266 
Q 2766 2663 2505 2880 
Q 2244 3097 1772 3097 
Q 1472 3097 1187 3025 
Q 903 2953 641 2809 
L 641 3341 
Q 956 3463 1253 3523 
Q 1550 3584 1831 3584 
Q 2591 3584 2966 3190 
Q 3341 2797 3341 1997 
z
" transform="scale(0.015625)"/>
       <path id="DejaVuSans-67" d="M 2906 1791 
Q 2906 2416 2648 2759 
Q 2391 3103 1925 3103 
Q 1463 3103 1205 2759 
Q 947 2416 947 1791 
Q 947 1169 1205 825 
Q 1463 481 1925 481 
Q 2391 481 2648 825 
Q 2906 1169 2906 1791 
z
M 3481 434 
Q 3481 -459 3084 -895 
Q 2688 -1331 1869 -1331 
Q 1566 -1331 1297 -1286 
Q 1028 -1241 775 -1147 
L 775 -588 
Q 1028 -725 1275 -790 
Q 1522 -856 1778 -856 
Q 2344 -856 2625 -561 
Q 2906 -266 2906 331 
L 2906 616 
Q 2728 306 2450 153 
Q 2172 0 1784 0 
Q 1141 0 747 490 
Q 353 981 353 1791 
Q 353 2603 747 3093 
Q 1141 3584 1784 3584 
Q 2172 3584 2450 3431 
Q 2728 3278 2906 2969 
L 2906 3500 
L 3481 3500 
L 3481 434 
z
" transform="scale(0.015625)"/>
      </defs>
      <use xlink:href="#DejaVuSans-72"/>
      <use xlink:href="#DejaVuSans-65" x="38.863281"/>
      <use xlink:href="#DejaVuSans-66" x="100.386719"/>
      <use xlink:href="#DejaVuSans-6c" x="135.591797"/>
      <use xlink:href="#DejaVuSans-65" x="163.375"/>
      <use xlink:href="#DejaVuSans-63" x="224.898438"/>
      <use xlink:href="#DejaVuSans-74" x="279.878906"/>
      <use xlink:href="#DejaVuSans-69" x="319.087891"/>
      <use xlink:href="#DejaVuSans-6f" x="346.871094"/>
      <use xlink:href="#DejaVuSans-6e" x="408.052734"/>
      <use xlink:href="#DejaVuSans-20" x="471.431641"/>
      <use xlink:href="#DejaVuSans-73" x="503.21875"/>
      <use xlink:href="#DejaVuSans-63" x="555.318359"/>
      <use xlink:href="#DejaVuSans-61" x="610.298828"/>
      <use xlink:href="#DejaVuSans-6c" x="671.578125"/>
      <use xlink:href="#DejaVuSans-69" x="699.361328"/>
      <use xlink:href="#DejaVuSans-6e" x="727.144531"/>
      <use xlink:href="#DejaVuSans-67" x="790.523438"/>
      <use xlink:href="#DejaVuSans-20" x="854"/>
      <use xlink:href="#DejaVuSans-63" x="885.787109"/>
      <use xlink:href="#DejaVuSans-6f" x="940.767578"/>
      <use xlink:href="#DejaVuSans-65" x="1001.949219"/>
      <use xlink:href="#DejaVuSans-66" x="1063.472656"/>
      <use xlink:href="#DejaVuSans-66" x="1098.677734"/>
      <use xlink:href="#DejaVuSans-69" x="1133.882812"/>
      <use xlink:href="#DejaVuSans-63" x="1161.666016"/>
      <use xlink:href="#DejaVuSans-69" x="1216.646484"/>
      <use xlink:href="#DejaVuSans-65" x="1244.429688"/>
      <use xlink:href="#DejaVuSans-6e" x="1305.953125"/>
      <use xlink:href="#DejaVuSans-74" x="1369.332031"/>
     </g>
    </g>
   </g>
   <g id="matplotlib.axis_2">
    <g id="ytick_1">
     <g id="line2d_8">
      <defs>
       <path id="m236549e8c5" d="M 0 0 
L -3.5 0 
" style="stroke: #000000; stroke-width: 0.8"/>
      </defs>
      <g>
       <use xlink:href="#m236549e8c5" x="57.6" y="295.488" style="stroke: #000000; stroke-width: 0.8"/>
      </g>
     </g>
     <g id="text_9">
      <!-- 0 -->
      <g transform="translate(44.2375 299.287219) scale(0.1 -0.1)">
       <use xlink:href="#DejaVuSans-30"/>
      </g>
     </g>
    </g>
    <g id="ytick_2">
     <g id="line2d_9">
      <g>
       <use xlink:href="#m236549e8c5" x="57.6" y="253.777655" style="stroke: #000000; stroke-width: 0.8"/>
      </g>
     </g>
     <g id="text_10">
      <!-- 1 -->
      <g transform="translate(44.2375 257.576874) scale(0.1 -0.1)">
       <use xlink:href="#DejaVuSans-31"/>
      </g>
     </g>
    </g>
    <g id="ytick_3">
     <g id="line2d_10">
      <g>
       <use xlink:href="#m236549e8c5" x="57.6" y="212.06731" style="stroke: #000000; stroke-width: 0.8"/>
      </g>
     </g>
     <g id="text_11">
      <!-- 2 -->
      <g transform="translate(44.2375 215.866529) scale(0.1 -0.1)">
       <use xlink:href="#DejaVuSans-32"/>
      </g>
     </g>
    </g>
    <g id="ytick_4">
     <g id="line2d_11">
      <g>
       <use xlink:href="#m236549e8c5" x="57.6" y="170.356966" style="stroke: #000000; stroke-width: 0.8"/>
      </g>
     </g>
     <g id="text_12">
      <!-- 3 -->
      <g transform="translate(44.2375 174.156184) scale(0.1 -0.1)">
       <use xlink:href="#DejaVuSans-33"/>
      </g>
     </g>
    </g>
    <g id="ytick_5">
     <g id="line2d_12">
      <g>
       <use xlink:href="#m236549e8c5" x="57.6" y="128.646621" style="stroke: #000000; stroke-width: 0.8"/>
      </g>
     </g>
     <g id="text_13">
      <!-- 4 -->
      <g transform="translate(44.2375 132.445839) scale(0.1 -0.1)">
       <defs>
        <path id="DejaVuSans-34" d="M 2419 4116 
L 825 1625 
L 2419 1625 
L 2419 4116 
z
M 2253 4666 
L 3047 4666 
L 3047 1625 
L 3713 1625 
L 3713 1100 
L 3047 1100 
L 3047 0 
L 2419 0 
L 2419 1100 
L 313 1100 
L 313 1709 
L 2253 4666 
z
" transform="scale(0.015625)"/>
       </defs>
       <use xlink:href="#DejaVuSans-34"/>
      </g>
     </g>
    </g>
    <g id="ytick_6">
     <g id="line2d_13">
      <g>
       <use xlink:href="#m236549e8c5" x="57.6" y="86.936276" style="stroke: #000000; stroke-width: 0.8"/>
      </g>
     </g>
     <g id="text_14">
      <!-- 5 -->
      <g transform="translate(44.2375 90.735495) scale(0.1 -0.1)">
       <defs>
        <path id="DejaVuSans-35" d="M 691 4666 
L 3169 4666 
L 3169 4134 
L 1269 4134 
L 1269 2991 
Q 1406 3038 1543 3061 
Q 1681 3084 1819 3084 
Q 2600 3084 3056 2656 
Q 3513 2228 3513 1497 
Q 3513 744 3044 326 
Q 2575 -91 1722 -91 
Q 1428 -91 1123 -41 
Q 819 9 494 109 
L 494 744 
Q 775 591 1075 516 
Q 1375 441 1709 441 
Q 2250 441 2565 725 
Q 2881 1009 2881 1497 
Q 2881 1984 2565 2268 
Q 2250 2553 1709 2553 
Q 1456 2553 1204 2497 
Q 953 2441 691 2322 
L 691 4666 
z
" transform="scale(0.015625)"/>
       </defs>
       <use xlink:href="#DejaVuSans-35"/>
      </g>
     </g>
    </g>
    <g id="ytick_7">
     <g id="line2d_14">
      <g>
       <use xlink:href="#m236549e8c5" x="57.6" y="45.225931" style="stroke: #000000; stroke-width: 0.8"/>
      </g>
     </g>
     <g id="text_15">
      <!-- 6 -->
      <g transform="translate(44.2375 49.02515) scale(0.1 -0.1)">
       <defs>
        <path id="DejaVuSans-36" d="M 2113 2584 
Q 1688 2584 1439 2293 
Q 1191 2003 1191 1497 
Q 1191 994 1439 701 
Q 1688 409 2113 409 
Q 2538 409 2786 701 
Q 3034 994 3034 1497 
Q 3034 2003 2786 2293 
Q 2538 2584 2113 2584 
z
M 3366 4563 
L 3366 3988 
Q 3128 4100 2886 4159 
Q 2644 4219 2406 4219 
Q 1781 4219 1451 3797 
Q 1122 3375 1075 2522 
Q 1259 2794 1537 2939 
Q 1816 3084 2150 3084 
Q 2853 3084 3261 2657 
Q 3669 2231 3669 1497 
Q 3669 778 3244 343 
Q 2819 -91 2113 -91 
Q 1303 -91 875 529 
Q 447 1150 447 2328 
Q 447 3434 972 4092 
Q 1497 4750 2381 4750 
Q 2619 4750 2861 4703 
Q 3103 4656 3366 4563 
z
" transform="scale(0.015625)"/>
       </defs>
       <use xlink:href="#DejaVuSans-36"/>
      </g>
     </g>
    </g>
    <g id="text_16">
     <!-- percentage bit errors -->
     <g transform="translate(38.157812 227.399875) rotate(-90) scale(0.1 -0.1)">
      <defs>
       <path id="DejaVuSans-70" d="M 1159 525 
L 1159 -1331 
L 581 -1331 
L 581 3500 
L 1159 3500 
L 1159 2969 
Q 1341 3281 1617 3432 
Q 1894 3584 2278 3584 
Q 2916 3584 3314 3078 
Q 3713 2572 3713 1747 
Q 3713 922 3314 415 
Q 2916 -91 2278 -91 
Q 1894 -91 1617 61 
Q 1341 213 1159 525 
z
M 3116 1747 
Q 3116 2381 2855 2742 
Q 2594 3103 2138 3103 
Q 1681 3103 1420 2742 
Q 1159 2381 1159 1747 
Q 1159 1113 1420 752 
Q 1681 391 2138 391 
Q 2594 391 2855 752 
Q 3116 1113 3116 1747 
z
" transform="scale(0.015625)"/>
       <path id="DejaVuSans-62" d="M 3116 1747 
Q 3116 2381 2855 2742 
Q 2594 3103 2138 3103 
Q 1681 3103 1420 2742 
Q 1159 2381 1159 1747 
Q 1159 1113 1420 752 
Q 1681 391 2138 391 
Q 2594 391 2855 752 
Q 3116 1113 3116 1747 
z
M 1159 2969 
Q 1341 3281 1617 3432 
Q 1894 3584 2278 3584 
Q 2916 3584 3314 3078 
Q 3713 2572 3713 1747 
Q 3713 922 3314 415 
Q 2916 -91 2278 -91 
Q 1894 -91 1617 61 
Q 1341 213 1159 525 
L 1159 0 
L 581 0 
L 581 4863 
L 1159 4863 
L 1159 2969 
z
" transform="scale(0.015625)"/>
      </defs>
      <use xlink:href="#DejaVuSans-70"/>
      <use xlink:href="#DejaVuSans-65" x="63.476562"/>
      <use xlink:href="#DejaVuSans-72" x="125"/>
      <use xlink:href="#DejaVuSans-63" x="163.863281"/>
      <use xlink:href="#DejaVuSans-65" x="218.84375"/>
      <use xlink:href="#DejaVuSans-6e" x="280.367188"/>
      <use xlink:href="#DejaVuSans-74" x="343.746094"/>
      <use xlink:href="#DejaVuSans-61" x="382.955078"/>
      <use xlink:href="#DejaVuSans-67" x="444.234375"/>
      <use xlink:href="#DejaVuSans-65" x="507.710938"/>
      <use xlink:href="#DejaVuSans-20" x="569.234375"/>
      <use xlink:href="#DejaVuSans-62" x="601.021484"/>
      <use xlink:href="#DejaVuSans-69" x="664.498047"/>
      <use xlink:href="#DejaVuSans-74" x="692.28125"/>
      <use xlink:href="#DejaVuSans-20" x="731.490234"/>
      <use xlink:href="#DejaVuSans-65" x="763.277344"/>
      <use xlink:href="#DejaVuSans-72" x="824.800781"/>
      <use xlink:href="#DejaVuSans-72" x="864.164062"/>
      <use xlink:href="#DejaVuSans-6f" x="903.027344"/>
      <use xlink:href="#DejaVuSans-72" x="964.208984"/>
      <use xlink:href="#DejaVuSans-73" x="1005.322266"/>
     </g>
    </g>
   </g>
   <g id="line2d_15">
    <path d="M 73.832727 295.488 
L 122.904636 295.488 
L 123.229615 287.145931 
L 123.554595 295.488 
L 125.504472 295.488 
L 125.829451 291.316966 
L 126.154431 295.488 
L 126.80439 295.488 
L 127.129369 291.316966 
L 127.454349 295.488 
L 131.679083 295.488 
L 132.004062 291.316966 
L 132.329042 295.488 
L 132.654021 295.488 
L 132.979001 291.316966 
L 133.30398 291.316966 
L 133.62896 287.145931 
L 133.953939 287.145931 
L 134.603898 295.488 
L 134.928878 291.316966 
L 135.253857 291.316966 
L 135.578837 295.488 
L 135.903817 295.488 
L 136.228796 287.145931 
L 136.878755 295.488 
L 137.203735 295.488 
L 137.853694 287.145931 
L 138.178673 295.488 
L 138.828632 295.488 
L 139.153612 291.316966 
L 139.478591 282.974897 
L 139.803571 282.974897 
L 140.12855 295.488 
L 140.45353 287.145931 
L 141.428468 287.145931 
L 141.753448 274.632828 
L 142.078428 278.803862 
L 142.403407 295.488 
L 143.053366 278.803862 
L 143.378346 295.488 
L 144.028305 287.145931 
L 144.353284 274.632828 
L 144.678264 287.145931 
L 145.328223 287.145931 
L 145.653202 282.974897 
L 145.978182 282.974897 
L 146.303161 278.803862 
L 146.628141 282.974897 
L 146.95312 274.632828 
L 147.603079 274.632828 
L 147.928059 282.974897 
L 148.253038 295.488 
L 148.902998 274.632828 
L 149.227977 270.461793 
L 149.552957 257.94869 
L 149.877936 287.145931 
L 150.202916 274.632828 
L 150.527895 278.803862 
L 150.852875 270.461793 
L 151.177854 282.974897 
L 151.502834 274.632828 
L 151.827813 262.119724 
L 152.152793 274.632828 
L 152.477772 257.94869 
L 152.802752 278.803862 
L 153.127731 274.632828 
L 153.452711 245.435586 
L 153.77769 287.145931 
L 154.10267 270.461793 
L 154.427649 274.632828 
L 154.752629 262.119724 
L 155.077609 266.290759 
L 155.402588 262.119724 
L 155.727568 253.777655 
L 156.052547 274.632828 
L 156.377527 237.093517 
L 156.702506 262.119724 
L 157.027486 266.290759 
L 157.352465 257.94869 
L 157.677445 274.632828 
L 158.002424 249.606621 
L 158.327404 245.435586 
L 158.652383 257.94869 
L 158.977363 241.264552 
L 159.302342 253.777655 
L 159.627322 245.435586 
L 159.952301 249.606621 
L 160.277281 220.409379 
L 160.60226 237.093517 
L 160.92724 220.409379 
L 161.252219 237.093517 
L 161.577199 216.238345 
L 161.902179 241.264552 
L 162.227158 232.922483 
L 162.552138 245.435586 
L 162.877117 216.238345 
L 163.202097 220.409379 
L 163.527076 241.264552 
L 163.852056 232.922483 
L 164.177035 191.212138 
L 164.502015 220.409379 
L 164.826994 224.580414 
L 165.151974 207.896276 
L 165.476953 199.554207 
L 165.801933 182.870069 
L 166.126912 216.238345 
L 166.451892 228.751448 
L 167.101851 207.896276 
L 167.42683 203.725241 
L 167.75181 212.06731 
L 168.07679 187.041103 
L 168.401769 212.06731 
L 168.726749 170.356966 
L 169.051728 178.699034 
L 169.376708 166.185931 
L 169.701687 199.554207 
L 170.026667 178.699034 
L 170.351646 195.383172 
L 170.676626 199.554207 
L 171.001605 174.528 
L 171.326585 174.528 
L 171.651564 207.896276 
L 171.976544 191.212138 
L 172.301523 157.843862 
L 172.626503 141.159724 
L 172.951482 153.672828 
L 173.276462 157.843862 
L 173.601441 174.528 
L 173.926421 153.672828 
L 174.2514 111.962483 
L 175.226339 157.843862 
L 175.551319 78.594207 
L 175.876298 132.817655 
L 176.201278 128.646621 
L 176.526257 99.449379 
L 176.851237 141.159724 
L 177.176216 120.304552 
L 177.501196 74.423172 
L 177.826175 99.449379 
L 178.151155 107.791448 
L 178.476134 136.98869 
L 178.801114 74.423172 
L 179.126093 166.185931 
L 179.451073 95.278345 
L 179.776052 91.10731 
L 180.101032 136.98869 
L 180.426011 145.330759 
L 180.750991 116.133517 
L 181.075971 141.159724 
L 181.40095 149.501793 
L 182.375889 91.10731 
L 182.700868 91.10731 
L 183.025848 116.133517 
L 183.350827 120.304552 
L 183.675807 107.791448 
L 184.000786 107.791448 
L 184.325766 124.475586 
L 184.650745 111.962483 
L 184.975725 157.843862 
L 185.300704 99.449379 
L 185.625684 162.014897 
L 185.950663 103.620414 
L 186.275643 116.133517 
L 186.600622 78.594207 
L 186.925602 124.475586 
L 187.250581 78.594207 
L 187.575561 124.475586 
L 187.900541 91.10731 
L 188.22552 128.646621 
L 188.5505 128.646621 
L 188.875479 111.962483 
L 189.200459 132.817655 
L 189.525438 120.304552 
L 189.850418 128.646621 
L 190.175397 141.159724 
L 190.500377 162.014897 
L 190.825356 107.791448 
L 191.150336 174.528 
L 191.475315 120.304552 
L 191.800295 145.330759 
L 192.125274 145.330759 
L 192.450254 95.278345 
L 192.775233 132.817655 
L 193.100213 149.501793 
L 193.425192 124.475586 
L 193.750172 174.528 
L 194.075152 145.330759 
L 194.400131 162.014897 
L 194.725111 170.356966 
L 195.05009 145.330759 
L 195.37507 157.843862 
L 195.700049 149.501793 
L 196.025029 174.528 
L 196.350008 145.330759 
L 196.674988 149.501793 
L 196.999967 199.554207 
L 197.324947 153.672828 
L 197.649926 149.501793 
L 197.974906 187.041103 
L 198.299885 170.356966 
L 198.624865 191.212138 
L 198.949844 187.041103 
L 199.274824 191.212138 
L 199.599803 166.185931 
L 199.924783 187.041103 
L 200.249762 174.528 
L 200.574742 178.699034 
L 200.899722 178.699034 
L 201.224701 203.725241 
L 201.549681 191.212138 
L 201.87466 195.383172 
L 202.19964 178.699034 
L 202.524619 174.528 
L 202.849599 224.580414 
L 203.174578 224.580414 
L 203.499558 199.554207 
L 203.824537 187.041103 
L 204.149517 199.554207 
L 204.474496 220.409379 
L 204.799476 187.041103 
L 205.449435 207.896276 
L 205.774414 187.041103 
L 206.099394 253.777655 
L 206.424373 241.264552 
L 206.749353 199.554207 
L 207.399312 228.751448 
L 207.724292 232.922483 
L 208.049271 216.238345 
L 208.374251 253.777655 
L 208.69923 224.580414 
L 209.02421 241.264552 
L 209.349189 224.580414 
L 209.674169 232.922483 
L 209.999148 237.093517 
L 210.324128 257.94869 
L 210.649107 266.290759 
L 210.974087 245.435586 
L 211.299066 232.922483 
L 211.624046 241.264552 
L 212.274005 266.290759 
L 212.598984 245.435586 
L 212.923964 249.606621 
L 213.248943 241.264552 
L 213.898903 249.606621 
L 214.223882 257.94869 
L 214.548862 262.119724 
L 214.873841 270.461793 
L 215.198821 249.606621 
L 215.5238 266.290759 
L 215.84878 274.632828 
L 216.173759 270.461793 
L 216.498739 270.461793 
L 216.823718 266.290759 
L 217.148698 245.435586 
L 217.473677 262.119724 
L 217.798657 253.777655 
L 218.123636 274.632828 
L 218.448616 257.94869 
L 218.773595 291.316966 
L 219.098575 270.461793 
L 219.423554 270.461793 
L 219.748534 257.94869 
L 220.073514 262.119724 
L 220.398493 282.974897 
L 220.723473 262.119724 
L 221.048452 274.632828 
L 221.373432 253.777655 
L 221.698411 274.632828 
L 222.023391 282.974897 
L 222.67335 291.316966 
L 222.998329 291.316966 
L 223.323309 278.803862 
L 223.648288 278.803862 
L 223.973268 270.461793 
L 224.298247 282.974897 
L 224.623227 270.461793 
L 224.948206 287.145931 
L 225.273186 278.803862 
L 225.598165 287.145931 
L 225.923145 287.145931 
L 226.248124 278.803862 
L 226.573104 278.803862 
L 226.898084 270.461793 
L 227.223063 287.145931 
L 227.873022 278.803862 
L 228.198002 278.803862 
L 228.522981 262.119724 
L 228.847961 291.316966 
L 229.17294 282.974897 
L 229.49792 270.461793 
L 229.822899 282.974897 
L 230.147879 282.974897 
L 230.472858 287.145931 
L 231.122817 278.803862 
L 231.447797 278.803862 
L 231.772776 287.145931 
L 232.097756 274.632828 
L 232.422735 287.145931 
L 232.747715 287.145931 
L 233.072695 295.488 
L 233.397674 291.316966 
L 233.722654 278.803862 
L 234.047633 282.974897 
L 234.697592 282.974897 
L 235.022572 291.316966 
L 235.672531 282.974897 
L 235.99751 295.488 
L 236.32249 291.316966 
L 236.647469 278.803862 
L 236.972449 287.145931 
L 237.297428 287.145931 
L 237.622408 295.488 
L 237.947387 278.803862 
L 238.272367 274.632828 
L 238.597346 291.316966 
L 238.922326 278.803862 
L 239.247305 282.974897 
L 239.897265 282.974897 
L 240.222244 291.316966 
L 240.547224 291.316966 
L 240.872203 278.803862 
L 241.197183 295.488 
L 241.847142 278.803862 
L 242.172121 274.632828 
L 242.82208 291.316966 
L 243.14706 287.145931 
L 243.472039 291.316966 
L 243.797019 270.461793 
L 244.121998 278.803862 
L 244.446978 291.316966 
L 244.771957 278.803862 
L 245.096937 291.316966 
L 245.421916 274.632828 
L 245.746896 266.290759 
L 246.071876 282.974897 
L 246.396855 278.803862 
L 247.046814 262.119724 
L 247.371794 278.803862 
L 247.696773 274.632828 
L 248.021753 274.632828 
L 248.346732 291.316966 
L 248.671712 282.974897 
L 248.996691 270.461793 
L 249.321671 287.145931 
L 249.64665 266.290759 
L 250.296609 274.632828 
L 250.621589 266.290759 
L 250.946568 274.632828 
L 251.271548 270.461793 
L 251.596527 262.119724 
L 251.921507 262.119724 
L 252.246486 266.290759 
L 252.571466 282.974897 
L 252.896446 253.777655 
L 253.221425 274.632828 
L 253.546405 274.632828 
L 254.196364 257.94869 
L 254.521343 274.632828 
L 254.846323 282.974897 
L 255.171302 278.803862 
L 255.496282 257.94869 
L 255.821261 253.777655 
L 256.47122 274.632828 
L 256.7962 241.264552 
L 257.121179 232.922483 
L 257.446159 262.119724 
L 257.771138 266.290759 
L 258.096118 253.777655 
L 258.421097 249.606621 
L 258.746077 232.922483 
L 259.071057 245.435586 
L 259.396036 266.290759 
L 259.721016 241.264552 
L 260.045995 266.290759 
L 260.370975 257.94869 
L 260.695954 262.119724 
L 261.020934 278.803862 
L 261.345913 245.435586 
L 261.670893 262.119724 
L 261.995872 220.409379 
L 262.320852 257.94869 
L 262.970811 228.751448 
L 263.29579 228.751448 
L 263.62077 253.777655 
L 263.945749 224.580414 
L 264.270729 249.606621 
L 264.595708 228.751448 
L 264.920688 241.264552 
L 265.245667 245.435586 
L 265.570647 220.409379 
L 265.895627 224.580414 
L 266.220606 245.435586 
L 266.545586 195.383172 
L 266.870565 207.896276 
L 267.195545 195.383172 
L 267.520524 203.725241 
L 267.845504 237.093517 
L 268.170483 241.264552 
L 268.495463 195.383172 
L 268.820442 187.041103 
L 269.145422 237.093517 
L 269.470401 170.356966 
L 269.795381 216.238345 
L 270.44534 187.041103 
L 271.095299 216.238345 
L 271.745258 174.528 
L 272.070238 203.725241 
L 272.720197 166.185931 
L 273.045176 182.870069 
L 273.370156 153.672828 
L 273.695135 191.212138 
L 274.020115 170.356966 
L 274.345094 195.383172 
L 274.670074 174.528 
L 274.995053 174.528 
L 275.320033 187.041103 
L 275.645012 178.699034 
L 275.969992 157.843862 
L 276.294971 174.528 
L 276.619951 182.870069 
L 276.94493 153.672828 
L 277.26991 170.356966 
L 277.594889 116.133517 
L 277.919869 149.501793 
L 278.244848 166.185931 
L 278.569828 107.791448 
L 278.894808 132.817655 
L 279.219787 136.98869 
L 279.544767 162.014897 
L 280.194726 95.278345 
L 280.519705 178.699034 
L 280.844685 162.014897 
L 281.169664 187.041103 
L 281.494644 120.304552 
L 281.819623 141.159724 
L 282.144603 120.304552 
L 282.794562 99.449379 
L 283.119541 174.528 
L 283.444521 66.081103 
L 283.7695 153.672828 
L 284.09448 103.620414 
L 284.419459 82.765241 
L 284.744439 124.475586 
L 285.069419 136.98869 
L 285.394398 178.699034 
L 285.719378 120.304552 
L 286.044357 116.133517 
L 286.369337 107.791448 
L 286.694316 82.765241 
L 287.019296 91.10731 
L 287.344275 145.330759 
L 287.669255 120.304552 
L 287.994234 78.594207 
L 288.319214 132.817655 
L 288.644193 116.133517 
L 288.969173 53.568 
L 289.294152 103.620414 
L 289.619132 111.962483 
L 289.944111 95.278345 
L 290.269091 99.449379 
L 290.59407 66.081103 
L 290.91905 91.10731 
L 291.244029 103.620414 
L 291.569009 141.159724 
L 291.893989 116.133517 
L 292.218968 120.304552 
L 292.543948 141.159724 
L 292.868927 95.278345 
L 293.193907 103.620414 
L 293.518886 116.133517 
L 293.843866 99.449379 
L 294.168845 157.843862 
L 294.493825 120.304552 
L 294.818804 103.620414 
L 295.143784 124.475586 
L 295.468763 116.133517 
L 295.793743 170.356966 
L 296.118722 166.185931 
L 296.443702 170.356966 
L 296.768681 116.133517 
L 297.093661 145.330759 
L 297.41864 136.98869 
L 297.74362 157.843862 
L 298.0686 145.330759 
L 298.393579 145.330759 
L 298.718559 174.528 
L 299.043538 162.014897 
L 299.368518 128.646621 
L 299.693497 170.356966 
L 300.018477 157.843862 
L 300.343456 199.554207 
L 300.668436 157.843862 
L 300.993415 166.185931 
L 301.318395 157.843862 
L 301.643374 170.356966 
L 301.968354 145.330759 
L 302.293333 149.501793 
L 302.618313 162.014897 
L 302.943292 207.896276 
L 303.268272 199.554207 
L 303.593251 199.554207 
L 304.24321 228.751448 
L 304.56819 178.699034 
L 304.89317 195.383172 
L 305.218149 195.383172 
L 305.543129 170.356966 
L 306.193088 224.580414 
L 306.518067 212.06731 
L 307.168026 203.725241 
L 307.493006 216.238345 
L 307.817985 237.093517 
L 308.467944 212.06731 
L 308.792924 207.896276 
L 309.117903 224.580414 
L 309.442883 216.238345 
L 309.767862 232.922483 
L 310.092842 224.580414 
L 310.417821 220.409379 
L 310.742801 203.725241 
L 311.067781 245.435586 
L 311.39276 237.093517 
L 311.71774 241.264552 
L 312.042719 257.94869 
L 312.692678 237.093517 
L 313.017658 262.119724 
L 313.342637 245.435586 
L 313.667617 245.435586 
L 313.992596 266.290759 
L 314.317576 241.264552 
L 314.967535 262.119724 
L 315.292514 245.435586 
L 315.617494 253.777655 
L 315.942473 257.94869 
L 316.267453 270.461793 
L 316.592432 249.606621 
L 316.917412 274.632828 
L 317.242391 262.119724 
L 317.567371 262.119724 
L 317.892351 253.777655 
L 318.21733 257.94869 
L 318.867289 249.606621 
L 319.192269 274.632828 
L 319.517248 270.461793 
L 320.492187 282.974897 
L 320.817166 266.290759 
L 321.142146 282.974897 
L 321.467125 270.461793 
L 322.117084 287.145931 
L 322.442064 274.632828 
L 322.767043 274.632828 
L 323.092023 282.974897 
L 323.417002 274.632828 
L 323.741982 278.803862 
L 324.066962 266.290759 
L 324.716921 274.632828 
L 325.0419 287.145931 
L 325.36688 274.632828 
L 325.691859 282.974897 
L 326.016839 282.974897 
L 326.341818 287.145931 
L 326.666798 282.974897 
L 326.991777 282.974897 
L 327.316757 291.316966 
L 327.966716 270.461793 
L 328.616675 295.488 
L 328.941654 278.803862 
L 329.266634 295.488 
L 329.591613 282.974897 
L 329.916593 291.316966 
L 330.241572 291.316966 
L 330.566552 287.145931 
L 330.891532 291.316966 
L 331.216511 287.145931 
L 331.541491 287.145931 
L 331.86647 291.316966 
L 332.841409 291.316966 
L 333.166388 287.145931 
L 333.491368 291.316966 
L 333.816347 291.316966 
L 334.141327 287.145931 
L 334.466306 295.488 
L 334.791286 287.145931 
L 335.441245 287.145931 
L 336.091204 295.488 
L 336.416183 291.316966 
L 336.741163 295.488 
L 337.066143 287.145931 
L 337.391122 295.488 
L 338.366061 295.488 
L 338.69104 291.316966 
L 339.01602 291.316966 
L 339.340999 295.488 
L 340.315938 295.488 
L 340.640917 282.974897 
L 340.965897 291.316966 
L 341.290876 295.488 
L 342.265815 295.488 
L 342.590794 291.316966 
L 342.915774 295.488 
L 343.565733 295.488 
L 343.890713 287.145931 
L 344.215692 295.488 
L 354.290057 295.488 
L 354.615037 291.316966 
L 354.940016 295.488 
L 361.439607 295.488 
L 361.764586 291.316966 
L 362.089566 295.488 
L 398.487273 295.488 
L 398.487273 295.488 
" clip-path="url(#pa680854ff0)" style="fill: none; stroke: #1f77b4; stroke-width: 1.5; stroke-linecap: square"/>
   </g>
   <g id="patch_3">
    <path d="M 57.6 307.584 
L 57.6 41.472 
" style="fill: none; stroke: #000000; stroke-width: 0.8; stroke-linejoin: miter; stroke-linecap: square"/>
   </g>
   <g id="patch_4">
    <path d="M 414.72 307.584 
L 414.72 41.472 
" style="fill: none; stroke: #000000; stroke-width: 0.8; stroke-linejoin: miter; stroke-linecap: square"/>
   </g>
   <g id="patch_5">
    <path d="M 57.6 307.584 
L 414.72 307.584 
" style="fill: none; stroke: #000000; stroke-width: 0.8; stroke-linejoin: miter; stroke-linecap: square"/>
   </g>
   <g id="patch_6">
    <path d="M 57.6 41.472 
L 414.72 41.472 
" style="fill: none; stroke: #000000; stroke-width: 0.8; stroke-linejoin: miter; stroke-linecap: square"/>
   </g>
  </g>
 </g>
 <defs>
  <clipPath id="pa680854ff0">
   <rect x="57.6" y="41.472" width="357.12" height="266.112"/>
  </clipPath>
 </defs>
</svg>
