<?xml version="1.0" encoding="utf-8" standalone="no"?>
<!DOCTYPE svg PUBLIC "-//W3C//DTD SVG 1.1//EN"
  "http://www.w3.org/Graphics/SVG/1.1/DTD/svg11.dtd">
<svg xmlns:xlink="http://www.w3.org/1999/xlink" width="460.8pt" height="345.6pt" viewBox="0 0 460.8 345.6" xmlns="http://www.w3.org/2000/svg" version="1.1">
 <metadata>
  <rdf:RDF xmlns:dc="http://purl.org/dc/elements/1.1/" xmlns:cc="http://creativecommons.org/ns#" xmlns:rdf="http://www.w3.org/1999/02/22-rdf-syntax-ns#">
   <cc:Work>
    <dc:type rdf:resource="http://purl.org/dc/dcmitype/StillImage"/>
    <dc:date>2022-10-11T20:28:42.488893</dc:date>
    <dc:format>image/svg+xml</dc:format>
    <dc:creator>
     <cc:Agent>
      <dc:title>Matplotlib v3.6.0, https://matplotlib.org/</dc:title>
     </cc:Agent>
    </dc:creator>
   </cc:Work>
  </rdf:RDF>
 </metadata>
 <defs>
  <style type="text/css">*{stroke-linejoin: round; stroke-linecap: butt}</style>
 </defs>
 <g id="figure_1">
  <g id="patch_1">
   <path d="M 0 345.6 
L 460.8 345.6 
L 460.8 0 
L 0 0 
z
" style="fill: #ffffff"/>
  </g>
  <g id="axes_1">
   <g id="patch_2">
    <path d="M 57.6 307.584 
L 414.72 307.584 
L 414.72 41.472 
L 57.6 41.472 
z
" style="fill: #ffffff"/>
   </g>
   <g id="matplotlib.axis_1">
    <g id="xtick_1">
     <g id="line2d_1">
      <defs>
       <path id="m65d49ab213" d="M 0 0 
L 0 3.5 
" style="stroke: #000000; stroke-width: 0.8"/>
      </defs>
      <g>
       <use xlink:href="#m65d49ab213" x="73.832727" y="307.584" style="stroke: #000000; stroke-width: 0.8"/>
      </g>
     </g>
     <g id="text_1">
      <!-- −3 -->
      <g transform="translate(66.461634 322.182437) scale(0.1 -0.1)">
       <defs>
        <path id="DejaVuSans-2212" d="M 678 2272 
L 4684 2272 
L 4684 1741 
L 678 1741 
L 678 2272 
z
" transform="scale(0.015625)"/>
        <path id="DejaVuSans-33" d="M 2597 2516 
Q 3050 2419 3304 2112 
Q 3559 1806 3559 1356 
Q 3559 666 3084 287 
Q 2609 -91 1734 -91 
Q 1441 -91 1130 -33 
Q 819 25 488 141 
L 488 750 
Q 750 597 1062 519 
Q 1375 441 1716 441 
Q 2309 441 2620 675 
Q 2931 909 2931 1356 
Q 2931 1769 2642 2001 
Q 2353 2234 1838 2234 
L 1294 2234 
L 1294 2753 
L 1863 2753 
Q 2328 2753 2575 2939 
Q 2822 3125 2822 3475 
Q 2822 3834 2567 4026 
Q 2313 4219 1838 4219 
Q 1578 4219 1281 4162 
Q 984 4106 628 3988 
L 628 4550 
Q 988 4650 1302 4700 
Q 1616 4750 1894 4750 
Q 2613 4750 3031 4423 
Q 3450 4097 3450 3541 
Q 3450 3153 3228 2886 
Q 3006 2619 2597 2516 
z
" transform="scale(0.015625)"/>
       </defs>
       <use xlink:href="#DejaVuSans-2212"/>
       <use xlink:href="#DejaVuSans-33" x="83.789062"/>
      </g>
     </g>
    </g>
    <g id="xtick_2">
     <g id="line2d_2">
      <g>
       <use xlink:href="#m65d49ab213" x="127.941818" y="307.584" style="stroke: #000000; stroke-width: 0.8"/>
      </g>
     </g>
     <g id="text_2">
      <!-- −2 -->
      <g transform="translate(120.570724 322.182437) scale(0.1 -0.1)">
       <defs>
        <path id="DejaVuSans-32" d="M 1228 531 
L 3431 531 
L 3431 0 
L 469 0 
L 469 531 
Q 828 903 1448 1529 
Q 2069 2156 2228 2338 
Q 2531 2678 2651 2914 
Q 2772 3150 2772 3378 
Q 2772 3750 2511 3984 
Q 2250 4219 1831 4219 
Q 1534 4219 1204 4116 
Q 875 4013 500 3803 
L 500 4441 
Q 881 4594 1212 4672 
Q 1544 4750 1819 4750 
Q 2544 4750 2975 4387 
Q 3406 4025 3406 3419 
Q 3406 3131 3298 2873 
Q 3191 2616 2906 2266 
Q 2828 2175 2409 1742 
Q 1991 1309 1228 531 
z
" transform="scale(0.015625)"/>
       </defs>
       <use xlink:href="#DejaVuSans-2212"/>
       <use xlink:href="#DejaVuSans-32" x="83.789062"/>
      </g>
     </g>
    </g>
    <g id="xtick_3">
     <g id="line2d_3">
      <g>
       <use xlink:href="#m65d49ab213" x="182.050909" y="307.584" style="stroke: #000000; stroke-width: 0.8"/>
      </g>
     </g>
     <g id="text_3">
      <!-- −1 -->
      <g transform="translate(174.679815 322.182437) scale(0.1 -0.1)">
       <defs>
        <path id="DejaVuSans-31" d="M 794 531 
L 1825 531 
L 1825 4091 
L 703 3866 
L 703 4441 
L 1819 4666 
L 2450 4666 
L 2450 531 
L 3481 531 
L 3481 0 
L 794 0 
L 794 531 
z
" transform="scale(0.015625)"/>
       </defs>
       <use xlink:href="#DejaVuSans-2212"/>
       <use xlink:href="#DejaVuSans-31" x="83.789062"/>
      </g>
     </g>
    </g>
    <g id="xtick_4">
     <g id="line2d_4">
      <g>
       <use xlink:href="#m65d49ab213" x="236.16" y="307.584" style="stroke: #000000; stroke-width: 0.8"/>
      </g>
     </g>
     <g id="text_4">
      <!-- 0 -->
      <g transform="translate(232.97875 322.182437) scale(0.1 -0.1)">
       <defs>
        <path id="DejaVuSans-30" d="M 2034 4250 
Q 1547 4250 1301 3770 
Q 1056 3291 1056 2328 
Q 1056 1369 1301 889 
Q 1547 409 2034 409 
Q 2525 409 2770 889 
Q 3016 1369 3016 2328 
Q 3016 3291 2770 3770 
Q 2525 4250 2034 4250 
z
M 2034 4750 
Q 2819 4750 3233 4129 
Q 3647 3509 3647 2328 
Q 3647 1150 3233 529 
Q 2819 -91 2034 -91 
Q 1250 -91 836 529 
Q 422 1150 422 2328 
Q 422 3509 836 4129 
Q 1250 4750 2034 4750 
z
" transform="scale(0.015625)"/>
       </defs>
       <use xlink:href="#DejaVuSans-30"/>
      </g>
     </g>
    </g>
    <g id="xtick_5">
     <g id="line2d_5">
      <g>
       <use xlink:href="#m65d49ab213" x="290.269091" y="307.584" style="stroke: #000000; stroke-width: 0.8"/>
      </g>
     </g>
     <g id="text_5">
      <!-- 1 -->
      <g transform="translate(287.087841 322.182437) scale(0.1 -0.1)">
       <use xlink:href="#DejaVuSans-31"/>
      </g>
     </g>
    </g>
    <g id="xtick_6">
     <g id="line2d_6">
      <g>
       <use xlink:href="#m65d49ab213" x="344.378182" y="307.584" style="stroke: #000000; stroke-width: 0.8"/>
      </g>
     </g>
     <g id="text_6">
      <!-- 2 -->
      <g transform="translate(341.196932 322.182437) scale(0.1 -0.1)">
       <use xlink:href="#DejaVuSans-32"/>
      </g>
     </g>
    </g>
    <g id="xtick_7">
     <g id="line2d_7">
      <g>
       <use xlink:href="#m65d49ab213" x="398.487273" y="307.584" style="stroke: #000000; stroke-width: 0.8"/>
      </g>
     </g>
     <g id="text_7">
      <!-- 3 -->
      <g transform="translate(395.306023 322.182437) scale(0.1 -0.1)">
       <use xlink:href="#DejaVuSans-33"/>
      </g>
     </g>
    </g>
    <g id="text_8">
     <!-- reflection scaling coefficient -->
     <g transform="translate(165.732656 335.860562) scale(0.1 -0.1)">
      <defs>
       <path id="DejaVuSans-72" d="M 2631 2963 
Q 2534 3019 2420 3045 
Q 2306 3072 2169 3072 
Q 1681 3072 1420 2755 
Q 1159 2438 1159 1844 
L 1159 0 
L 581 0 
L 581 3500 
L 1159 3500 
L 1159 2956 
Q 1341 3275 1631 3429 
Q 1922 3584 2338 3584 
Q 2397 3584 2469 3576 
Q 2541 3569 2628 3553 
L 2631 2963 
z
" transform="scale(0.015625)"/>
       <path id="DejaVuSans-65" d="M 3597 1894 
L 3597 1613 
L 953 1613 
Q 991 1019 1311 708 
Q 1631 397 2203 397 
Q 2534 397 2845 478 
Q 3156 559 3463 722 
L 3463 178 
Q 3153 47 2828 -22 
Q 2503 -91 2169 -91 
Q 1331 -91 842 396 
Q 353 884 353 1716 
Q 353 2575 817 3079 
Q 1281 3584 2069 3584 
Q 2775 3584 3186 3129 
Q 3597 2675 3597 1894 
z
M 3022 2063 
Q 3016 2534 2758 2815 
Q 2500 3097 2075 3097 
Q 1594 3097 1305 2825 
Q 1016 2553 972 2059 
L 3022 2063 
z
" transform="scale(0.015625)"/>
       <path id="DejaVuSans-66" d="M 2375 4863 
L 2375 4384 
L 1825 4384 
Q 1516 4384 1395 4259 
Q 1275 4134 1275 3809 
L 1275 3500 
L 2222 3500 
L 2222 3053 
L 1275 3053 
L 1275 0 
L 697 0 
L 697 3053 
L 147 3053 
L 147 3500 
L 697 3500 
L 697 3744 
Q 697 4328 969 4595 
Q 1241 4863 1831 4863 
L 2375 4863 
z
" transform="scale(0.015625)"/>
       <path id="DejaVuSans-6c" d="M 603 4863 
L 1178 4863 
L 1178 0 
L 603 0 
L 603 4863 
z
" transform="scale(0.015625)"/>
       <path id="DejaVuSans-63" d="M 3122 3366 
L 3122 2828 
Q 2878 2963 2633 3030 
Q 2388 3097 2138 3097 
Q 1578 3097 1268 2742 
Q 959 2388 959 1747 
Q 959 1106 1268 751 
Q 1578 397 2138 397 
Q 2388 397 2633 464 
Q 2878 531 3122 666 
L 3122 134 
Q 2881 22 2623 -34 
Q 2366 -91 2075 -91 
Q 1284 -91 818 406 
Q 353 903 353 1747 
Q 353 2603 823 3093 
Q 1294 3584 2113 3584 
Q 2378 3584 2631 3529 
Q 2884 3475 3122 3366 
z
" transform="scale(0.015625)"/>
       <path id="DejaVuSans-74" d="M 1172 4494 
L 1172 3500 
L 2356 3500 
L 2356 3053 
L 1172 3053 
L 1172 1153 
Q 1172 725 1289 603 
Q 1406 481 1766 481 
L 2356 481 
L 2356 0 
L 1766 0 
Q 1100 0 847 248 
Q 594 497 594 1153 
L 594 3053 
L 172 3053 
L 172 3500 
L 594 3500 
L 594 4494 
L 1172 4494 
z
" transform="scale(0.015625)"/>
       <path id="DejaVuSans-69" d="M 603 3500 
L 1178 3500 
L 1178 0 
L 603 0 
L 603 3500 
z
M 603 4863 
L 1178 4863 
L 1178 4134 
L 603 4134 
L 603 4863 
z
" transform="scale(0.015625)"/>
       <path id="DejaVuSans-6f" d="M 1959 3097 
Q 1497 3097 1228 2736 
Q 959 2375 959 1747 
Q 959 1119 1226 758 
Q 1494 397 1959 397 
Q 2419 397 2687 759 
Q 2956 1122 2956 1747 
Q 2956 2369 2687 2733 
Q 2419 3097 1959 3097 
z
M 1959 3584 
Q 2709 3584 3137 3096 
Q 3566 2609 3566 1747 
Q 3566 888 3137 398 
Q 2709 -91 1959 -91 
Q 1206 -91 779 398 
Q 353 888 353 1747 
Q 353 2609 779 3096 
Q 1206 3584 1959 3584 
z
" transform="scale(0.015625)"/>
       <path id="DejaVuSans-6e" d="M 3513 2113 
L 3513 0 
L 2938 0 
L 2938 2094 
Q 2938 2591 2744 2837 
Q 2550 3084 2163 3084 
Q 1697 3084 1428 2787 
Q 1159 2491 1159 1978 
L 1159 0 
L 581 0 
L 581 3500 
L 1159 3500 
L 1159 2956 
Q 1366 3272 1645 3428 
Q 1925 3584 2291 3584 
Q 2894 3584 3203 3211 
Q 3513 2838 3513 2113 
z
" transform="scale(0.015625)"/>
       <path id="DejaVuSans-20" transform="scale(0.015625)"/>
       <path id="DejaVuSans-73" d="M 2834 3397 
L 2834 2853 
Q 2591 2978 2328 3040 
Q 2066 3103 1784 3103 
Q 1356 3103 1142 2972 
Q 928 2841 928 2578 
Q 928 2378 1081 2264 
Q 1234 2150 1697 2047 
L 1894 2003 
Q 2506 1872 2764 1633 
Q 3022 1394 3022 966 
Q 3022 478 2636 193 
Q 2250 -91 1575 -91 
Q 1294 -91 989 -36 
Q 684 19 347 128 
L 347 722 
Q 666 556 975 473 
Q 1284 391 1588 391 
Q 1994 391 2212 530 
Q 2431 669 2431 922 
Q 2431 1156 2273 1281 
Q 2116 1406 1581 1522 
L 1381 1569 
Q 847 1681 609 1914 
Q 372 2147 372 2553 
Q 372 3047 722 3315 
Q 1072 3584 1716 3584 
Q 2034 3584 2315 3537 
Q 2597 3491 2834 3397 
z
" transform="scale(0.015625)"/>
       <path id="DejaVuSans-61" d="M 2194 1759 
Q 1497 1759 1228 1600 
Q 959 1441 959 1056 
Q 959 750 1161 570 
Q 1363 391 1709 391 
Q 2188 391 2477 730 
Q 2766 1069 2766 1631 
L 2766 1759 
L 2194 1759 
z
M 3341 1997 
L 3341 0 
L 2766 0 
L 2766 531 
Q 2569 213 2275 61 
Q 1981 -91 1556 -91 
Q 1019 -91 701 211 
Q 384 513 384 1019 
Q 384 1609 779 1909 
Q 1175 2209 1959 2209 
L 2766 2209 
L 2766 2266 
Q 2766 2663 2505 2880 
Q 2244 3097 1772 3097 
Q 1472 3097 1187 3025 
Q 903 2953 641 2809 
L 641 3341 
Q 956 3463 1253 3523 
Q 1550 3584 1831 3584 
Q 2591 3584 2966 3190 
Q 3341 2797 3341 1997 
z
" transform="scale(0.015625)"/>
       <path id="DejaVuSans-67" d="M 2906 1791 
Q 2906 2416 2648 2759 
Q 2391 3103 1925 3103 
Q 1463 3103 1205 2759 
Q 947 2416 947 1791 
Q 947 1169 1205 825 
Q 1463 481 1925 481 
Q 2391 481 2648 825 
Q 2906 1169 2906 1791 
z
M 3481 434 
Q 3481 -459 3084 -895 
Q 2688 -1331 1869 -1331 
Q 1566 -1331 1297 -1286 
Q 1028 -1241 775 -1147 
L 775 -588 
Q 1028 -725 1275 -790 
Q 1522 -856 1778 -856 
Q 2344 -856 2625 -561 
Q 2906 -266 2906 331 
L 2906 616 
Q 2728 306 2450 153 
Q 2172 0 1784 0 
Q 1141 0 747 490 
Q 353 981 353 1791 
Q 353 2603 747 3093 
Q 1141 3584 1784 3584 
Q 2172 3584 2450 3431 
Q 2728 3278 2906 2969 
L 2906 3500 
L 3481 3500 
L 3481 434 
z
" transform="scale(0.015625)"/>
      </defs>
      <use xlink:href="#DejaVuSans-72"/>
      <use xlink:href="#DejaVuSans-65" x="38.863281"/>
      <use xlink:href="#DejaVuSans-66" x="100.386719"/>
      <use xlink:href="#DejaVuSans-6c" x="135.591797"/>
      <use xlink:href="#DejaVuSans-65" x="163.375"/>
      <use xlink:href="#DejaVuSans-63" x="224.898438"/>
      <use xlink:href="#DejaVuSans-74" x="279.878906"/>
      <use xlink:href="#DejaVuSans-69" x="319.087891"/>
      <use xlink:href="#DejaVuSans-6f" x="346.871094"/>
      <use xlink:href="#DejaVuSans-6e" x="408.052734"/>
      <use xlink:href="#DejaVuSans-20" x="471.431641"/>
      <use xlink:href="#DejaVuSans-73" x="503.21875"/>
      <use xlink:href="#DejaVuSans-63" x="555.318359"/>
      <use xlink:href="#DejaVuSans-61" x="610.298828"/>
      <use xlink:href="#DejaVuSans-6c" x="671.578125"/>
      <use xlink:href="#DejaVuSans-69" x="699.361328"/>
      <use xlink:href="#DejaVuSans-6e" x="727.144531"/>
      <use xlink:href="#DejaVuSans-67" x="790.523438"/>
      <use xlink:href="#DejaVuSans-20" x="854"/>
      <use xlink:href="#DejaVuSans-63" x="885.787109"/>
      <use xlink:href="#DejaVuSans-6f" x="940.767578"/>
      <use xlink:href="#DejaVuSans-65" x="1001.949219"/>
      <use xlink:href="#DejaVuSans-66" x="1063.472656"/>
      <use xlink:href="#DejaVuSans-66" x="1098.677734"/>
      <use xlink:href="#DejaVuSans-69" x="1133.882812"/>
      <use xlink:href="#DejaVuSans-63" x="1161.666016"/>
      <use xlink:href="#DejaVuSans-69" x="1216.646484"/>
      <use xlink:href="#DejaVuSans-65" x="1244.429688"/>
      <use xlink:href="#DejaVuSans-6e" x="1305.953125"/>
      <use xlink:href="#DejaVuSans-74" x="1369.332031"/>
     </g>
    </g>
   </g>
   <g id="matplotlib.axis_2">
    <g id="ytick_1">
     <g id="line2d_8">
      <defs>
       <path id="mf9835ddea3" d="M 0 0 
L -3.5 0 
" style="stroke: #000000; stroke-width: 0.8"/>
      </defs>
      <g>
       <use xlink:href="#mf9835ddea3" x="57.6" y="304.938781" style="stroke: #000000; stroke-width: 0.8"/>
      </g>
     </g>
     <g id="text_9">
      <!-- 0 -->
      <g transform="translate(44.2375 308.738) scale(0.1 -0.1)">
       <use xlink:href="#DejaVuSans-30"/>
      </g>
     </g>
    </g>
    <g id="ytick_2">
     <g id="line2d_9">
      <g>
       <use xlink:href="#mf9835ddea3" x="57.6" y="254.934647" style="stroke: #000000; stroke-width: 0.8"/>
      </g>
     </g>
     <g id="text_10">
      <!-- 10 -->
      <g transform="translate(37.875 258.733866) scale(0.1 -0.1)">
       <use xlink:href="#DejaVuSans-31"/>
       <use xlink:href="#DejaVuSans-30" x="63.623047"/>
      </g>
     </g>
    </g>
    <g id="ytick_3">
     <g id="line2d_10">
      <g>
       <use xlink:href="#mf9835ddea3" x="57.6" y="204.930513" style="stroke: #000000; stroke-width: 0.8"/>
      </g>
     </g>
     <g id="text_11">
      <!-- 20 -->
      <g transform="translate(37.875 208.729732) scale(0.1 -0.1)">
       <use xlink:href="#DejaVuSans-32"/>
       <use xlink:href="#DejaVuSans-30" x="63.623047"/>
      </g>
     </g>
    </g>
    <g id="ytick_4">
     <g id="line2d_11">
      <g>
       <use xlink:href="#mf9835ddea3" x="57.6" y="154.926379" style="stroke: #000000; stroke-width: 0.8"/>
      </g>
     </g>
     <g id="text_12">
      <!-- 30 -->
      <g transform="translate(37.875 158.725598) scale(0.1 -0.1)">
       <use xlink:href="#DejaVuSans-33"/>
       <use xlink:href="#DejaVuSans-30" x="63.623047"/>
      </g>
     </g>
    </g>
    <g id="ytick_5">
     <g id="line2d_12">
      <g>
       <use xlink:href="#mf9835ddea3" x="57.6" y="104.922246" style="stroke: #000000; stroke-width: 0.8"/>
      </g>
     </g>
     <g id="text_13">
      <!-- 40 -->
      <g transform="translate(37.875 108.721464) scale(0.1 -0.1)">
       <defs>
        <path id="DejaVuSans-34" d="M 2419 4116 
L 825 1625 
L 2419 1625 
L 2419 4116 
z
M 2253 4666 
L 3047 4666 
L 3047 1625 
L 3713 1625 
L 3713 1100 
L 3047 1100 
L 3047 0 
L 2419 0 
L 2419 1100 
L 313 1100 
L 313 1709 
L 2253 4666 
z
" transform="scale(0.015625)"/>
       </defs>
       <use xlink:href="#DejaVuSans-34"/>
       <use xlink:href="#DejaVuSans-30" x="63.623047"/>
      </g>
     </g>
    </g>
    <g id="ytick_6">
     <g id="line2d_13">
      <g>
       <use xlink:href="#mf9835ddea3" x="57.6" y="54.918112" style="stroke: #000000; stroke-width: 0.8"/>
      </g>
     </g>
     <g id="text_14">
      <!-- 50 -->
      <g transform="translate(37.875 58.71733) scale(0.1 -0.1)">
       <defs>
        <path id="DejaVuSans-35" d="M 691 4666 
L 3169 4666 
L 3169 4134 
L 1269 4134 
L 1269 2991 
Q 1406 3038 1543 3061 
Q 1681 3084 1819 3084 
Q 2600 3084 3056 2656 
Q 3513 2228 3513 1497 
Q 3513 744 3044 326 
Q 2575 -91 1722 -91 
Q 1428 -91 1123 -41 
Q 819 9 494 109 
L 494 744 
Q 775 591 1075 516 
Q 1375 441 1709 441 
Q 2250 441 2565 725 
Q 2881 1009 2881 1497 
Q 2881 1984 2565 2268 
Q 2250 2553 1709 2553 
Q 1456 2553 1204 2497 
Q 953 2441 691 2322 
L 691 4666 
z
" transform="scale(0.015625)"/>
       </defs>
       <use xlink:href="#DejaVuSans-35"/>
       <use xlink:href="#DejaVuSans-30" x="63.623047"/>
      </g>
     </g>
    </g>
    <g id="text_15">
     <!-- percentage bit errors -->
     <g transform="translate(31.795312 227.399875) rotate(-90) scale(0.1 -0.1)">
      <defs>
       <path id="DejaVuSans-70" d="M 1159 525 
L 1159 -1331 
L 581 -1331 
L 581 3500 
L 1159 3500 
L 1159 2969 
Q 1341 3281 1617 3432 
Q 1894 3584 2278 3584 
Q 2916 3584 3314 3078 
Q 3713 2572 3713 1747 
Q 3713 922 3314 415 
Q 2916 -91 2278 -91 
Q 1894 -91 1617 61 
Q 1341 213 1159 525 
z
M 3116 1747 
Q 3116 2381 2855 2742 
Q 2594 3103 2138 3103 
Q 1681 3103 1420 2742 
Q 1159 2381 1159 1747 
Q 1159 1113 1420 752 
Q 1681 391 2138 391 
Q 2594 391 2855 752 
Q 3116 1113 3116 1747 
z
" transform="scale(0.015625)"/>
       <path id="DejaVuSans-62" d="M 3116 1747 
Q 3116 2381 2855 2742 
Q 2594 3103 2138 3103 
Q 1681 3103 1420 2742 
Q 1159 2381 1159 1747 
Q 1159 1113 1420 752 
Q 1681 391 2138 391 
Q 2594 391 2855 752 
Q 3116 1113 3116 1747 
z
M 1159 2969 
Q 1341 3281 1617 3432 
Q 1894 3584 2278 3584 
Q 2916 3584 3314 3078 
Q 3713 2572 3713 1747 
Q 3713 922 3314 415 
Q 2916 -91 2278 -91 
Q 1894 -91 1617 61 
Q 1341 213 1159 525 
L 1159 0 
L 581 0 
L 581 4863 
L 1159 4863 
L 1159 2969 
z
" transform="scale(0.015625)"/>
      </defs>
      <use xlink:href="#DejaVuSans-70"/>
      <use xlink:href="#DejaVuSans-65" x="63.476562"/>
      <use xlink:href="#DejaVuSans-72" x="125"/>
      <use xlink:href="#DejaVuSans-63" x="163.863281"/>
      <use xlink:href="#DejaVuSans-65" x="218.84375"/>
      <use xlink:href="#DejaVuSans-6e" x="280.367188"/>
      <use xlink:href="#DejaVuSans-74" x="343.746094"/>
      <use xlink:href="#DejaVuSans-61" x="382.955078"/>
      <use xlink:href="#DejaVuSans-67" x="444.234375"/>
      <use xlink:href="#DejaVuSans-65" x="507.710938"/>
      <use xlink:href="#DejaVuSans-20" x="569.234375"/>
      <use xlink:href="#DejaVuSans-62" x="601.021484"/>
      <use xlink:href="#DejaVuSans-69" x="664.498047"/>
      <use xlink:href="#DejaVuSans-74" x="692.28125"/>
      <use xlink:href="#DejaVuSans-20" x="731.490234"/>
      <use xlink:href="#DejaVuSans-65" x="763.277344"/>
      <use xlink:href="#DejaVuSans-72" x="824.800781"/>
      <use xlink:href="#DejaVuSans-72" x="864.164062"/>
      <use xlink:href="#DejaVuSans-6f" x="903.027344"/>
      <use xlink:href="#DejaVuSans-72" x="964.208984"/>
      <use xlink:href="#DejaVuSans-73" x="1005.322266"/>
     </g>
    </g>
   </g>
   <g id="line2d_14">
    <path d="M 73.832727 55.168132 
L 74.482686 55.068124 
L 74.807666 56.318227 
L 75.132645 55.968198 
L 75.457625 56.568248 
L 75.782604 56.168215 
L 76.107584 57.018285 
L 76.432563 55.718178 
L 76.757543 54.968116 
L 77.082523 54.918112 
L 77.407502 56.068207 
L 77.732482 56.418236 
L 78.057461 55.468157 
L 78.382441 55.668174 
L 78.70742 54.268058 
L 79.357379 56.668256 
L 80.007338 56.318227 
L 80.332318 54.768099 
L 80.657297 55.318145 
L 80.982277 56.418236 
L 81.307256 56.068207 
L 81.632236 54.968116 
L 81.957215 55.568165 
L 82.282195 57.018285 
L 82.607174 55.618169 
L 82.932154 54.918112 
L 83.257133 56.418236 
L 83.582113 56.368232 
L 83.907093 54.918112 
L 84.232072 54.918112 
L 84.557052 55.568165 
L 84.882031 55.468157 
L 85.207011 54.818103 
L 85.53199 56.46824 
L 85.85697 55.618169 
L 86.181949 55.918194 
L 86.506929 55.418153 
L 86.831908 56.268223 
L 87.156888 55.668174 
L 87.481867 56.068207 
L 87.806847 55.368149 
L 88.131826 55.368149 
L 88.456806 54.518079 
L 88.781785 55.468157 
L 89.106765 56.768265 
L 89.431744 55.718178 
L 89.756724 55.268141 
L 90.081704 55.01812 
L 90.406683 55.068124 
L 90.731663 56.768265 
L 91.056642 55.968198 
L 91.381622 56.968281 
L 91.706601 56.768265 
L 92.031581 55.318145 
L 92.35656 55.968198 
L 92.68154 55.118128 
L 93.006519 55.718178 
L 93.331499 55.568165 
L 93.656478 54.468074 
L 93.981458 55.618169 
L 94.306437 55.368149 
L 94.631417 55.968198 
L 94.956396 55.86819 
L 95.281376 54.968116 
L 95.606355 54.968116 
L 95.931335 55.318145 
L 96.581294 56.618252 
L 96.906274 55.368149 
L 97.231253 55.86819 
L 97.556233 55.968198 
L 97.881212 54.318062 
L 98.531171 55.618169 
L 98.856151 56.368232 
L 99.18113 54.768099 
L 99.50611 56.168215 
L 99.831089 55.818186 
L 100.156069 54.668091 
L 100.481048 54.368066 
L 100.806028 55.968198 
L 101.131007 55.218136 
L 101.455987 55.368149 
L 101.780966 56.368232 
L 102.105946 54.468074 
L 102.430925 55.968198 
L 102.755905 56.518244 
L 103.080885 55.86819 
L 103.405864 56.968281 
L 104.055823 54.718095 
L 104.705782 57.368314 
L 105.030762 55.368149 
L 105.355741 55.718178 
L 105.680721 54.718095 
L 106.33068 55.568165 
L 106.655659 55.818186 
L 106.980639 55.718178 
L 107.305618 53.818021 
L 107.630598 55.86819 
L 107.955577 55.718178 
L 108.280557 55.768182 
L 108.605536 56.568248 
L 108.930516 55.318145 
L 109.255495 55.518161 
L 109.580475 56.868273 
L 109.905455 56.218219 
L 110.230434 55.968198 
L 110.555414 56.418236 
L 110.880393 56.268223 
L 111.205373 55.468157 
L 111.530352 56.568248 
L 111.855332 55.318145 
L 112.180311 55.518161 
L 112.505291 56.568248 
L 112.83027 55.968198 
L 113.15525 56.218219 
L 113.480229 54.968116 
L 113.805209 57.268306 
L 115.430106 55.518161 
L 115.755086 54.968116 
L 116.080066 55.368149 
L 116.405045 57.218302 
L 116.730025 55.268141 
L 117.055004 55.768182 
L 117.704963 57.468322 
L 118.029943 55.718178 
L 118.354922 56.618252 
L 118.679902 56.268223 
L 119.004881 56.46824 
L 119.329861 56.168215 
L 119.65484 56.118211 
L 119.97982 57.118294 
L 120.304799 55.718178 
L 120.954758 55.518161 
L 121.279738 56.418236 
L 121.604717 56.668256 
L 121.929697 55.86819 
L 122.254676 57.018285 
L 122.579656 55.168132 
L 122.904636 55.418153 
L 123.229615 55.468157 
L 123.554595 56.318227 
L 123.879574 56.368232 
L 124.204554 56.068207 
L 124.529533 55.318145 
L 124.854513 55.668174 
L 125.179492 56.868273 
L 125.504472 56.668256 
L 126.47941 55.368149 
L 126.80439 55.86819 
L 127.129369 56.118211 
L 127.454349 54.218054 
L 127.779328 55.618169 
L 128.429287 56.418236 
L 128.754267 56.618252 
L 129.404226 55.118128 
L 129.729206 55.418153 
L 130.054185 56.318227 
L 130.704144 55.318145 
L 131.029124 53.568 
L 131.679083 55.718178 
L 132.004062 55.218136 
L 132.329042 55.468157 
L 132.979001 57.218302 
L 133.30398 55.468157 
L 133.62896 54.468074 
L 133.953939 54.868107 
L 134.278919 54.718095 
L 134.928878 55.768182 
L 135.253857 55.518161 
L 135.578837 57.818351 
L 136.228796 56.418236 
L 136.553776 56.368232 
L 137.203735 54.518079 
L 137.528714 57.968364 
L 137.853694 55.818186 
L 138.178673 55.818186 
L 138.503653 55.368149 
L 138.828632 56.818269 
L 139.478591 54.518079 
L 139.803571 54.668091 
L 140.12855 55.268141 
L 140.45353 54.268058 
L 140.778509 57.418318 
L 141.103489 54.218054 
L 141.428468 56.118211 
L 141.753448 56.968281 
L 142.078428 55.668174 
L 142.403407 57.31831 
L 142.728387 57.268306 
L 143.053366 57.018285 
L 143.378346 56.068207 
L 143.703325 55.968198 
L 144.028305 56.318227 
L 144.353284 56.018203 
L 145.003243 58.968446 
L 145.328223 55.618169 
L 145.653202 57.568331 
L 145.978182 58.468405 
L 146.303161 56.868273 
L 146.628141 56.168215 
L 146.95312 56.068207 
L 147.603079 58.468405 
L 147.928059 56.46824 
L 148.253038 56.46824 
L 148.578018 58.868438 
L 149.227977 55.968198 
L 149.552957 56.618252 
L 149.877936 55.918194 
L 150.202916 57.168298 
L 150.527895 57.968364 
L 150.852875 56.968281 
L 151.177854 57.718343 
L 151.502834 57.018285 
L 151.827813 58.818434 
L 152.152793 56.868273 
L 152.477772 58.718426 
L 152.802752 58.018368 
L 153.127731 57.91836 
L 153.452711 56.118211 
L 153.77769 56.318227 
L 154.10267 58.268389 
L 154.427649 58.918442 
L 154.752629 57.018285 
L 155.077609 56.968281 
L 155.402588 58.118376 
L 156.052547 57.568331 
L 156.377527 55.518161 
L 157.027486 58.318393 
L 157.352465 58.518409 
L 157.677445 57.568331 
L 158.002424 56.968281 
L 158.327404 58.318393 
L 158.652383 56.46824 
L 158.977363 57.568331 
L 159.302342 57.568331 
L 159.627322 58.668422 
L 159.952301 58.468405 
L 160.277281 58.918442 
L 160.60226 57.768347 
L 160.92724 60.018533 
L 161.252219 55.268141 
L 161.577199 57.31831 
L 161.902179 57.668339 
L 162.227158 57.768347 
L 162.552138 57.068289 
L 162.877117 57.718343 
L 163.202097 59.218467 
L 163.852056 58.518409 
L 164.177035 58.76843 
L 164.502015 57.018285 
L 165.476953 60.46857 
L 166.126912 56.71826 
L 166.451892 58.16838 
L 166.776871 60.46857 
L 167.101851 61.868686 
L 167.42683 58.918442 
L 167.75181 57.118294 
L 168.07679 60.668587 
L 168.401769 58.068372 
L 168.726749 60.46857 
L 169.051728 57.618335 
L 169.376708 60.768595 
L 169.701687 60.168546 
L 170.026667 58.218384 
L 170.351646 57.768347 
L 170.676626 62.018699 
L 171.001605 59.218467 
L 171.326585 59.218467 
L 171.651564 56.568248 
L 171.976544 63.218798 
L 172.301523 61.868686 
L 172.626503 59.718508 
L 172.951482 64.468901 
L 173.276462 62.968777 
L 173.601441 62.568744 
L 173.926421 60.718591 
L 174.2514 63.568827 
L 174.57638 65.068951 
L 174.90136 64.318889 
L 175.226339 62.768761 
L 175.551319 64.968943 
L 175.876298 63.518823 
L 176.201278 62.668752 
L 176.526257 64.868934 
L 176.851237 69.919352 
L 177.176216 64.918938 
L 177.501196 65.769009 
L 177.826175 67.869182 
L 178.151155 67.419145 
L 178.476134 68.869265 
L 178.801114 65.919021 
L 180.426011 83.020435 
L 181.075971 103.622138 
L 181.40095 126.02399 
L 181.72593 193.329554 
L 182.050909 291.587678 
L 182.375889 293.937872 
L 182.700868 295.237979 
L 183.025848 292.737773 
L 183.350827 294.087884 
L 183.675807 293.887868 
L 184.000786 294.337905 
L 184.325766 294.087884 
L 184.650745 294.487917 
L 184.975725 294.587926 
L 185.300704 293.087802 
L 185.625684 294.187893 
L 185.950663 292.887785 
L 186.275643 293.087802 
L 186.600622 294.737938 
L 186.925602 293.087802 
L 187.250581 292.887785 
L 187.575561 293.687851 
L 187.900541 293.987876 
L 188.22552 293.387826 
L 188.5505 294.287901 
L 188.875479 293.437831 
L 189.200459 293.737855 
L 189.525438 293.537839 
L 189.850418 294.537921 
L 190.175397 293.887868 
L 190.500377 293.537839 
L 190.825356 293.887868 
L 191.150336 292.33774 
L 191.475315 294.237897 
L 191.800295 292.58776 
L 192.125274 292.887785 
L 192.450254 294.03788 
L 192.775233 293.937872 
L 193.100213 293.337822 
L 193.425192 293.087802 
L 193.750172 292.037715 
L 194.075152 293.337822 
L 194.725111 294.987959 
L 195.05009 294.787942 
L 195.37507 293.837864 
L 195.700049 293.687851 
L 196.025029 293.18781 
L 196.350008 293.737855 
L 196.674988 294.687934 
L 196.999967 293.587843 
L 197.324947 293.637847 
L 197.649926 293.837864 
L 198.299885 292.087719 
L 198.624865 294.437913 
L 198.949844 293.987876 
L 199.274824 292.137723 
L 199.924783 292.687768 
L 200.249762 293.287818 
L 200.574742 292.787777 
L 201.224701 293.437831 
L 201.549681 294.237897 
L 201.87466 292.987793 
L 202.19964 292.837781 
L 202.524619 294.837946 
L 202.849599 293.937872 
L 203.174578 295.287983 
L 203.499558 292.237731 
L 203.824537 294.537921 
L 204.149517 294.137888 
L 204.474496 294.337905 
L 204.799476 294.137888 
L 205.124455 292.737773 
L 205.449435 293.037797 
L 205.774414 293.987876 
L 206.099394 294.587926 
L 206.424373 294.437913 
L 206.749353 294.987959 
L 207.074333 293.787859 
L 207.399312 294.287901 
L 207.724292 293.987876 
L 208.049271 293.387826 
L 208.374251 294.63793 
L 208.69923 292.637764 
L 209.02421 293.487835 
L 209.349189 292.737773 
L 209.674169 294.137888 
L 209.999148 293.037797 
L 210.649107 293.937872 
L 210.974087 293.887868 
L 211.624046 293.337822 
L 211.949025 293.087802 
L 212.274005 294.087884 
L 212.598984 293.937872 
L 213.248943 293.937872 
L 213.573923 294.987959 
L 213.898903 293.537839 
L 214.223882 293.487835 
L 214.548862 294.88795 
L 214.873841 293.937872 
L 215.198821 292.487752 
L 215.5238 293.437831 
L 215.84878 294.737938 
L 216.173759 292.58776 
L 216.498739 293.887868 
L 216.823718 293.087802 
L 217.798657 293.687851 
L 218.123636 294.937955 
L 218.448616 292.787777 
L 218.773595 294.237897 
L 219.098575 294.03788 
L 219.423554 293.987876 
L 219.748534 292.987793 
L 220.073514 292.837781 
L 220.398493 294.287901 
L 220.723473 294.88795 
L 221.048452 294.237897 
L 221.373432 294.437913 
L 221.698411 291.787694 
L 222.023391 293.137806 
L 222.34837 292.33774 
L 222.67335 291.887702 
L 222.998329 293.337822 
L 223.323309 294.237897 
L 223.648288 293.137806 
L 223.973268 292.687768 
L 224.298247 294.087884 
L 224.623227 294.337905 
L 224.948206 294.03788 
L 225.273186 292.837781 
L 225.598165 293.937872 
L 225.923145 294.187893 
L 226.248124 294.03788 
L 226.573104 294.137888 
L 226.898084 292.887785 
L 227.548043 294.287901 
L 227.873022 293.387826 
L 228.198002 293.037797 
L 228.522981 294.787942 
L 228.847961 293.937872 
L 229.17294 293.937872 
L 229.49792 292.987793 
L 229.822899 293.687851 
L 230.147879 293.437831 
L 230.472858 294.137888 
L 230.797838 293.687851 
L 231.122817 294.537921 
L 231.447797 294.687934 
L 231.772776 292.787777 
L 232.097756 293.737855 
L 232.422735 292.787777 
L 232.747715 293.237814 
L 233.072695 292.287735 
L 233.397674 293.587843 
L 233.722654 292.737773 
L 234.047633 294.487917 
L 234.372613 294.487917 
L 235.022572 294.987959 
L 235.347551 292.637764 
L 235.672531 294.137888 
L 235.99751 293.787859 
L 236.32249 293.837864 
L 236.972449 293.387826 
L 237.297428 293.337822 
L 237.622408 293.587843 
L 237.947387 292.33774 
L 238.597346 294.187893 
L 238.922326 293.437831 
L 239.572285 293.087802 
L 239.897265 292.437748 
L 240.222244 293.237814 
L 240.547224 293.737855 
L 240.872203 292.787777 
L 241.197183 294.337905 
L 241.522162 292.437748 
L 241.847142 292.937789 
L 242.172121 292.837781 
L 242.497101 294.88795 
L 243.14706 292.837781 
L 243.472039 292.837781 
L 244.121998 294.63793 
L 244.771957 292.537756 
L 245.096937 294.287901 
L 245.421916 292.487752 
L 245.746896 294.187893 
L 246.071876 292.987793 
L 246.396855 293.937872 
L 246.721835 294.487917 
L 247.046814 294.287901 
L 247.371794 294.437913 
L 247.696773 294.437913 
L 248.021753 294.137888 
L 248.346732 292.737773 
L 248.671712 293.087802 
L 248.996691 292.887785 
L 249.321671 292.887785 
L 249.97163 294.337905 
L 250.296609 293.887868 
L 250.621589 293.137806 
L 250.946568 292.087719 
L 251.271548 294.087884 
L 252.246486 293.287818 
L 252.571466 293.437831 
L 252.896446 292.737773 
L 253.221425 295.437996 
L 253.546405 294.337905 
L 253.871384 294.587926 
L 254.196364 294.03788 
L 254.521343 294.137888 
L 254.846323 293.237814 
L 255.171302 293.637847 
L 255.496282 293.137806 
L 255.821261 294.337905 
L 256.146241 293.287818 
L 256.47122 294.737938 
L 256.7962 293.687851 
L 257.121179 294.837946 
L 257.446159 293.387826 
L 257.771138 293.287818 
L 258.421097 295.187975 
L 258.746077 293.987876 
L 259.071057 293.587843 
L 259.396036 292.33774 
L 259.721016 292.887785 
L 260.045995 293.987876 
L 260.370975 292.787777 
L 260.695954 294.537921 
L 261.020934 293.937872 
L 261.670893 293.537839 
L 261.995872 293.587843 
L 262.320852 294.087884 
L 262.645831 292.937789 
L 262.970811 295.187975 
L 263.29579 293.337822 
L 263.62077 293.837864 
L 263.945749 293.037797 
L 264.270729 292.787777 
L 264.595708 292.737773 
L 265.245667 292.937789 
L 265.570647 293.487835 
L 265.895627 294.837946 
L 266.220606 294.137888 
L 266.545586 293.987876 
L 266.870565 295.237979 
L 267.195545 294.087884 
L 267.520524 294.287901 
L 267.845504 292.537756 
L 268.170483 293.237814 
L 268.495463 295.488 
L 268.820442 293.037797 
L 269.470401 294.63793 
L 269.795381 293.337822 
L 270.44534 294.137888 
L 270.770319 293.18781 
L 271.095299 293.387826 
L 271.420278 292.987793 
L 271.745258 293.587843 
L 272.070238 295.237979 
L 272.395217 294.487917 
L 272.720197 293.237814 
L 273.045176 293.537839 
L 273.370156 294.387909 
L 273.695135 293.437831 
L 274.020115 294.387909 
L 274.345094 293.737855 
L 274.670074 293.487835 
L 274.995053 292.837781 
L 275.645012 294.287901 
L 275.969992 294.487917 
L 276.294971 294.537921 
L 276.619951 293.987876 
L 276.94493 294.487917 
L 277.26991 292.987793 
L 277.594889 293.937872 
L 277.919869 292.58776 
L 278.244848 292.737773 
L 278.569828 293.437831 
L 278.894808 293.587843 
L 279.219787 292.987793 
L 279.544767 291.837698 
L 279.869746 293.18781 
L 280.194726 293.887868 
L 280.519705 294.237897 
L 280.844685 291.537673 
L 281.169664 293.337822 
L 281.494644 293.387826 
L 281.819623 293.287818 
L 282.144603 294.687934 
L 282.469582 293.587843 
L 283.119541 294.787942 
L 283.444521 293.987876 
L 283.7695 293.687851 
L 284.09448 293.587843 
L 284.419459 292.487752 
L 284.744439 293.787859 
L 285.719378 293.887868 
L 286.044357 292.737773 
L 286.369337 294.687934 
L 287.019296 292.987793 
L 287.669255 294.587926 
L 287.994234 294.287901 
L 288.319214 292.737773 
L 288.644193 294.03788 
L 288.969173 294.237897 
L 289.294152 294.737938 
L 289.619132 293.337822 
L 290.269091 293.937872 
L 290.59407 190.329306 
L 290.91905 125.42394 
L 291.244029 100.271861 
L 291.569009 83.920509 
L 291.893989 81.820336 
L 292.218968 80.870257 
L 292.543948 78.620071 
L 292.868927 69.869348 
L 293.193907 72.619575 
L 293.518886 67.669166 
L 293.843866 67.569158 
L 294.168845 66.219046 
L 294.493825 66.619079 
L 294.818804 63.068785 
L 295.143784 63.11879 
L 295.468763 64.468901 
L 295.793743 66.619079 
L 296.118722 65.118955 
L 296.443702 65.368976 
L 296.768681 61.568661 
L 297.093661 64.168876 
L 297.41864 64.718922 
L 297.74362 62.068703 
L 298.0686 64.018864 
L 298.393579 61.968695 
L 298.718559 57.718343 
L 299.043538 61.868686 
L 299.368518 59.768513 
L 299.693497 58.968446 
L 300.018477 63.818847 
L 300.668436 59.718508 
L 300.993415 64.918938 
L 301.318395 58.568413 
L 301.643374 59.068455 
L 301.968354 60.168546 
L 302.293333 60.118542 
L 302.618313 59.36848 
L 302.943292 59.318475 
L 303.268272 57.168298 
L 303.593251 58.668422 
L 303.918231 61.168628 
L 304.24321 59.168463 
L 304.56819 59.418484 
L 304.89317 61.468653 
L 305.218149 57.518327 
L 305.543129 61.118624 
L 305.868108 60.718591 
L 306.193088 58.518409 
L 306.843047 59.318475 
L 307.168026 57.468322 
L 307.493006 56.768265 
L 307.817985 56.968281 
L 308.142965 55.618169 
L 308.467944 57.618335 
L 308.792924 58.268389 
L 309.117903 60.118542 
L 309.442883 59.36848 
L 309.767862 59.468488 
L 310.092842 59.818517 
L 310.417821 57.568331 
L 310.742801 56.368232 
L 311.39276 57.168298 
L 311.71774 57.968364 
L 312.042719 57.118294 
L 312.367699 55.368149 
L 312.692678 58.218384 
L 313.017658 57.418318 
L 313.342637 57.418318 
L 313.667617 56.368232 
L 313.992596 55.818186 
L 314.317576 59.068455 
L 314.642555 58.818434 
L 314.967535 58.318393 
L 315.292514 59.068455 
L 315.617494 56.068207 
L 315.942473 58.16838 
L 316.267453 57.218302 
L 316.592432 58.668422 
L 316.917412 56.518244 
L 317.242391 59.318475 
L 317.567371 57.418318 
L 317.892351 58.718426 
L 318.21733 58.668422 
L 318.54231 58.068372 
L 319.192269 58.518409 
L 319.517248 57.818351 
L 319.842228 58.668422 
L 320.492187 56.168215 
L 321.142146 59.36848 
L 321.467125 56.768265 
L 321.792105 56.71826 
L 322.117084 55.318145 
L 322.442064 55.818186 
L 322.767043 56.818269 
L 323.092023 57.218302 
L 323.417002 56.168215 
L 323.741982 58.368397 
L 324.066962 57.168298 
L 324.391941 59.018451 
L 324.716921 58.16838 
L 325.36688 55.368149 
L 325.691859 56.268223 
L 326.016839 55.968198 
L 326.341818 55.968198 
L 326.666798 55.468157 
L 326.991777 56.768265 
L 327.316757 55.418153 
L 327.641736 55.418153 
L 327.966716 56.46824 
L 328.291695 55.718178 
L 328.616675 57.118294 
L 328.941654 57.468322 
L 329.266634 56.268223 
L 329.591613 56.618252 
L 329.916593 56.268223 
L 330.241572 57.418318 
L 330.891532 55.318145 
L 331.216511 56.118211 
L 331.541491 56.618252 
L 331.86647 55.668174 
L 332.516429 56.71826 
L 332.841409 55.118128 
L 333.166388 55.368149 
L 333.491368 57.218302 
L 333.816347 55.818186 
L 334.141327 55.268141 
L 334.466306 57.118294 
L 334.791286 56.068207 
L 335.116265 54.618087 
L 335.441245 55.768182 
L 335.766224 55.418153 
L 336.091204 55.618169 
L 336.416183 55.618169 
L 336.741163 54.868107 
L 337.066143 55.068124 
L 337.391122 55.118128 
L 337.716102 55.918194 
L 338.041081 55.86819 
L 338.366061 56.618252 
L 338.69104 54.768099 
L 339.01602 56.46824 
L 339.340999 55.918194 
L 339.665979 56.318227 
L 339.990958 56.368232 
L 340.315938 55.718178 
L 340.965897 54.968116 
L 341.290876 57.968364 
L 341.615856 57.168298 
L 341.940835 57.518327 
L 342.265815 54.968116 
L 342.590794 55.918194 
L 342.915774 56.318227 
L 343.240753 55.718178 
L 343.565733 56.168215 
L 343.890713 55.168132 
L 344.215692 55.268141 
L 344.540672 56.018203 
L 344.865651 55.368149 
L 345.190631 56.46824 
L 345.51561 56.268223 
L 345.84059 55.01812 
L 346.165569 56.168215 
L 346.490549 56.218219 
L 346.815528 55.518161 
L 347.465487 56.018203 
L 347.790467 55.618169 
L 348.115446 57.018285 
L 348.440426 55.468157 
L 348.765405 55.668174 
L 349.090385 57.068289 
L 349.415364 55.368149 
L 349.740344 57.91836 
L 350.065324 55.418153 
L 350.390303 55.318145 
L 350.715283 55.418153 
L 351.040262 56.168215 
L 351.365242 56.518244 
L 351.690221 56.168215 
L 352.015201 54.918112 
L 352.66516 57.468322 
L 352.990139 55.118128 
L 353.315119 56.568248 
L 353.640098 57.018285 
L 353.965078 56.068207 
L 354.290057 57.468322 
L 354.615037 55.918194 
L 354.940016 55.368149 
L 355.264996 55.618169 
L 355.589975 55.418153 
L 355.914955 56.318227 
L 356.239934 56.768265 
L 356.889894 55.418153 
L 357.539853 56.818269 
L 357.864832 57.018285 
L 358.189812 56.768265 
L 358.514791 55.368149 
L 358.839771 55.418153 
L 359.16475 55.818186 
L 359.48973 55.718178 
L 359.814709 54.918112 
L 360.139689 56.418236 
L 360.464668 56.918277 
L 360.789648 55.418153 
L 361.114627 56.618252 
L 361.439607 56.568248 
L 361.764586 56.368232 
L 362.089566 55.618169 
L 362.414545 55.518161 
L 362.739525 56.818269 
L 363.064505 55.318145 
L 363.389484 56.918277 
L 364.039443 54.518079 
L 364.364423 55.718178 
L 365.014382 56.668256 
L 365.339361 56.518244 
L 365.664341 56.518244 
L 365.98932 57.168298 
L 366.3143 56.668256 
L 366.639279 55.86819 
L 366.964259 56.218219 
L 367.289238 56.768265 
L 367.614218 56.118211 
L 367.939197 55.118128 
L 368.264177 56.268223 
L 368.589156 56.118211 
L 368.914136 55.618169 
L 369.564095 57.068289 
L 369.889075 56.068207 
L 370.214054 57.018285 
L 370.539034 55.268141 
L 370.864013 55.218136 
L 371.188993 55.518161 
L 371.513972 56.218219 
L 371.838952 55.818186 
L 372.163931 55.86819 
L 372.488911 55.618169 
L 372.81389 56.268223 
L 373.13887 56.168215 
L 373.463849 56.46824 
L 373.788829 55.118128 
L 374.113808 55.718178 
L 374.438788 54.718095 
L 374.763767 55.668174 
L 375.088747 56.018203 
L 375.413726 56.118211 
L 375.738706 57.118294 
L 376.713645 55.118128 
L 377.038624 55.518161 
L 377.363604 55.668174 
L 377.688583 57.868356 
L 378.338542 55.068124 
L 378.663522 55.118128 
L 378.988501 54.718095 
L 379.313481 55.468157 
L 379.63846 54.968116 
L 379.96344 56.168215 
L 380.288419 56.518244 
L 380.938378 55.718178 
L 381.588337 55.418153 
L 381.913317 54.668091 
L 382.238296 55.768182 
L 382.563276 55.918194 
L 382.888256 55.518161 
L 383.213235 55.768182 
L 383.538215 55.718178 
L 383.863194 55.918194 
L 384.188174 56.668256 
L 384.513153 54.918112 
L 384.838133 55.368149 
L 385.163112 56.118211 
L 385.488092 56.018203 
L 385.813071 54.118045 
L 386.138051 56.168215 
L 386.46303 54.668091 
L 386.78801 56.118211 
L 387.112989 56.268223 
L 387.762948 54.918112 
L 388.087928 55.468157 
L 388.412907 56.71826 
L 388.737887 56.368232 
L 389.062867 55.818186 
L 389.387846 56.018203 
L 389.712826 55.768182 
L 390.037805 56.068207 
L 390.362785 56.71826 
L 390.687764 55.818186 
L 391.012744 56.418236 
L 391.662703 55.418153 
L 391.987682 56.618252 
L 392.312662 56.46824 
L 392.637641 56.668256 
L 392.962621 55.468157 
L 393.2876 56.818269 
L 393.61258 56.568248 
L 393.937559 55.468157 
L 394.262539 56.568248 
L 394.587518 55.518161 
L 394.912498 55.968198 
L 395.237477 55.968198 
L 395.562457 55.818186 
L 395.887437 55.518161 
L 396.212416 55.468157 
L 396.862375 54.868107 
L 397.187355 55.768182 
L 397.512334 54.41807 
L 397.837314 54.16805 
L 398.162293 54.468074 
L 398.487273 55.318145 
L 398.487273 55.318145 
" clip-path="url(#p78b46334b1)" style="fill: none; stroke: #1f77b4; stroke-width: 1.5; stroke-linecap: square"/>
   </g>
   <g id="patch_3">
    <path d="M 57.6 307.584 
L 57.6 41.472 
" style="fill: none; stroke: #000000; stroke-width: 0.8; stroke-linejoin: miter; stroke-linecap: square"/>
   </g>
   <g id="patch_4">
    <path d="M 414.72 307.584 
L 414.72 41.472 
" style="fill: none; stroke: #000000; stroke-width: 0.8; stroke-linejoin: miter; stroke-linecap: square"/>
   </g>
   <g id="patch_5">
    <path d="M 57.6 307.584 
L 414.72 307.584 
" style="fill: none; stroke: #000000; stroke-width: 0.8; stroke-linejoin: miter; stroke-linecap: square"/>
   </g>
   <g id="patch_6">
    <path d="M 57.6 41.472 
L 414.72 41.472 
" style="fill: none; stroke: #000000; stroke-width: 0.8; stroke-linejoin: miter; stroke-linecap: square"/>
   </g>
  </g>
 </g>
 <defs>
  <clipPath id="p78b46334b1">
   <rect x="57.6" y="41.472" width="357.12" height="266.112"/>
  </clipPath>
 </defs>
</svg>
