<?xml version="1.0" encoding="utf-8" standalone="no"?>
<!DOCTYPE svg PUBLIC "-//W3C//DTD SVG 1.1//EN"
  "http://www.w3.org/Graphics/SVG/1.1/DTD/svg11.dtd">
<svg xmlns:xlink="http://www.w3.org/1999/xlink" width="460.8pt" height="345.6pt" viewBox="0 0 460.8 345.6" xmlns="http://www.w3.org/2000/svg" version="1.1">
 <metadata>
  <rdf:RDF xmlns:dc="http://purl.org/dc/elements/1.1/" xmlns:cc="http://creativecommons.org/ns#" xmlns:rdf="http://www.w3.org/1999/02/22-rdf-syntax-ns#">
   <cc:Work>
    <dc:type rdf:resource="http://purl.org/dc/dcmitype/StillImage"/>
    <dc:date>2022-10-07T14:53:08.904625</dc:date>
    <dc:format>image/svg+xml</dc:format>
    <dc:creator>
     <cc:Agent>
      <dc:title>Matplotlib v3.6.0, https://matplotlib.org/</dc:title>
     </cc:Agent>
    </dc:creator>
   </cc:Work>
  </rdf:RDF>
 </metadata>
 <defs>
  <style type="text/css">*{stroke-linejoin: round; stroke-linecap: butt}</style>
 </defs>
 <g id="figure_1">
  <g id="patch_1">
   <path d="M 0 345.6 
L 460.8 345.6 
L 460.8 0 
L 0 0 
z
" style="fill: #ffffff"/>
  </g>
  <g id="axes_1">
   <g id="patch_2">
    <path d="M 57.6 307.584 
L 414.72 307.584 
L 414.72 41.472 
L 57.6 41.472 
z
" style="fill: #ffffff"/>
   </g>
   <g id="matplotlib.axis_1">
    <g id="xtick_1">
     <g id="line2d_1">
      <defs>
       <path id="m4d9421ae73" d="M 0 0 
L 0 3.5 
" style="stroke: #000000; stroke-width: 0.8"/>
      </defs>
      <g>
       <use xlink:href="#m4d9421ae73" x="73.832727" y="307.584" style="stroke: #000000; stroke-width: 0.8"/>
      </g>
     </g>
     <g id="text_1">
      <!-- −3 -->
      <g transform="translate(66.461634 322.182437) scale(0.1 -0.1)">
       <defs>
        <path id="DejaVuSans-2212" d="M 678 2272 
L 4684 2272 
L 4684 1741 
L 678 1741 
L 678 2272 
z
" transform="scale(0.015625)"/>
        <path id="DejaVuSans-33" d="M 2597 2516 
Q 3050 2419 3304 2112 
Q 3559 1806 3559 1356 
Q 3559 666 3084 287 
Q 2609 -91 1734 -91 
Q 1441 -91 1130 -33 
Q 819 25 488 141 
L 488 750 
Q 750 597 1062 519 
Q 1375 441 1716 441 
Q 2309 441 2620 675 
Q 2931 909 2931 1356 
Q 2931 1769 2642 2001 
Q 2353 2234 1838 2234 
L 1294 2234 
L 1294 2753 
L 1863 2753 
Q 2328 2753 2575 2939 
Q 2822 3125 2822 3475 
Q 2822 3834 2567 4026 
Q 2313 4219 1838 4219 
Q 1578 4219 1281 4162 
Q 984 4106 628 3988 
L 628 4550 
Q 988 4650 1302 4700 
Q 1616 4750 1894 4750 
Q 2613 4750 3031 4423 
Q 3450 4097 3450 3541 
Q 3450 3153 3228 2886 
Q 3006 2619 2597 2516 
z
" transform="scale(0.015625)"/>
       </defs>
       <use xlink:href="#DejaVuSans-2212"/>
       <use xlink:href="#DejaVuSans-33" x="83.789062"/>
      </g>
     </g>
    </g>
    <g id="xtick_2">
     <g id="line2d_2">
      <g>
       <use xlink:href="#m4d9421ae73" x="127.941818" y="307.584" style="stroke: #000000; stroke-width: 0.8"/>
      </g>
     </g>
     <g id="text_2">
      <!-- −2 -->
      <g transform="translate(120.570724 322.182437) scale(0.1 -0.1)">
       <defs>
        <path id="DejaVuSans-32" d="M 1228 531 
L 3431 531 
L 3431 0 
L 469 0 
L 469 531 
Q 828 903 1448 1529 
Q 2069 2156 2228 2338 
Q 2531 2678 2651 2914 
Q 2772 3150 2772 3378 
Q 2772 3750 2511 3984 
Q 2250 4219 1831 4219 
Q 1534 4219 1204 4116 
Q 875 4013 500 3803 
L 500 4441 
Q 881 4594 1212 4672 
Q 1544 4750 1819 4750 
Q 2544 4750 2975 4387 
Q 3406 4025 3406 3419 
Q 3406 3131 3298 2873 
Q 3191 2616 2906 2266 
Q 2828 2175 2409 1742 
Q 1991 1309 1228 531 
z
" transform="scale(0.015625)"/>
       </defs>
       <use xlink:href="#DejaVuSans-2212"/>
       <use xlink:href="#DejaVuSans-32" x="83.789062"/>
      </g>
     </g>
    </g>
    <g id="xtick_3">
     <g id="line2d_3">
      <g>
       <use xlink:href="#m4d9421ae73" x="182.050909" y="307.584" style="stroke: #000000; stroke-width: 0.8"/>
      </g>
     </g>
     <g id="text_3">
      <!-- −1 -->
      <g transform="translate(174.679815 322.182437) scale(0.1 -0.1)">
       <defs>
        <path id="DejaVuSans-31" d="M 794 531 
L 1825 531 
L 1825 4091 
L 703 3866 
L 703 4441 
L 1819 4666 
L 2450 4666 
L 2450 531 
L 3481 531 
L 3481 0 
L 794 0 
L 794 531 
z
" transform="scale(0.015625)"/>
       </defs>
       <use xlink:href="#DejaVuSans-2212"/>
       <use xlink:href="#DejaVuSans-31" x="83.789062"/>
      </g>
     </g>
    </g>
    <g id="xtick_4">
     <g id="line2d_4">
      <g>
       <use xlink:href="#m4d9421ae73" x="236.16" y="307.584" style="stroke: #000000; stroke-width: 0.8"/>
      </g>
     </g>
     <g id="text_4">
      <!-- 0 -->
      <g transform="translate(232.97875 322.182437) scale(0.1 -0.1)">
       <defs>
        <path id="DejaVuSans-30" d="M 2034 4250 
Q 1547 4250 1301 3770 
Q 1056 3291 1056 2328 
Q 1056 1369 1301 889 
Q 1547 409 2034 409 
Q 2525 409 2770 889 
Q 3016 1369 3016 2328 
Q 3016 3291 2770 3770 
Q 2525 4250 2034 4250 
z
M 2034 4750 
Q 2819 4750 3233 4129 
Q 3647 3509 3647 2328 
Q 3647 1150 3233 529 
Q 2819 -91 2034 -91 
Q 1250 -91 836 529 
Q 422 1150 422 2328 
Q 422 3509 836 4129 
Q 1250 4750 2034 4750 
z
" transform="scale(0.015625)"/>
       </defs>
       <use xlink:href="#DejaVuSans-30"/>
      </g>
     </g>
    </g>
    <g id="xtick_5">
     <g id="line2d_5">
      <g>
       <use xlink:href="#m4d9421ae73" x="290.269091" y="307.584" style="stroke: #000000; stroke-width: 0.8"/>
      </g>
     </g>
     <g id="text_5">
      <!-- 1 -->
      <g transform="translate(287.087841 322.182437) scale(0.1 -0.1)">
       <use xlink:href="#DejaVuSans-31"/>
      </g>
     </g>
    </g>
    <g id="xtick_6">
     <g id="line2d_6">
      <g>
       <use xlink:href="#m4d9421ae73" x="344.378182" y="307.584" style="stroke: #000000; stroke-width: 0.8"/>
      </g>
     </g>
     <g id="text_6">
      <!-- 2 -->
      <g transform="translate(341.196932 322.182437) scale(0.1 -0.1)">
       <use xlink:href="#DejaVuSans-32"/>
      </g>
     </g>
    </g>
    <g id="xtick_7">
     <g id="line2d_7">
      <g>
       <use xlink:href="#m4d9421ae73" x="398.487273" y="307.584" style="stroke: #000000; stroke-width: 0.8"/>
      </g>
     </g>
     <g id="text_7">
      <!-- 3 -->
      <g transform="translate(395.306023 322.182437) scale(0.1 -0.1)">
       <use xlink:href="#DejaVuSans-33"/>
      </g>
     </g>
    </g>
    <g id="text_8">
     <!-- reflection scaling coefficient -->
     <g transform="translate(165.732656 335.860562) scale(0.1 -0.1)">
      <defs>
       <path id="DejaVuSans-72" d="M 2631 2963 
Q 2534 3019 2420 3045 
Q 2306 3072 2169 3072 
Q 1681 3072 1420 2755 
Q 1159 2438 1159 1844 
L 1159 0 
L 581 0 
L 581 3500 
L 1159 3500 
L 1159 2956 
Q 1341 3275 1631 3429 
Q 1922 3584 2338 3584 
Q 2397 3584 2469 3576 
Q 2541 3569 2628 3553 
L 2631 2963 
z
" transform="scale(0.015625)"/>
       <path id="DejaVuSans-65" d="M 3597 1894 
L 3597 1613 
L 953 1613 
Q 991 1019 1311 708 
Q 1631 397 2203 397 
Q 2534 397 2845 478 
Q 3156 559 3463 722 
L 3463 178 
Q 3153 47 2828 -22 
Q 2503 -91 2169 -91 
Q 1331 -91 842 396 
Q 353 884 353 1716 
Q 353 2575 817 3079 
Q 1281 3584 2069 3584 
Q 2775 3584 3186 3129 
Q 3597 2675 3597 1894 
z
M 3022 2063 
Q 3016 2534 2758 2815 
Q 2500 3097 2075 3097 
Q 1594 3097 1305 2825 
Q 1016 2553 972 2059 
L 3022 2063 
z
" transform="scale(0.015625)"/>
       <path id="DejaVuSans-66" d="M 2375 4863 
L 2375 4384 
L 1825 4384 
Q 1516 4384 1395 4259 
Q 1275 4134 1275 3809 
L 1275 3500 
L 2222 3500 
L 2222 3053 
L 1275 3053 
L 1275 0 
L 697 0 
L 697 3053 
L 147 3053 
L 147 3500 
L 697 3500 
L 697 3744 
Q 697 4328 969 4595 
Q 1241 4863 1831 4863 
L 2375 4863 
z
" transform="scale(0.015625)"/>
       <path id="DejaVuSans-6c" d="M 603 4863 
L 1178 4863 
L 1178 0 
L 603 0 
L 603 4863 
z
" transform="scale(0.015625)"/>
       <path id="DejaVuSans-63" d="M 3122 3366 
L 3122 2828 
Q 2878 2963 2633 3030 
Q 2388 3097 2138 3097 
Q 1578 3097 1268 2742 
Q 959 2388 959 1747 
Q 959 1106 1268 751 
Q 1578 397 2138 397 
Q 2388 397 2633 464 
Q 2878 531 3122 666 
L 3122 134 
Q 2881 22 2623 -34 
Q 2366 -91 2075 -91 
Q 1284 -91 818 406 
Q 353 903 353 1747 
Q 353 2603 823 3093 
Q 1294 3584 2113 3584 
Q 2378 3584 2631 3529 
Q 2884 3475 3122 3366 
z
" transform="scale(0.015625)"/>
       <path id="DejaVuSans-74" d="M 1172 4494 
L 1172 3500 
L 2356 3500 
L 2356 3053 
L 1172 3053 
L 1172 1153 
Q 1172 725 1289 603 
Q 1406 481 1766 481 
L 2356 481 
L 2356 0 
L 1766 0 
Q 1100 0 847 248 
Q 594 497 594 1153 
L 594 3053 
L 172 3053 
L 172 3500 
L 594 3500 
L 594 4494 
L 1172 4494 
z
" transform="scale(0.015625)"/>
       <path id="DejaVuSans-69" d="M 603 3500 
L 1178 3500 
L 1178 0 
L 603 0 
L 603 3500 
z
M 603 4863 
L 1178 4863 
L 1178 4134 
L 603 4134 
L 603 4863 
z
" transform="scale(0.015625)"/>
       <path id="DejaVuSans-6f" d="M 1959 3097 
Q 1497 3097 1228 2736 
Q 959 2375 959 1747 
Q 959 1119 1226 758 
Q 1494 397 1959 397 
Q 2419 397 2687 759 
Q 2956 1122 2956 1747 
Q 2956 2369 2687 2733 
Q 2419 3097 1959 3097 
z
M 1959 3584 
Q 2709 3584 3137 3096 
Q 3566 2609 3566 1747 
Q 3566 888 3137 398 
Q 2709 -91 1959 -91 
Q 1206 -91 779 398 
Q 353 888 353 1747 
Q 353 2609 779 3096 
Q 1206 3584 1959 3584 
z
" transform="scale(0.015625)"/>
       <path id="DejaVuSans-6e" d="M 3513 2113 
L 3513 0 
L 2938 0 
L 2938 2094 
Q 2938 2591 2744 2837 
Q 2550 3084 2163 3084 
Q 1697 3084 1428 2787 
Q 1159 2491 1159 1978 
L 1159 0 
L 581 0 
L 581 3500 
L 1159 3500 
L 1159 2956 
Q 1366 3272 1645 3428 
Q 1925 3584 2291 3584 
Q 2894 3584 3203 3211 
Q 3513 2838 3513 2113 
z
" transform="scale(0.015625)"/>
       <path id="DejaVuSans-20" transform="scale(0.015625)"/>
       <path id="DejaVuSans-73" d="M 2834 3397 
L 2834 2853 
Q 2591 2978 2328 3040 
Q 2066 3103 1784 3103 
Q 1356 3103 1142 2972 
Q 928 2841 928 2578 
Q 928 2378 1081 2264 
Q 1234 2150 1697 2047 
L 1894 2003 
Q 2506 1872 2764 1633 
Q 3022 1394 3022 966 
Q 3022 478 2636 193 
Q 2250 -91 1575 -91 
Q 1294 -91 989 -36 
Q 684 19 347 128 
L 347 722 
Q 666 556 975 473 
Q 1284 391 1588 391 
Q 1994 391 2212 530 
Q 2431 669 2431 922 
Q 2431 1156 2273 1281 
Q 2116 1406 1581 1522 
L 1381 1569 
Q 847 1681 609 1914 
Q 372 2147 372 2553 
Q 372 3047 722 3315 
Q 1072 3584 1716 3584 
Q 2034 3584 2315 3537 
Q 2597 3491 2834 3397 
z
" transform="scale(0.015625)"/>
       <path id="DejaVuSans-61" d="M 2194 1759 
Q 1497 1759 1228 1600 
Q 959 1441 959 1056 
Q 959 750 1161 570 
Q 1363 391 1709 391 
Q 2188 391 2477 730 
Q 2766 1069 2766 1631 
L 2766 1759 
L 2194 1759 
z
M 3341 1997 
L 3341 0 
L 2766 0 
L 2766 531 
Q 2569 213 2275 61 
Q 1981 -91 1556 -91 
Q 1019 -91 701 211 
Q 384 513 384 1019 
Q 384 1609 779 1909 
Q 1175 2209 1959 2209 
L 2766 2209 
L 2766 2266 
Q 2766 2663 2505 2880 
Q 2244 3097 1772 3097 
Q 1472 3097 1187 3025 
Q 903 2953 641 2809 
L 641 3341 
Q 956 3463 1253 3523 
Q 1550 3584 1831 3584 
Q 2591 3584 2966 3190 
Q 3341 2797 3341 1997 
z
" transform="scale(0.015625)"/>
       <path id="DejaVuSans-67" d="M 2906 1791 
Q 2906 2416 2648 2759 
Q 2391 3103 1925 3103 
Q 1463 3103 1205 2759 
Q 947 2416 947 1791 
Q 947 1169 1205 825 
Q 1463 481 1925 481 
Q 2391 481 2648 825 
Q 2906 1169 2906 1791 
z
M 3481 434 
Q 3481 -459 3084 -895 
Q 2688 -1331 1869 -1331 
Q 1566 -1331 1297 -1286 
Q 1028 -1241 775 -1147 
L 775 -588 
Q 1028 -725 1275 -790 
Q 1522 -856 1778 -856 
Q 2344 -856 2625 -561 
Q 2906 -266 2906 331 
L 2906 616 
Q 2728 306 2450 153 
Q 2172 0 1784 0 
Q 1141 0 747 490 
Q 353 981 353 1791 
Q 353 2603 747 3093 
Q 1141 3584 1784 3584 
Q 2172 3584 2450 3431 
Q 2728 3278 2906 2969 
L 2906 3500 
L 3481 3500 
L 3481 434 
z
" transform="scale(0.015625)"/>
      </defs>
      <use xlink:href="#DejaVuSans-72"/>
      <use xlink:href="#DejaVuSans-65" x="38.863281"/>
      <use xlink:href="#DejaVuSans-66" x="100.386719"/>
      <use xlink:href="#DejaVuSans-6c" x="135.591797"/>
      <use xlink:href="#DejaVuSans-65" x="163.375"/>
      <use xlink:href="#DejaVuSans-63" x="224.898438"/>
      <use xlink:href="#DejaVuSans-74" x="279.878906"/>
      <use xlink:href="#DejaVuSans-69" x="319.087891"/>
      <use xlink:href="#DejaVuSans-6f" x="346.871094"/>
      <use xlink:href="#DejaVuSans-6e" x="408.052734"/>
      <use xlink:href="#DejaVuSans-20" x="471.431641"/>
      <use xlink:href="#DejaVuSans-73" x="503.21875"/>
      <use xlink:href="#DejaVuSans-63" x="555.318359"/>
      <use xlink:href="#DejaVuSans-61" x="610.298828"/>
      <use xlink:href="#DejaVuSans-6c" x="671.578125"/>
      <use xlink:href="#DejaVuSans-69" x="699.361328"/>
      <use xlink:href="#DejaVuSans-6e" x="727.144531"/>
      <use xlink:href="#DejaVuSans-67" x="790.523438"/>
      <use xlink:href="#DejaVuSans-20" x="854"/>
      <use xlink:href="#DejaVuSans-63" x="885.787109"/>
      <use xlink:href="#DejaVuSans-6f" x="940.767578"/>
      <use xlink:href="#DejaVuSans-65" x="1001.949219"/>
      <use xlink:href="#DejaVuSans-66" x="1063.472656"/>
      <use xlink:href="#DejaVuSans-66" x="1098.677734"/>
      <use xlink:href="#DejaVuSans-69" x="1133.882812"/>
      <use xlink:href="#DejaVuSans-63" x="1161.666016"/>
      <use xlink:href="#DejaVuSans-69" x="1216.646484"/>
      <use xlink:href="#DejaVuSans-65" x="1244.429688"/>
      <use xlink:href="#DejaVuSans-6e" x="1305.953125"/>
      <use xlink:href="#DejaVuSans-74" x="1369.332031"/>
     </g>
    </g>
   </g>
   <g id="matplotlib.axis_2">
    <g id="ytick_1">
     <g id="line2d_8">
      <defs>
       <path id="m891a39d7d4" d="M 0 0 
L -3.5 0 
" style="stroke: #000000; stroke-width: 0.8"/>
      </defs>
      <g>
       <use xlink:href="#m891a39d7d4" x="57.6" y="305.237676" style="stroke: #000000; stroke-width: 0.8"/>
      </g>
     </g>
     <g id="text_9">
      <!-- 0 -->
      <g transform="translate(44.2375 309.036895) scale(0.1 -0.1)">
       <use xlink:href="#DejaVuSans-30"/>
      </g>
     </g>
    </g>
    <g id="ytick_2">
     <g id="line2d_9">
      <g>
       <use xlink:href="#m891a39d7d4" x="57.6" y="255.996887" style="stroke: #000000; stroke-width: 0.8"/>
      </g>
     </g>
     <g id="text_10">
      <!-- 10 -->
      <g transform="translate(37.875 259.796105) scale(0.1 -0.1)">
       <use xlink:href="#DejaVuSans-31"/>
       <use xlink:href="#DejaVuSans-30" x="63.623047"/>
      </g>
     </g>
    </g>
    <g id="ytick_3">
     <g id="line2d_10">
      <g>
       <use xlink:href="#m891a39d7d4" x="57.6" y="206.756097" style="stroke: #000000; stroke-width: 0.8"/>
      </g>
     </g>
     <g id="text_11">
      <!-- 20 -->
      <g transform="translate(37.875 210.555316) scale(0.1 -0.1)">
       <use xlink:href="#DejaVuSans-32"/>
       <use xlink:href="#DejaVuSans-30" x="63.623047"/>
      </g>
     </g>
    </g>
    <g id="ytick_4">
     <g id="line2d_11">
      <g>
       <use xlink:href="#m891a39d7d4" x="57.6" y="157.515307" style="stroke: #000000; stroke-width: 0.8"/>
      </g>
     </g>
     <g id="text_12">
      <!-- 30 -->
      <g transform="translate(37.875 161.314526) scale(0.1 -0.1)">
       <use xlink:href="#DejaVuSans-33"/>
       <use xlink:href="#DejaVuSans-30" x="63.623047"/>
      </g>
     </g>
    </g>
    <g id="ytick_5">
     <g id="line2d_12">
      <g>
       <use xlink:href="#m891a39d7d4" x="57.6" y="108.274517" style="stroke: #000000; stroke-width: 0.8"/>
      </g>
     </g>
     <g id="text_13">
      <!-- 40 -->
      <g transform="translate(37.875 112.073736) scale(0.1 -0.1)">
       <defs>
        <path id="DejaVuSans-34" d="M 2419 4116 
L 825 1625 
L 2419 1625 
L 2419 4116 
z
M 2253 4666 
L 3047 4666 
L 3047 1625 
L 3713 1625 
L 3713 1100 
L 3047 1100 
L 3047 0 
L 2419 0 
L 2419 1100 
L 313 1100 
L 313 1709 
L 2253 4666 
z
" transform="scale(0.015625)"/>
       </defs>
       <use xlink:href="#DejaVuSans-34"/>
       <use xlink:href="#DejaVuSans-30" x="63.623047"/>
      </g>
     </g>
    </g>
    <g id="ytick_6">
     <g id="line2d_13">
      <g>
       <use xlink:href="#m891a39d7d4" x="57.6" y="59.033728" style="stroke: #000000; stroke-width: 0.8"/>
      </g>
     </g>
     <g id="text_14">
      <!-- 50 -->
      <g transform="translate(37.875 62.832946) scale(0.1 -0.1)">
       <defs>
        <path id="DejaVuSans-35" d="M 691 4666 
L 3169 4666 
L 3169 4134 
L 1269 4134 
L 1269 2991 
Q 1406 3038 1543 3061 
Q 1681 3084 1819 3084 
Q 2600 3084 3056 2656 
Q 3513 2228 3513 1497 
Q 3513 744 3044 326 
Q 2575 -91 1722 -91 
Q 1428 -91 1123 -41 
Q 819 9 494 109 
L 494 744 
Q 775 591 1075 516 
Q 1375 441 1709 441 
Q 2250 441 2565 725 
Q 2881 1009 2881 1497 
Q 2881 1984 2565 2268 
Q 2250 2553 1709 2553 
Q 1456 2553 1204 2497 
Q 953 2441 691 2322 
L 691 4666 
z
" transform="scale(0.015625)"/>
       </defs>
       <use xlink:href="#DejaVuSans-35"/>
       <use xlink:href="#DejaVuSans-30" x="63.623047"/>
      </g>
     </g>
    </g>
    <g id="text_15">
     <!-- percentage errors -->
     <g transform="translate(31.795312 219.287375) rotate(-90) scale(0.1 -0.1)">
      <defs>
       <path id="DejaVuSans-70" d="M 1159 525 
L 1159 -1331 
L 581 -1331 
L 581 3500 
L 1159 3500 
L 1159 2969 
Q 1341 3281 1617 3432 
Q 1894 3584 2278 3584 
Q 2916 3584 3314 3078 
Q 3713 2572 3713 1747 
Q 3713 922 3314 415 
Q 2916 -91 2278 -91 
Q 1894 -91 1617 61 
Q 1341 213 1159 525 
z
M 3116 1747 
Q 3116 2381 2855 2742 
Q 2594 3103 2138 3103 
Q 1681 3103 1420 2742 
Q 1159 2381 1159 1747 
Q 1159 1113 1420 752 
Q 1681 391 2138 391 
Q 2594 391 2855 752 
Q 3116 1113 3116 1747 
z
" transform="scale(0.015625)"/>
      </defs>
      <use xlink:href="#DejaVuSans-70"/>
      <use xlink:href="#DejaVuSans-65" x="63.476562"/>
      <use xlink:href="#DejaVuSans-72" x="125"/>
      <use xlink:href="#DejaVuSans-63" x="163.863281"/>
      <use xlink:href="#DejaVuSans-65" x="218.84375"/>
      <use xlink:href="#DejaVuSans-6e" x="280.367188"/>
      <use xlink:href="#DejaVuSans-74" x="343.746094"/>
      <use xlink:href="#DejaVuSans-61" x="382.955078"/>
      <use xlink:href="#DejaVuSans-67" x="444.234375"/>
      <use xlink:href="#DejaVuSans-65" x="507.710938"/>
      <use xlink:href="#DejaVuSans-20" x="569.234375"/>
      <use xlink:href="#DejaVuSans-65" x="601.021484"/>
      <use xlink:href="#DejaVuSans-72" x="662.544922"/>
      <use xlink:href="#DejaVuSans-72" x="701.908203"/>
      <use xlink:href="#DejaVuSans-6f" x="740.771484"/>
      <use xlink:href="#DejaVuSans-72" x="801.953125"/>
      <use xlink:href="#DejaVuSans-73" x="843.066406"/>
     </g>
    </g>
   </g>
   <g id="line2d_14">
    <path d="M 73.832727 53.617241 
L 88.456806 53.666482 
L 88.781785 53.863445 
L 89.106765 53.666482 
L 89.756724 53.764963 
L 90.731663 53.666482 
L 91.056642 53.814204 
L 91.706601 53.666482 
L 92.35656 53.764963 
L 92.68154 53.617241 
L 93.981458 53.715722 
L 94.306437 53.617241 
L 94.631417 53.764963 
L 94.956396 53.715722 
L 95.606355 53.863445 
L 96.581294 53.814204 
L 96.906274 53.666482 
L 97.231253 54.158889 
L 97.556233 53.715722 
L 97.881212 53.961926 
L 98.206192 53.666482 
L 98.856151 54.109649 
L 99.18113 53.814204 
L 99.50611 53.961926 
L 99.831089 54.257371 
L 100.806028 53.912686 
L 101.131007 54.011167 
L 101.780966 53.912686 
L 102.755905 54.060408 
L 103.080885 53.912686 
L 103.405864 54.109649 
L 103.730844 53.863445 
L 104.055823 54.20813 
L 104.705782 53.912686 
L 105.030762 54.306612 
L 105.355741 54.306612 
L 105.680721 54.503575 
L 106.33068 54.503575 
L 106.655659 54.109649 
L 106.980639 54.651297 
L 107.305618 54.454334 
L 107.955577 54.503575 
L 108.280557 54.306612 
L 108.605536 54.552816 
L 108.930516 54.503575 
L 109.255495 54.20813 
L 109.580475 54.79902 
L 109.905455 54.602057 
L 110.555414 54.651297 
L 110.880393 55.045224 
L 111.205373 54.79902 
L 111.530352 55.045224 
L 111.855332 54.454334 
L 112.180311 54.897501 
L 112.505291 54.749779 
L 112.83027 55.291428 
L 113.15525 55.586872 
L 113.480229 54.552816 
L 113.805209 55.094464 
L 114.130188 54.897501 
L 114.455168 55.192946 
L 114.780147 54.946742 
L 115.105127 55.488391 
L 115.430106 55.685354 
L 115.755086 55.340668 
L 116.080066 56.07928 
L 116.405045 55.488391 
L 117.055004 54.995983 
L 117.379984 56.473207 
L 117.704963 56.276243 
L 118.029943 55.931558 
L 118.354922 56.423966 
L 118.679902 55.685354 
L 119.004881 56.030039 
L 119.329861 55.980799 
L 119.65484 56.423966 
L 120.304799 56.571688 
L 120.629779 56.128521 
L 121.604717 57.014855 
L 121.929697 57.014855 
L 122.254676 57.162578 
L 122.579656 56.916374 
L 122.904636 56.817892 
L 123.229615 57.211818 
L 123.554595 58.393597 
L 123.879574 57.014855 
L 124.204554 57.064096 
L 124.529533 57.408782 
L 124.854513 58.344357 
L 125.179492 57.507263 
L 125.829451 59.18145 
L 126.154431 58.787524 
L 126.47941 60.117025 
L 127.129369 58.886005 
L 127.454349 59.033728 
L 127.779328 58.935246 
L 128.104308 60.018543 
L 128.754267 59.575376 
L 129.079247 60.510951 
L 129.404226 59.723099 
L 129.729206 59.870821 
L 130.379165 60.757155 
L 130.704144 60.117025 
L 131.029124 61.397286 
L 131.354103 62.037416 
L 131.679083 61.298804 
L 132.004062 61.200322 
L 132.329042 62.529824 
L 132.654021 62.677546 
L 132.979001 62.28362 
L 133.30398 61.594249 
L 133.62896 63.859325 
L 134.278919 63.317676 
L 134.928878 63.810084 
L 135.253857 63.662362 
L 135.578837 64.647178 
L 135.903817 63.51464 
L 136.228796 63.859325 
L 136.553776 65.878197 
L 136.878755 63.957807 
L 137.203735 66.124401 
L 137.853694 66.567568 
L 138.178673 67.89707 
L 138.503653 67.700107 
L 138.828632 68.143274 
L 139.153612 67.404662 
L 139.478591 69.12809 
L 139.803571 68.290996 
L 140.12855 69.374294 
L 140.45353 68.143274 
L 140.778509 69.817461 
L 141.103489 69.12809 
L 141.428468 71.491647 
L 141.753448 70.900758 
L 142.078428 70.949999 
L 142.728387 72.230259 
L 143.053366 70.99924 
L 143.378346 73.609001 
L 143.703325 73.707483 
L 144.028305 72.377982 
L 144.353284 75.430911 
L 144.678264 75.233947 
L 145.003243 72.673426 
L 145.328223 75.38167 
L 145.653202 74.15065 
L 145.978182 76.366486 
L 146.303161 75.726355 
L 146.628141 79.961063 
L 146.95312 77.942191 
L 147.2781 79.419415 
L 147.603079 80.305749 
L 147.928059 80.601194 
L 148.253038 78.631562 
L 148.902998 82.521584 
L 149.227977 82.86627 
L 149.877936 81.044361 
L 150.527895 87.297941 
L 151.177854 84.09729 
L 151.502834 87.051737 
L 151.827813 87.396423 
L 152.477772 86.756292 
L 152.802752 89.858462 
L 153.127731 88.676683 
L 153.452711 89.11985 
L 153.77769 91.089482 
L 154.10267 89.11985 
L 154.427649 90.892519 
L 154.752629 93.748484 
L 155.077609 95.274949 
L 155.402588 95.471912 
L 155.727568 96.358246 
L 156.052547 95.816598 
L 156.702506 99.214212 
L 157.027486 99.06649 
L 157.352465 99.558898 
L 157.677445 98.820286 
L 158.002424 102.316382 
L 158.327404 100.543713 
L 158.652383 101.331566 
L 158.977363 101.676252 
L 159.302342 103.251957 
L 159.627322 105.615515 
L 159.952301 105.221588 
L 160.277281 108.520721 
L 160.60226 106.009441 
L 160.92724 107.043498 
L 161.252219 112.853911 
L 161.577199 109.7025 
L 161.902179 109.997945 
L 162.227158 111.869095 
L 162.552138 115.118987 
L 162.877117 112.361503 
L 163.202097 111.52441 
L 163.527076 116.005321 
L 163.852056 116.940896 
L 164.177035 115.069746 
L 164.502015 116.497729 
L 164.826994 122.455865 
L 165.151974 119.402936 
L 165.476953 122.849791 
L 165.801933 121.668012 
L 166.126912 121.717253 
L 166.451892 123.440681 
L 166.776871 123.686885 
L 167.42683 128.118556 
L 167.75181 128.807927 
L 168.07679 128.660204 
L 168.401769 130.826799 
L 168.726749 132.057819 
L 169.051728 136.440249 
L 169.376708 133.338079 
L 169.701687 136.48949 
L 170.026667 133.288839 
L 171.001605 141.265847 
L 171.326585 142.004458 
L 171.651564 140.182549 
L 171.976544 144.417257 
L 172.626503 143.3832 
L 172.951482 149.882985 
L 173.276462 144.269535 
L 173.601441 147.667149 
L 173.926421 147.174741 
L 174.2514 150.129189 
L 174.57638 147.765631 
L 174.90136 155.545676 
L 175.226339 156.678214 
L 175.551319 155.20099 
L 175.876298 161.109885 
L 176.201278 155.053268 
L 176.526257 156.825936 
L 176.851237 162.242423 
L 177.176216 162.734831 
L 177.501196 161.553052 
L 177.826175 161.503811 
L 178.151155 166.920298 
L 178.476134 165.19687 
L 178.801114 167.166502 
L 179.126093 168.29904 
L 179.451073 168.29904 
L 179.776052 171.056524 
L 180.101032 172.139822 
L 180.426011 171.155006 
L 181.075971 175.734399 
L 181.40095 176.620734 
L 182.050909 182.431147 
L 182.375889 179.033532 
L 182.700868 182.677351 
L 183.025848 183.514444 
L 183.350827 184.745464 
L 184.000786 189.177135 
L 184.325766 185.040909 
L 184.650745 187.946115 
L 185.300704 190.457395 
L 185.625684 190.014228 
L 185.950663 191.589934 
L 186.275643 195.923123 
L 186.600622 197.794273 
L 186.925602 196.907939 
L 187.250581 198.680607 
L 187.575561 196.710976 
L 187.900541 199.566942 
L 188.22552 201.290369 
L 188.5505 201.585814 
L 188.875479 203.161519 
L 189.200459 203.161519 
L 189.525438 207.100782 
L 189.850418 206.805338 
L 190.175397 210.005989 
L 190.500377 206.657615 
L 190.825356 213.403604 
L 191.150336 210.104471 
L 191.800295 216.062606 
L 192.125274 215.471717 
L 192.450254 217.982997 
L 192.775233 217.244385 
L 193.100213 218.130719 
L 193.425192 219.706425 
L 193.750172 219.952629 
L 194.075152 222.660872 
L 194.400131 223.842651 
L 194.725111 226.698617 
L 195.05009 224.187336 
L 195.37507 227.141784 
L 195.700049 227.880396 
L 196.025029 226.797098 
L 196.350008 226.994061 
L 196.999967 232.853715 
L 197.324947 232.804475 
L 197.649926 233.543087 
L 197.974906 235.02031 
L 198.299885 237.679313 
L 198.624865 238.959573 
L 198.949844 237.53159 
L 199.274824 241.914021 
L 199.599803 240.683001 
L 199.924783 238.171721 
L 200.249762 242.110984 
L 200.574742 243.73593 
L 200.899722 243.686689 
L 201.224701 248.856972 
L 201.549681 245.311635 
L 201.87466 246.936581 
L 202.19964 244.031375 
L 202.524619 248.561527 
L 203.174578 249.940269 
L 203.499558 253.042439 
L 203.824537 253.239402 
L 204.474496 254.667385 
L 204.799476 256.735498 
L 205.124455 254.519663 
L 205.449435 257.326388 
L 205.774414 255.996887 
L 206.099394 259.492983 
L 206.424373 257.080184 
L 206.749353 258.508167 
L 207.074333 261.758059 
L 207.399312 261.955022 
L 207.724292 264.170858 
L 208.049271 262.053504 
L 208.374251 262.496671 
L 208.69923 264.564784 
L 209.02421 265.697322 
L 209.349189 265.795804 
L 209.674169 266.928342 
L 209.999148 266.879101 
L 210.324128 266.682138 
L 211.299066 270.178234 
L 211.624046 268.307084 
L 211.949025 271.753939 
L 212.598984 273.723571 
L 212.923964 273.280404 
L 213.248943 271.704699 
L 213.573923 272.837237 
L 213.898903 272.44331 
L 214.223882 275.446999 
L 214.548862 275.791684 
L 214.873841 276.333333 
L 215.198821 278.549168 
L 215.5238 277.909038 
L 215.84878 279.337021 
L 216.173759 277.022704 
L 216.823718 280.568041 
L 217.148698 279.92791 
L 217.473677 280.715763 
L 217.798657 279.041576 
L 218.123636 281.700579 
L 218.448616 282.143746 
L 218.773595 280.223355 
L 219.098575 282.685395 
L 219.423554 282.931599 
L 219.748534 284.507304 
L 220.073514 284.408822 
L 220.398493 284.458063 
L 220.723473 285.098193 
L 221.048452 285.196675 
L 221.373432 286.821621 
L 221.698411 286.378454 
L 222.023391 286.279972 
L 222.67335 286.476935 
L 223.323309 288.298845 
L 223.648288 287.018584 
L 223.973268 288.446567 
L 224.298247 288.64353 
L 224.623227 288.545049 
L 224.948206 289.529864 
L 225.273186 288.840493 
L 225.598165 288.742012 
L 225.923145 291.253292 
L 226.248124 289.825309 
L 226.573104 289.23442 
L 227.223063 291.056329 
L 227.548043 290.810125 
L 227.873022 290.416199 
L 228.198002 290.662403 
L 228.522981 291.499496 
L 228.847961 290.810125 
L 229.17294 292.927479 
L 229.49792 292.681275 
L 229.822899 292.828997 
L 230.147879 291.696459 
L 230.797838 293.222924 
L 231.122817 293.222924 
L 231.447797 293.518368 
L 231.772776 292.533553 
L 232.097756 293.715332 
L 232.422735 293.912295 
L 232.747715 292.632034 
L 233.072695 293.173683 
L 233.397674 294.453943 
L 233.722654 294.552425 
L 234.372613 293.272164 
L 234.697592 295.488 
L 235.022572 293.764572 
L 235.347551 293.863054 
L 235.99751 292.188867 
L 236.32249 294.306221 
L 236.647469 293.124442 
L 236.972449 294.306221 
L 237.297428 293.567609 
L 237.622408 294.552425 
L 238.272367 292.97672 
L 238.597346 293.025961 
L 238.922326 294.453943 
L 239.247305 292.582793 
L 239.572285 294.060017 
L 239.897265 293.124442 
L 240.222244 293.813813 
L 240.547224 292.484312 
L 240.872203 293.075201 
L 241.197183 293.370646 
L 241.522162 292.287349 
L 241.847142 293.272164 
L 242.172121 291.597978 
L 242.497101 293.764572 
L 243.14706 291.696459 
L 243.472039 291.499496 
L 244.121998 291.302533 
L 244.446978 291.794941 
L 244.771957 291.351774 
L 245.096937 291.253292 
L 245.421916 291.548737 
L 245.746896 290.662403 
L 246.071876 291.499496 
L 246.396855 290.022272 
L 246.721835 290.219235 
L 247.046814 290.219235 
L 247.371794 287.954159 
L 247.696773 289.628346 
L 248.021753 288.151122 
L 248.346732 288.692771 
L 248.671712 290.071513 
L 248.996691 286.329213 
L 249.321671 285.787564 
L 249.64665 287.904918 
L 249.97163 286.033768 
L 250.296609 286.673899 
L 250.621589 286.673899 
L 250.946568 284.507304 
L 251.271548 286.329213 
L 251.596527 287.018584 
L 251.921507 284.802749 
L 252.246486 284.162618 
L 252.571466 285.245916 
L 252.896446 285.098193 
L 253.221425 282.291468 
L 253.546405 283.276284 
L 253.871384 283.128562 
L 254.196364 284.113378 
L 254.846323 280.912726 
L 255.171302 281.552857 
L 255.496282 281.700579 
L 255.821261 279.189299 
L 256.146241 278.992335 
L 256.47122 276.579537 
L 256.7962 278.450687 
L 257.121179 277.170426 
L 257.446159 277.712075 
L 257.771138 276.579537 
L 258.096118 274.90535 
L 258.421097 276.678018 
L 258.746077 277.367389 
L 259.071057 274.806868 
L 259.396036 275.200795 
L 259.721016 273.0342 
L 260.045995 272.591033 
L 260.370975 272.640274 
L 260.695954 272.44331 
L 261.020934 273.083441 
L 261.345913 269.981271 
L 261.670893 268.553288 
L 261.995872 269.833549 
L 262.320852 269.784308 
L 262.645831 267.962399 
L 262.970811 269.045696 
L 263.62077 265.648081 
L 263.945749 261.955022 
L 264.270729 263.08756 
L 264.595708 262.939838 
L 264.920688 262.989079 
L 265.245667 264.220099 
L 265.570647 259.689946 
L 265.895627 259.591464 
L 266.220606 259.049816 
L 266.545586 258.803612 
L 266.870565 256.784739 
L 267.195545 256.341572 
L 267.520524 256.243091 
L 267.845504 254.224218 
L 268.170483 256.587776 
L 268.495463 256.243091 
L 268.820442 254.815108 
L 269.145422 254.864348 
L 269.470401 252.353068 
L 269.795381 252.303827 
L 270.12036 251.466734 
L 270.44534 248.266083 
L 270.770319 248.11836 
L 271.095299 243.538967 
L 271.420278 244.080616 
L 271.745258 246.148729 
L 272.070238 245.410117 
L 272.395217 246.591896 
L 272.720197 241.22465 
L 273.045176 241.667817 
L 273.370156 243.785171 
L 273.695135 239.451981 
L 274.020115 239.3535 
L 274.345094 237.088423 
L 274.670074 236.202089 
L 274.995053 235.758922 
L 275.320033 235.02031 
L 275.645012 235.118792 
L 275.969992 235.512718 
L 276.294971 238.12248 
L 276.619951 231.967381 
L 276.94493 229.111415 
L 277.26991 228.865211 
L 277.594889 230.096231 
L 278.244848 223.15328 
L 278.569828 228.225081 
L 279.219787 222.808594 
L 279.544767 222.119223 
L 279.869746 218.278442 
L 280.194726 217.490589 
L 280.519705 219.854147 
L 280.844685 216.801218 
L 281.169664 216.604255 
L 281.494644 216.013365 
L 281.819623 211.040046 
L 282.144603 213.058918 
L 282.794562 209.168896 
L 283.119541 211.237009 
L 283.444521 208.233321 
L 283.7695 208.430284 
L 284.09448 207.59319 
L 284.744439 203.752409 
L 285.069419 201.093406 
L 285.394398 203.407723 
L 285.719378 199.074534 
L 286.369337 199.616182 
L 286.694316 195.332234 
L 287.019296 196.710976 
L 287.344275 195.972364 
L 287.669255 196.120086 
L 288.644193 187.453707 
L 288.969173 190.161951 
L 289.294152 185.287113 
L 289.619132 187.896874 
L 289.944111 186.616614 
L 290.59407 181.889498 
L 290.91905 183.120518 
L 291.244029 183.90837 
L 291.569009 178.29492 
L 291.893989 181.101645 
L 292.218968 179.772144 
L 292.543948 176.276048 
L 292.868927 177.605549 
L 293.193907 173.863249 
L 293.518886 172.139822 
L 293.843866 173.715527 
L 294.168845 172.04134 
L 294.493825 169.677782 
L 294.818804 170.514876 
L 296.118722 163.473443 
L 296.443702 165.492315 
L 296.768681 161.946978 
L 297.093661 160.322032 
L 297.41864 160.765199 
L 297.74362 156.727455 
L 298.0686 158.450882 
L 298.718559 151.704894 
L 299.368518 156.284287 
L 299.693497 150.720078 
L 300.018477 151.901857 
L 300.343456 151.212486 
L 300.993415 145.84524 
L 301.318395 146.189926 
L 301.643374 144.515739 
L 301.968354 146.042203 
L 302.293333 140.625716 
L 302.618313 144.121812 
L 302.943292 142.201422 
L 303.268272 138.557603 
L 303.593251 139.985586 
L 303.918231 135.553915 
L 304.24321 137.425065 
L 304.89317 132.944153 
L 305.218149 134.61834 
L 305.543129 134.766062 
L 305.868108 133.38732 
L 306.518067 133.288839 
L 306.843047 128.660204 
L 307.168026 127.13374 
L 307.493006 128.414 
L 307.817985 125.459553 
L 308.142965 127.478425 
L 308.467944 126.887536 
L 308.792924 123.194477 
L 309.117903 122.702069 
L 309.442883 121.126364 
L 309.767862 121.618771 
L 310.092842 122.849791 
L 310.742801 118.368879 
L 311.067781 118.664324 
L 311.39276 117.876471 
L 311.71774 115.020506 
L 312.042719 119.205973 
L 312.367699 112.16454 
L 312.692678 112.509225 
L 313.342637 114.478857 
L 313.667617 110.982761 
L 313.992596 111.622891 
L 314.317576 110.588835 
L 314.642555 110.244149 
L 314.967535 109.505537 
L 315.292514 109.899463 
L 315.617494 105.910959 
L 315.942473 105.172348 
L 316.267453 105.910959 
L 316.592432 103.251957 
L 316.917412 103.054994 
L 317.242391 101.085362 
L 317.567371 100.592954 
L 317.892351 100.789917 
L 318.21733 99.608138 
L 318.54231 100.100546 
L 318.867289 100.34675 
L 319.517248 97.441544 
L 319.842228 97.884711 
L 320.167207 97.540025 
L 320.817166 94.339374 
L 321.142146 95.570394 
L 321.467125 96.013561 
L 321.792105 92.665187 
L 322.117084 93.403799 
L 322.442064 92.025057 
L 322.767043 92.812909 
L 323.417002 91.040241 
L 323.741982 90.892519 
L 324.066962 88.775165 
L 324.391941 87.642627 
L 324.716921 87.642627 
L 325.0419 87.396423 
L 325.36688 88.824405 
L 325.691859 86.362366 
L 326.016839 87.2487 
L 326.341818 85.820717 
L 326.991777 84.195771 
L 327.316757 84.786661 
L 327.641736 84.392734 
L 327.966716 85.96844 
L 328.616675 81.536769 
L 328.941654 83.161715 
L 329.266634 83.063233 
L 329.591613 83.703363 
L 329.916593 82.570825 
L 330.241572 80.699675 
L 330.566552 81.733732 
L 331.216511 78.434599 
L 331.541491 79.173211 
L 331.86647 77.400542 
L 332.19145 78.927007 
L 332.516429 77.991432 
L 332.841409 78.976248 
L 333.166388 77.843709 
L 333.491368 78.089913 
L 333.816347 77.302061 
L 334.141327 77.006616 
L 334.791286 77.203579 
L 335.116265 75.824837 
L 335.441245 75.233947 
L 335.766224 75.135466 
L 336.091204 75.578633 
L 336.416183 75.480151 
L 337.066143 73.51052 
L 337.391122 74.347613 
L 337.716102 73.953687 
L 338.041081 73.018112 
L 338.366061 73.904446 
L 339.01602 72.91963 
L 339.340999 73.412038 
L 339.665979 72.771908 
L 339.990958 73.264316 
L 340.315938 72.2795 
L 340.640917 72.2795 
L 340.965897 72.033296 
L 341.615856 70.014424 
L 341.940835 71.294684 
L 342.265815 70.112905 
L 342.590794 70.949999 
L 342.915774 70.753036 
L 343.240753 70.99924 
L 343.565733 69.76822 
L 343.890713 69.915942 
L 344.215692 69.620497 
L 344.540672 69.571257 
L 344.865651 69.029608 
L 345.190631 69.472775 
L 345.51561 68.635682 
L 345.84059 69.325053 
L 346.165569 69.226571 
L 346.490549 69.620497 
L 346.815528 68.881886 
L 347.140508 68.438719 
L 347.465487 69.423534 
L 347.790467 68.044792 
L 348.115446 68.290996 
L 348.440426 68.783404 
L 348.765405 68.635682 
L 349.090385 67.355421 
L 349.415364 68.487959 
L 349.740344 67.552384 
L 350.065324 67.207699 
L 350.390303 67.404662 
L 350.715283 67.847829 
L 351.040262 67.355421 
L 351.365242 67.453903 
L 351.690221 67.749347 
L 352.015201 66.813772 
L 352.34018 67.109217 
L 352.66516 66.912254 
L 353.315119 67.109217 
L 353.640098 66.173642 
L 354.290057 67.109217 
L 354.615037 66.124401 
L 355.264996 66.567568 
L 355.589975 66.863013 
L 355.914955 66.02592 
L 356.239934 66.567568 
L 357.539853 66.173642 
L 357.864832 65.828957 
L 358.189812 66.02592 
L 358.839771 65.730475 
L 359.16475 65.631993 
L 359.48973 65.681234 
L 359.814709 65.878197 
L 360.139689 65.38579 
L 360.464668 65.878197 
L 360.789648 65.779716 
L 361.114627 65.38579 
L 361.439607 65.730475 
L 361.764586 65.238067 
L 362.089566 65.681234 
L 362.414545 65.730475 
L 362.739525 65.139586 
L 363.064505 65.238067 
L 363.389484 65.484271 
L 363.714464 65.287308 
L 364.039443 65.43503 
L 364.364423 65.238067 
L 364.689402 65.533512 
L 365.014382 65.139586 
L 365.664341 65.188826 
L 365.98932 65.336549 
L 366.639279 65.041104 
L 367.289238 65.139586 
L 367.614218 64.991863 
L 367.939197 65.090345 
L 368.264177 65.041104 
L 368.589156 65.188826 
L 368.914136 64.893382 
L 370.539034 64.844141 
L 370.864013 65.188826 
L 371.188993 64.597937 
L 371.838952 64.893382 
L 372.163931 64.696418 
L 372.81389 64.893382 
L 373.13887 64.696418 
L 373.463849 64.647178 
L 373.788829 64.745659 
L 374.113808 64.647178 
L 374.438788 64.893382 
L 374.763767 64.647178 
L 375.088747 64.844141 
L 375.413726 64.696418 
L 375.738706 64.942622 
L 376.063686 64.499455 
L 376.388665 64.647178 
L 376.713645 64.499455 
L 377.363604 64.7949 
L 377.688583 64.499455 
L 378.013563 64.647178 
L 379.313481 64.548696 
L 383.538215 64.548696 
L 383.863194 64.696418 
L 385.488092 64.548696 
L 386.138051 64.548696 
L 387.112989 64.499455 
L 398.487273 64.499455 
L 398.487273 64.499455 
" clip-path="url(#p6f94dd08ef)" style="fill: none; stroke: #1f77b4; stroke-width: 1.5; stroke-linecap: square"/>
   </g>
   <g id="patch_3">
    <path d="M 57.6 307.584 
L 57.6 41.472 
" style="fill: none; stroke: #000000; stroke-width: 0.8; stroke-linejoin: miter; stroke-linecap: square"/>
   </g>
   <g id="patch_4">
    <path d="M 414.72 307.584 
L 414.72 41.472 
" style="fill: none; stroke: #000000; stroke-width: 0.8; stroke-linejoin: miter; stroke-linecap: square"/>
   </g>
   <g id="patch_5">
    <path d="M 57.6 307.584 
L 414.72 307.584 
" style="fill: none; stroke: #000000; stroke-width: 0.8; stroke-linejoin: miter; stroke-linecap: square"/>
   </g>
   <g id="patch_6">
    <path d="M 57.6 41.472 
L 414.72 41.472 
" style="fill: none; stroke: #000000; stroke-width: 0.8; stroke-linejoin: miter; stroke-linecap: square"/>
   </g>
  </g>
 </g>
 <defs>
  <clipPath id="p6f94dd08ef">
   <rect x="57.6" y="41.472" width="357.12" height="266.112"/>
  </clipPath>
 </defs>
</svg>
