<?xml version="1.0" encoding="utf-8" standalone="no"?>
<!DOCTYPE svg PUBLIC "-//W3C//DTD SVG 1.1//EN"
  "http://www.w3.org/Graphics/SVG/1.1/DTD/svg11.dtd">
<svg xmlns:xlink="http://www.w3.org/1999/xlink" width="460.8pt" height="345.6pt" viewBox="0 0 460.8 345.6" xmlns="http://www.w3.org/2000/svg" version="1.1">
 <metadata>
  <rdf:RDF xmlns:dc="http://purl.org/dc/elements/1.1/" xmlns:cc="http://creativecommons.org/ns#" xmlns:rdf="http://www.w3.org/1999/02/22-rdf-syntax-ns#">
   <cc:Work>
    <dc:type rdf:resource="http://purl.org/dc/dcmitype/StillImage"/>
    <dc:date>2022-10-07T13:53:15.561558</dc:date>
    <dc:format>image/svg+xml</dc:format>
    <dc:creator>
     <cc:Agent>
      <dc:title>Matplotlib v3.6.0, https://matplotlib.org/</dc:title>
     </cc:Agent>
    </dc:creator>
   </cc:Work>
  </rdf:RDF>
 </metadata>
 <defs>
  <style type="text/css">*{stroke-linejoin: round; stroke-linecap: butt}</style>
 </defs>
 <g id="figure_1">
  <g id="patch_1">
   <path d="M 0 345.6 
L 460.8 345.6 
L 460.8 0 
L 0 0 
z
" style="fill: #ffffff"/>
  </g>
  <g id="axes_1">
   <g id="patch_2">
    <path d="M 57.6 307.584 
L 414.72 307.584 
L 414.72 41.472 
L 57.6 41.472 
z
" style="fill: #ffffff"/>
   </g>
   <g id="matplotlib.axis_1">
    <g id="xtick_1">
     <g id="line2d_1">
      <defs>
       <path id="mbf028a0af3" d="M 0 0 
L 0 3.5 
" style="stroke: #000000; stroke-width: 0.8"/>
      </defs>
      <g>
       <use xlink:href="#mbf028a0af3" x="73.832727" y="307.584" style="stroke: #000000; stroke-width: 0.8"/>
      </g>
     </g>
     <g id="text_1">
      <!-- 0 -->
      <g transform="translate(70.651477 322.182437) scale(0.1 -0.1)">
       <defs>
        <path id="DejaVuSans-30" d="M 2034 4250 
Q 1547 4250 1301 3770 
Q 1056 3291 1056 2328 
Q 1056 1369 1301 889 
Q 1547 409 2034 409 
Q 2525 409 2770 889 
Q 3016 1369 3016 2328 
Q 3016 3291 2770 3770 
Q 2525 4250 2034 4250 
z
M 2034 4750 
Q 2819 4750 3233 4129 
Q 3647 3509 3647 2328 
Q 3647 1150 3233 529 
Q 2819 -91 2034 -91 
Q 1250 -91 836 529 
Q 422 1150 422 2328 
Q 422 3509 836 4129 
Q 1250 4750 2034 4750 
z
" transform="scale(0.015625)"/>
       </defs>
       <use xlink:href="#DejaVuSans-30"/>
      </g>
     </g>
    </g>
    <g id="xtick_2">
     <g id="line2d_2">
      <g>
       <use xlink:href="#mbf028a0af3" x="125.365195" y="307.584" style="stroke: #000000; stroke-width: 0.8"/>
      </g>
     </g>
     <g id="text_2">
      <!-- 10 -->
      <g transform="translate(119.002695 322.182437) scale(0.1 -0.1)">
       <defs>
        <path id="DejaVuSans-31" d="M 794 531 
L 1825 531 
L 1825 4091 
L 703 3866 
L 703 4441 
L 1819 4666 
L 2450 4666 
L 2450 531 
L 3481 531 
L 3481 0 
L 794 0 
L 794 531 
z
" transform="scale(0.015625)"/>
       </defs>
       <use xlink:href="#DejaVuSans-31"/>
       <use xlink:href="#DejaVuSans-30" x="63.623047"/>
      </g>
     </g>
    </g>
    <g id="xtick_3">
     <g id="line2d_3">
      <g>
       <use xlink:href="#mbf028a0af3" x="176.897662" y="307.584" style="stroke: #000000; stroke-width: 0.8"/>
      </g>
     </g>
     <g id="text_3">
      <!-- 20 -->
      <g transform="translate(170.535162 322.182437) scale(0.1 -0.1)">
       <defs>
        <path id="DejaVuSans-32" d="M 1228 531 
L 3431 531 
L 3431 0 
L 469 0 
L 469 531 
Q 828 903 1448 1529 
Q 2069 2156 2228 2338 
Q 2531 2678 2651 2914 
Q 2772 3150 2772 3378 
Q 2772 3750 2511 3984 
Q 2250 4219 1831 4219 
Q 1534 4219 1204 4116 
Q 875 4013 500 3803 
L 500 4441 
Q 881 4594 1212 4672 
Q 1544 4750 1819 4750 
Q 2544 4750 2975 4387 
Q 3406 4025 3406 3419 
Q 3406 3131 3298 2873 
Q 3191 2616 2906 2266 
Q 2828 2175 2409 1742 
Q 1991 1309 1228 531 
z
" transform="scale(0.015625)"/>
       </defs>
       <use xlink:href="#DejaVuSans-32"/>
       <use xlink:href="#DejaVuSans-30" x="63.623047"/>
      </g>
     </g>
    </g>
    <g id="xtick_4">
     <g id="line2d_4">
      <g>
       <use xlink:href="#mbf028a0af3" x="228.43013" y="307.584" style="stroke: #000000; stroke-width: 0.8"/>
      </g>
     </g>
     <g id="text_4">
      <!-- 30 -->
      <g transform="translate(222.06763 322.182437) scale(0.1 -0.1)">
       <defs>
        <path id="DejaVuSans-33" d="M 2597 2516 
Q 3050 2419 3304 2112 
Q 3559 1806 3559 1356 
Q 3559 666 3084 287 
Q 2609 -91 1734 -91 
Q 1441 -91 1130 -33 
Q 819 25 488 141 
L 488 750 
Q 750 597 1062 519 
Q 1375 441 1716 441 
Q 2309 441 2620 675 
Q 2931 909 2931 1356 
Q 2931 1769 2642 2001 
Q 2353 2234 1838 2234 
L 1294 2234 
L 1294 2753 
L 1863 2753 
Q 2328 2753 2575 2939 
Q 2822 3125 2822 3475 
Q 2822 3834 2567 4026 
Q 2313 4219 1838 4219 
Q 1578 4219 1281 4162 
Q 984 4106 628 3988 
L 628 4550 
Q 988 4650 1302 4700 
Q 1616 4750 1894 4750 
Q 2613 4750 3031 4423 
Q 3450 4097 3450 3541 
Q 3450 3153 3228 2886 
Q 3006 2619 2597 2516 
z
" transform="scale(0.015625)"/>
       </defs>
       <use xlink:href="#DejaVuSans-33"/>
       <use xlink:href="#DejaVuSans-30" x="63.623047"/>
      </g>
     </g>
    </g>
    <g id="xtick_5">
     <g id="line2d_5">
      <g>
       <use xlink:href="#mbf028a0af3" x="279.962597" y="307.584" style="stroke: #000000; stroke-width: 0.8"/>
      </g>
     </g>
     <g id="text_5">
      <!-- 40 -->
      <g transform="translate(273.600097 322.182437) scale(0.1 -0.1)">
       <defs>
        <path id="DejaVuSans-34" d="M 2419 4116 
L 825 1625 
L 2419 1625 
L 2419 4116 
z
M 2253 4666 
L 3047 4666 
L 3047 1625 
L 3713 1625 
L 3713 1100 
L 3047 1100 
L 3047 0 
L 2419 0 
L 2419 1100 
L 313 1100 
L 313 1709 
L 2253 4666 
z
" transform="scale(0.015625)"/>
       </defs>
       <use xlink:href="#DejaVuSans-34"/>
       <use xlink:href="#DejaVuSans-30" x="63.623047"/>
      </g>
     </g>
    </g>
    <g id="xtick_6">
     <g id="line2d_6">
      <g>
       <use xlink:href="#mbf028a0af3" x="331.495065" y="307.584" style="stroke: #000000; stroke-width: 0.8"/>
      </g>
     </g>
     <g id="text_6">
      <!-- 50 -->
      <g transform="translate(325.132565 322.182437) scale(0.1 -0.1)">
       <defs>
        <path id="DejaVuSans-35" d="M 691 4666 
L 3169 4666 
L 3169 4134 
L 1269 4134 
L 1269 2991 
Q 1406 3038 1543 3061 
Q 1681 3084 1819 3084 
Q 2600 3084 3056 2656 
Q 3513 2228 3513 1497 
Q 3513 744 3044 326 
Q 2575 -91 1722 -91 
Q 1428 -91 1123 -41 
Q 819 9 494 109 
L 494 744 
Q 775 591 1075 516 
Q 1375 441 1709 441 
Q 2250 441 2565 725 
Q 2881 1009 2881 1497 
Q 2881 1984 2565 2268 
Q 2250 2553 1709 2553 
Q 1456 2553 1204 2497 
Q 953 2441 691 2322 
L 691 4666 
z
" transform="scale(0.015625)"/>
       </defs>
       <use xlink:href="#DejaVuSans-35"/>
       <use xlink:href="#DejaVuSans-30" x="63.623047"/>
      </g>
     </g>
    </g>
    <g id="xtick_7">
     <g id="line2d_7">
      <g>
       <use xlink:href="#mbf028a0af3" x="383.027532" y="307.584" style="stroke: #000000; stroke-width: 0.8"/>
      </g>
     </g>
     <g id="text_7">
      <!-- 60 -->
      <g transform="translate(376.665032 322.182437) scale(0.1 -0.1)">
       <defs>
        <path id="DejaVuSans-36" d="M 2113 2584 
Q 1688 2584 1439 2293 
Q 1191 2003 1191 1497 
Q 1191 994 1439 701 
Q 1688 409 2113 409 
Q 2538 409 2786 701 
Q 3034 994 3034 1497 
Q 3034 2003 2786 2293 
Q 2538 2584 2113 2584 
z
M 3366 4563 
L 3366 3988 
Q 3128 4100 2886 4159 
Q 2644 4219 2406 4219 
Q 1781 4219 1451 3797 
Q 1122 3375 1075 2522 
Q 1259 2794 1537 2939 
Q 1816 3084 2150 3084 
Q 2853 3084 3261 2657 
Q 3669 2231 3669 1497 
Q 3669 778 3244 343 
Q 2819 -91 2113 -91 
Q 1303 -91 875 529 
Q 447 1150 447 2328 
Q 447 3434 972 4092 
Q 1497 4750 2381 4750 
Q 2619 4750 2861 4703 
Q 3103 4656 3366 4563 
z
" transform="scale(0.015625)"/>
       </defs>
       <use xlink:href="#DejaVuSans-36"/>
       <use xlink:href="#DejaVuSans-30" x="63.623047"/>
      </g>
     </g>
    </g>
   </g>
   <g id="matplotlib.axis_2">
    <g id="ytick_1">
     <g id="line2d_8">
      <defs>
       <path id="md91f2c4e62" d="M 0 0 
L -3.5 0 
" style="stroke: #000000; stroke-width: 0.8"/>
      </defs>
      <g>
       <use xlink:href="#md91f2c4e62" x="57.6" y="295.488" style="stroke: #000000; stroke-width: 0.8"/>
      </g>
     </g>
     <g id="text_8">
      <!-- −1.00 -->
      <g transform="translate(19.954687 299.287219) scale(0.1 -0.1)">
       <defs>
        <path id="DejaVuSans-2212" d="M 678 2272 
L 4684 2272 
L 4684 1741 
L 678 1741 
L 678 2272 
z
" transform="scale(0.015625)"/>
        <path id="DejaVuSans-2e" d="M 684 794 
L 1344 794 
L 1344 0 
L 684 0 
L 684 794 
z
" transform="scale(0.015625)"/>
       </defs>
       <use xlink:href="#DejaVuSans-2212"/>
       <use xlink:href="#DejaVuSans-31" x="83.789062"/>
       <use xlink:href="#DejaVuSans-2e" x="147.412109"/>
       <use xlink:href="#DejaVuSans-30" x="179.199219"/>
       <use xlink:href="#DejaVuSans-30" x="242.822266"/>
      </g>
     </g>
    </g>
    <g id="ytick_2">
     <g id="line2d_9">
      <g>
       <use xlink:href="#md91f2c4e62" x="57.6" y="265.248" style="stroke: #000000; stroke-width: 0.8"/>
      </g>
     </g>
     <g id="text_9">
      <!-- −0.75 -->
      <g transform="translate(19.954687 269.047219) scale(0.1 -0.1)">
       <defs>
        <path id="DejaVuSans-37" d="M 525 4666 
L 3525 4666 
L 3525 4397 
L 1831 0 
L 1172 0 
L 2766 4134 
L 525 4134 
L 525 4666 
z
" transform="scale(0.015625)"/>
       </defs>
       <use xlink:href="#DejaVuSans-2212"/>
       <use xlink:href="#DejaVuSans-30" x="83.789062"/>
       <use xlink:href="#DejaVuSans-2e" x="147.412109"/>
       <use xlink:href="#DejaVuSans-37" x="179.199219"/>
       <use xlink:href="#DejaVuSans-35" x="242.822266"/>
      </g>
     </g>
    </g>
    <g id="ytick_3">
     <g id="line2d_10">
      <g>
       <use xlink:href="#md91f2c4e62" x="57.6" y="235.008" style="stroke: #000000; stroke-width: 0.8"/>
      </g>
     </g>
     <g id="text_10">
      <!-- −0.50 -->
      <g transform="translate(19.954687 238.807219) scale(0.1 -0.1)">
       <use xlink:href="#DejaVuSans-2212"/>
       <use xlink:href="#DejaVuSans-30" x="83.789062"/>
       <use xlink:href="#DejaVuSans-2e" x="147.412109"/>
       <use xlink:href="#DejaVuSans-35" x="179.199219"/>
       <use xlink:href="#DejaVuSans-30" x="242.822266"/>
      </g>
     </g>
    </g>
    <g id="ytick_4">
     <g id="line2d_11">
      <g>
       <use xlink:href="#md91f2c4e62" x="57.6" y="204.768" style="stroke: #000000; stroke-width: 0.8"/>
      </g>
     </g>
     <g id="text_11">
      <!-- −0.25 -->
      <g transform="translate(19.954687 208.567219) scale(0.1 -0.1)">
       <use xlink:href="#DejaVuSans-2212"/>
       <use xlink:href="#DejaVuSans-30" x="83.789062"/>
       <use xlink:href="#DejaVuSans-2e" x="147.412109"/>
       <use xlink:href="#DejaVuSans-32" x="179.199219"/>
       <use xlink:href="#DejaVuSans-35" x="242.822266"/>
      </g>
     </g>
    </g>
    <g id="ytick_5">
     <g id="line2d_12">
      <g>
       <use xlink:href="#md91f2c4e62" x="57.6" y="174.528" style="stroke: #000000; stroke-width: 0.8"/>
      </g>
     </g>
     <g id="text_12">
      <!-- 0.00 -->
      <g transform="translate(28.334375 178.327219) scale(0.1 -0.1)">
       <use xlink:href="#DejaVuSans-30"/>
       <use xlink:href="#DejaVuSans-2e" x="63.623047"/>
       <use xlink:href="#DejaVuSans-30" x="95.410156"/>
       <use xlink:href="#DejaVuSans-30" x="159.033203"/>
      </g>
     </g>
    </g>
    <g id="ytick_6">
     <g id="line2d_13">
      <g>
       <use xlink:href="#md91f2c4e62" x="57.6" y="144.288" style="stroke: #000000; stroke-width: 0.8"/>
      </g>
     </g>
     <g id="text_13">
      <!-- 0.25 -->
      <g transform="translate(28.334375 148.087219) scale(0.1 -0.1)">
       <use xlink:href="#DejaVuSans-30"/>
       <use xlink:href="#DejaVuSans-2e" x="63.623047"/>
       <use xlink:href="#DejaVuSans-32" x="95.410156"/>
       <use xlink:href="#DejaVuSans-35" x="159.033203"/>
      </g>
     </g>
    </g>
    <g id="ytick_7">
     <g id="line2d_14">
      <g>
       <use xlink:href="#md91f2c4e62" x="57.6" y="114.048" style="stroke: #000000; stroke-width: 0.8"/>
      </g>
     </g>
     <g id="text_14">
      <!-- 0.50 -->
      <g transform="translate(28.334375 117.847219) scale(0.1 -0.1)">
       <use xlink:href="#DejaVuSans-30"/>
       <use xlink:href="#DejaVuSans-2e" x="63.623047"/>
       <use xlink:href="#DejaVuSans-35" x="95.410156"/>
       <use xlink:href="#DejaVuSans-30" x="159.033203"/>
      </g>
     </g>
    </g>
    <g id="ytick_8">
     <g id="line2d_15">
      <g>
       <use xlink:href="#md91f2c4e62" x="57.6" y="83.808" style="stroke: #000000; stroke-width: 0.8"/>
      </g>
     </g>
     <g id="text_15">
      <!-- 0.75 -->
      <g transform="translate(28.334375 87.607219) scale(0.1 -0.1)">
       <use xlink:href="#DejaVuSans-30"/>
       <use xlink:href="#DejaVuSans-2e" x="63.623047"/>
       <use xlink:href="#DejaVuSans-37" x="95.410156"/>
       <use xlink:href="#DejaVuSans-35" x="159.033203"/>
      </g>
     </g>
    </g>
    <g id="ytick_9">
     <g id="line2d_16">
      <g>
       <use xlink:href="#md91f2c4e62" x="57.6" y="53.568" style="stroke: #000000; stroke-width: 0.8"/>
      </g>
     </g>
     <g id="text_16">
      <!-- 1.00 -->
      <g transform="translate(28.334375 57.367219) scale(0.1 -0.1)">
       <use xlink:href="#DejaVuSans-31"/>
       <use xlink:href="#DejaVuSans-2e" x="63.623047"/>
       <use xlink:href="#DejaVuSans-30" x="95.410156"/>
       <use xlink:href="#DejaVuSans-30" x="159.033203"/>
      </g>
     </g>
    </g>
   </g>
   <g id="LineCollection_1">
    <path d="M 73.832727 174.528 
L 73.832727 295.488 
" clip-path="url(#pddda250992)" style="fill: none; stroke: #1f77b4; stroke-width: 1.5"/>
    <path d="M 78.985974 174.528 
L 78.985974 53.568 
" clip-path="url(#pddda250992)" style="fill: none; stroke: #1f77b4; stroke-width: 1.5"/>
    <path d="M 84.139221 174.528 
L 84.139221 53.568 
" clip-path="url(#pddda250992)" style="fill: none; stroke: #1f77b4; stroke-width: 1.5"/>
    <path d="M 89.292468 174.528 
L 89.292468 53.568 
" clip-path="url(#pddda250992)" style="fill: none; stroke: #1f77b4; stroke-width: 1.5"/>
    <path d="M 94.445714 174.528 
L 94.445714 295.488 
" clip-path="url(#pddda250992)" style="fill: none; stroke: #1f77b4; stroke-width: 1.5"/>
    <path d="M 99.598961 174.528 
L 99.598961 53.568 
" clip-path="url(#pddda250992)" style="fill: none; stroke: #1f77b4; stroke-width: 1.5"/>
    <path d="M 104.752208 174.528 
L 104.752208 295.488 
" clip-path="url(#pddda250992)" style="fill: none; stroke: #1f77b4; stroke-width: 1.5"/>
    <path d="M 109.905455 174.528 
L 109.905455 53.568 
" clip-path="url(#pddda250992)" style="fill: none; stroke: #1f77b4; stroke-width: 1.5"/>
    <path d="M 115.058701 174.528 
L 115.058701 295.488 
" clip-path="url(#pddda250992)" style="fill: none; stroke: #1f77b4; stroke-width: 1.5"/>
    <path d="M 120.211948 174.528 
L 120.211948 295.488 
" clip-path="url(#pddda250992)" style="fill: none; stroke: #1f77b4; stroke-width: 1.5"/>
    <path d="M 125.365195 174.528 
L 125.365195 295.488 
" clip-path="url(#pddda250992)" style="fill: none; stroke: #1f77b4; stroke-width: 1.5"/>
    <path d="M 130.518442 174.528 
L 130.518442 53.568 
" clip-path="url(#pddda250992)" style="fill: none; stroke: #1f77b4; stroke-width: 1.5"/>
    <path d="M 135.671688 174.528 
L 135.671688 295.488 
" clip-path="url(#pddda250992)" style="fill: none; stroke: #1f77b4; stroke-width: 1.5"/>
    <path d="M 140.824935 174.528 
L 140.824935 295.488 
" clip-path="url(#pddda250992)" style="fill: none; stroke: #1f77b4; stroke-width: 1.5"/>
    <path d="M 145.978182 174.528 
L 145.978182 53.568 
" clip-path="url(#pddda250992)" style="fill: none; stroke: #1f77b4; stroke-width: 1.5"/>
    <path d="M 151.131429 174.528 
L 151.131429 295.488 
" clip-path="url(#pddda250992)" style="fill: none; stroke: #1f77b4; stroke-width: 1.5"/>
    <path d="M 156.284675 174.528 
L 156.284675 53.568 
" clip-path="url(#pddda250992)" style="fill: none; stroke: #1f77b4; stroke-width: 1.5"/>
    <path d="M 161.437922 174.528 
L 161.437922 53.568 
" clip-path="url(#pddda250992)" style="fill: none; stroke: #1f77b4; stroke-width: 1.5"/>
    <path d="M 166.591169 174.528 
L 166.591169 53.568 
" clip-path="url(#pddda250992)" style="fill: none; stroke: #1f77b4; stroke-width: 1.5"/>
    <path d="M 171.744416 174.528 
L 171.744416 295.488 
" clip-path="url(#pddda250992)" style="fill: none; stroke: #1f77b4; stroke-width: 1.5"/>
    <path d="M 176.897662 174.528 
L 176.897662 53.568 
" clip-path="url(#pddda250992)" style="fill: none; stroke: #1f77b4; stroke-width: 1.5"/>
    <path d="M 182.050909 174.528 
L 182.050909 295.488 
" clip-path="url(#pddda250992)" style="fill: none; stroke: #1f77b4; stroke-width: 1.5"/>
    <path d="M 187.204156 174.528 
L 187.204156 295.488 
" clip-path="url(#pddda250992)" style="fill: none; stroke: #1f77b4; stroke-width: 1.5"/>
    <path d="M 192.357403 174.528 
L 192.357403 53.568 
" clip-path="url(#pddda250992)" style="fill: none; stroke: #1f77b4; stroke-width: 1.5"/>
    <path d="M 197.510649 174.528 
L 197.510649 295.488 
" clip-path="url(#pddda250992)" style="fill: none; stroke: #1f77b4; stroke-width: 1.5"/>
    <path d="M 202.663896 174.528 
L 202.663896 53.568 
" clip-path="url(#pddda250992)" style="fill: none; stroke: #1f77b4; stroke-width: 1.5"/>
    <path d="M 207.817143 174.528 
L 207.817143 53.568 
" clip-path="url(#pddda250992)" style="fill: none; stroke: #1f77b4; stroke-width: 1.5"/>
    <path d="M 212.97039 174.528 
L 212.97039 295.488 
" clip-path="url(#pddda250992)" style="fill: none; stroke: #1f77b4; stroke-width: 1.5"/>
    <path d="M 218.123636 174.528 
L 218.123636 295.488 
" clip-path="url(#pddda250992)" style="fill: none; stroke: #1f77b4; stroke-width: 1.5"/>
    <path d="M 223.276883 174.528 
L 223.276883 295.488 
" clip-path="url(#pddda250992)" style="fill: none; stroke: #1f77b4; stroke-width: 1.5"/>
    <path d="M 228.43013 174.528 
L 228.43013 295.488 
" clip-path="url(#pddda250992)" style="fill: none; stroke: #1f77b4; stroke-width: 1.5"/>
    <path d="M 233.583377 174.528 
L 233.583377 53.568 
" clip-path="url(#pddda250992)" style="fill: none; stroke: #1f77b4; stroke-width: 1.5"/>
    <path d="M 238.736623 174.528 
L 238.736623 295.488 
" clip-path="url(#pddda250992)" style="fill: none; stroke: #1f77b4; stroke-width: 1.5"/>
    <path d="M 243.88987 174.528 
L 243.88987 295.488 
" clip-path="url(#pddda250992)" style="fill: none; stroke: #1f77b4; stroke-width: 1.5"/>
    <path d="M 249.043117 174.528 
L 249.043117 295.488 
" clip-path="url(#pddda250992)" style="fill: none; stroke: #1f77b4; stroke-width: 1.5"/>
    <path d="M 254.196364 174.528 
L 254.196364 295.488 
" clip-path="url(#pddda250992)" style="fill: none; stroke: #1f77b4; stroke-width: 1.5"/>
    <path d="M 259.34961 174.528 
L 259.34961 53.568 
" clip-path="url(#pddda250992)" style="fill: none; stroke: #1f77b4; stroke-width: 1.5"/>
    <path d="M 264.502857 174.528 
L 264.502857 295.488 
" clip-path="url(#pddda250992)" style="fill: none; stroke: #1f77b4; stroke-width: 1.5"/>
    <path d="M 269.656104 174.528 
L 269.656104 295.488 
" clip-path="url(#pddda250992)" style="fill: none; stroke: #1f77b4; stroke-width: 1.5"/>
    <path d="M 274.809351 174.528 
L 274.809351 295.488 
" clip-path="url(#pddda250992)" style="fill: none; stroke: #1f77b4; stroke-width: 1.5"/>
    <path d="M 279.962597 174.528 
L 279.962597 53.568 
" clip-path="url(#pddda250992)" style="fill: none; stroke: #1f77b4; stroke-width: 1.5"/>
    <path d="M 285.115844 174.528 
L 285.115844 295.488 
" clip-path="url(#pddda250992)" style="fill: none; stroke: #1f77b4; stroke-width: 1.5"/>
    <path d="M 290.269091 174.528 
L 290.269091 295.488 
" clip-path="url(#pddda250992)" style="fill: none; stroke: #1f77b4; stroke-width: 1.5"/>
    <path d="M 295.422338 174.528 
L 295.422338 295.488 
" clip-path="url(#pddda250992)" style="fill: none; stroke: #1f77b4; stroke-width: 1.5"/>
    <path d="M 300.575584 174.528 
L 300.575584 295.488 
" clip-path="url(#pddda250992)" style="fill: none; stroke: #1f77b4; stroke-width: 1.5"/>
    <path d="M 305.728831 174.528 
L 305.728831 295.488 
" clip-path="url(#pddda250992)" style="fill: none; stroke: #1f77b4; stroke-width: 1.5"/>
    <path d="M 310.882078 174.528 
L 310.882078 295.488 
" clip-path="url(#pddda250992)" style="fill: none; stroke: #1f77b4; stroke-width: 1.5"/>
    <path d="M 316.035325 174.528 
L 316.035325 53.568 
" clip-path="url(#pddda250992)" style="fill: none; stroke: #1f77b4; stroke-width: 1.5"/>
    <path d="M 321.188571 174.528 
L 321.188571 295.488 
" clip-path="url(#pddda250992)" style="fill: none; stroke: #1f77b4; stroke-width: 1.5"/>
    <path d="M 326.341818 174.528 
L 326.341818 295.488 
" clip-path="url(#pddda250992)" style="fill: none; stroke: #1f77b4; stroke-width: 1.5"/>
    <path d="M 331.495065 174.528 
L 331.495065 53.568 
" clip-path="url(#pddda250992)" style="fill: none; stroke: #1f77b4; stroke-width: 1.5"/>
    <path d="M 336.648312 174.528 
L 336.648312 53.568 
" clip-path="url(#pddda250992)" style="fill: none; stroke: #1f77b4; stroke-width: 1.5"/>
    <path d="M 341.801558 174.528 
L 341.801558 295.488 
" clip-path="url(#pddda250992)" style="fill: none; stroke: #1f77b4; stroke-width: 1.5"/>
    <path d="M 346.954805 174.528 
L 346.954805 53.568 
" clip-path="url(#pddda250992)" style="fill: none; stroke: #1f77b4; stroke-width: 1.5"/>
    <path d="M 352.108052 174.528 
L 352.108052 53.568 
" clip-path="url(#pddda250992)" style="fill: none; stroke: #1f77b4; stroke-width: 1.5"/>
    <path d="M 357.261299 174.528 
L 357.261299 53.568 
" clip-path="url(#pddda250992)" style="fill: none; stroke: #1f77b4; stroke-width: 1.5"/>
    <path d="M 362.414545 174.528 
L 362.414545 295.488 
" clip-path="url(#pddda250992)" style="fill: none; stroke: #1f77b4; stroke-width: 1.5"/>
    <path d="M 367.567792 174.528 
L 367.567792 295.488 
" clip-path="url(#pddda250992)" style="fill: none; stroke: #1f77b4; stroke-width: 1.5"/>
    <path d="M 372.721039 174.528 
L 372.721039 295.488 
" clip-path="url(#pddda250992)" style="fill: none; stroke: #1f77b4; stroke-width: 1.5"/>
    <path d="M 377.874286 174.528 
L 377.874286 295.488 
" clip-path="url(#pddda250992)" style="fill: none; stroke: #1f77b4; stroke-width: 1.5"/>
    <path d="M 383.027532 174.528 
L 383.027532 53.568 
" clip-path="url(#pddda250992)" style="fill: none; stroke: #1f77b4; stroke-width: 1.5"/>
    <path d="M 388.180779 174.528 
L 388.180779 295.488 
" clip-path="url(#pddda250992)" style="fill: none; stroke: #1f77b4; stroke-width: 1.5"/>
    <path d="M 393.334026 174.528 
L 393.334026 295.488 
" clip-path="url(#pddda250992)" style="fill: none; stroke: #1f77b4; stroke-width: 1.5"/>
    <path d="M 398.487273 174.528 
L 398.487273 295.488 
" clip-path="url(#pddda250992)" style="fill: none; stroke: #1f77b4; stroke-width: 1.5"/>
   </g>
   <g id="line2d_17">
    <defs>
     <path id="m8081addb78" d="M 0 3 
C 0.795609 3 1.55874 2.683901 2.12132 2.12132 
C 2.683901 1.55874 3 0.795609 3 0 
C 3 -0.795609 2.683901 -1.55874 2.12132 -2.12132 
C 1.55874 -2.683901 0.795609 -3 0 -3 
C -0.795609 -3 -1.55874 -2.683901 -2.12132 -2.12132 
C -2.683901 -1.55874 -3 -0.795609 -3 0 
C -3 0.795609 -2.683901 1.55874 -2.12132 2.12132 
C -1.55874 2.683901 -0.795609 3 0 3 
z
" style="stroke: #1f77b4"/>
    </defs>
    <g clip-path="url(#pddda250992)">
     <use xlink:href="#m8081addb78" x="73.832727" y="295.488" style="fill: #1f77b4; stroke: #1f77b4"/>
     <use xlink:href="#m8081addb78" x="78.985974" y="53.568" style="fill: #1f77b4; stroke: #1f77b4"/>
     <use xlink:href="#m8081addb78" x="84.139221" y="53.568" style="fill: #1f77b4; stroke: #1f77b4"/>
     <use xlink:href="#m8081addb78" x="89.292468" y="53.568" style="fill: #1f77b4; stroke: #1f77b4"/>
     <use xlink:href="#m8081addb78" x="94.445714" y="295.488" style="fill: #1f77b4; stroke: #1f77b4"/>
     <use xlink:href="#m8081addb78" x="99.598961" y="53.568" style="fill: #1f77b4; stroke: #1f77b4"/>
     <use xlink:href="#m8081addb78" x="104.752208" y="295.488" style="fill: #1f77b4; stroke: #1f77b4"/>
     <use xlink:href="#m8081addb78" x="109.905455" y="53.568" style="fill: #1f77b4; stroke: #1f77b4"/>
     <use xlink:href="#m8081addb78" x="115.058701" y="295.488" style="fill: #1f77b4; stroke: #1f77b4"/>
     <use xlink:href="#m8081addb78" x="120.211948" y="295.488" style="fill: #1f77b4; stroke: #1f77b4"/>
     <use xlink:href="#m8081addb78" x="125.365195" y="295.488" style="fill: #1f77b4; stroke: #1f77b4"/>
     <use xlink:href="#m8081addb78" x="130.518442" y="53.568" style="fill: #1f77b4; stroke: #1f77b4"/>
     <use xlink:href="#m8081addb78" x="135.671688" y="295.488" style="fill: #1f77b4; stroke: #1f77b4"/>
     <use xlink:href="#m8081addb78" x="140.824935" y="295.488" style="fill: #1f77b4; stroke: #1f77b4"/>
     <use xlink:href="#m8081addb78" x="145.978182" y="53.568" style="fill: #1f77b4; stroke: #1f77b4"/>
     <use xlink:href="#m8081addb78" x="151.131429" y="295.488" style="fill: #1f77b4; stroke: #1f77b4"/>
     <use xlink:href="#m8081addb78" x="156.284675" y="53.568" style="fill: #1f77b4; stroke: #1f77b4"/>
     <use xlink:href="#m8081addb78" x="161.437922" y="53.568" style="fill: #1f77b4; stroke: #1f77b4"/>
     <use xlink:href="#m8081addb78" x="166.591169" y="53.568" style="fill: #1f77b4; stroke: #1f77b4"/>
     <use xlink:href="#m8081addb78" x="171.744416" y="295.488" style="fill: #1f77b4; stroke: #1f77b4"/>
     <use xlink:href="#m8081addb78" x="176.897662" y="53.568" style="fill: #1f77b4; stroke: #1f77b4"/>
     <use xlink:href="#m8081addb78" x="182.050909" y="295.488" style="fill: #1f77b4; stroke: #1f77b4"/>
     <use xlink:href="#m8081addb78" x="187.204156" y="295.488" style="fill: #1f77b4; stroke: #1f77b4"/>
     <use xlink:href="#m8081addb78" x="192.357403" y="53.568" style="fill: #1f77b4; stroke: #1f77b4"/>
     <use xlink:href="#m8081addb78" x="197.510649" y="295.488" style="fill: #1f77b4; stroke: #1f77b4"/>
     <use xlink:href="#m8081addb78" x="202.663896" y="53.568" style="fill: #1f77b4; stroke: #1f77b4"/>
     <use xlink:href="#m8081addb78" x="207.817143" y="53.568" style="fill: #1f77b4; stroke: #1f77b4"/>
     <use xlink:href="#m8081addb78" x="212.97039" y="295.488" style="fill: #1f77b4; stroke: #1f77b4"/>
     <use xlink:href="#m8081addb78" x="218.123636" y="295.488" style="fill: #1f77b4; stroke: #1f77b4"/>
     <use xlink:href="#m8081addb78" x="223.276883" y="295.488" style="fill: #1f77b4; stroke: #1f77b4"/>
     <use xlink:href="#m8081addb78" x="228.43013" y="295.488" style="fill: #1f77b4; stroke: #1f77b4"/>
     <use xlink:href="#m8081addb78" x="233.583377" y="53.568" style="fill: #1f77b4; stroke: #1f77b4"/>
     <use xlink:href="#m8081addb78" x="238.736623" y="295.488" style="fill: #1f77b4; stroke: #1f77b4"/>
     <use xlink:href="#m8081addb78" x="243.88987" y="295.488" style="fill: #1f77b4; stroke: #1f77b4"/>
     <use xlink:href="#m8081addb78" x="249.043117" y="295.488" style="fill: #1f77b4; stroke: #1f77b4"/>
     <use xlink:href="#m8081addb78" x="254.196364" y="295.488" style="fill: #1f77b4; stroke: #1f77b4"/>
     <use xlink:href="#m8081addb78" x="259.34961" y="53.568" style="fill: #1f77b4; stroke: #1f77b4"/>
     <use xlink:href="#m8081addb78" x="264.502857" y="295.488" style="fill: #1f77b4; stroke: #1f77b4"/>
     <use xlink:href="#m8081addb78" x="269.656104" y="295.488" style="fill: #1f77b4; stroke: #1f77b4"/>
     <use xlink:href="#m8081addb78" x="274.809351" y="295.488" style="fill: #1f77b4; stroke: #1f77b4"/>
     <use xlink:href="#m8081addb78" x="279.962597" y="53.568" style="fill: #1f77b4; stroke: #1f77b4"/>
     <use xlink:href="#m8081addb78" x="285.115844" y="295.488" style="fill: #1f77b4; stroke: #1f77b4"/>
     <use xlink:href="#m8081addb78" x="290.269091" y="295.488" style="fill: #1f77b4; stroke: #1f77b4"/>
     <use xlink:href="#m8081addb78" x="295.422338" y="295.488" style="fill: #1f77b4; stroke: #1f77b4"/>
     <use xlink:href="#m8081addb78" x="300.575584" y="295.488" style="fill: #1f77b4; stroke: #1f77b4"/>
     <use xlink:href="#m8081addb78" x="305.728831" y="295.488" style="fill: #1f77b4; stroke: #1f77b4"/>
     <use xlink:href="#m8081addb78" x="310.882078" y="295.488" style="fill: #1f77b4; stroke: #1f77b4"/>
     <use xlink:href="#m8081addb78" x="316.035325" y="53.568" style="fill: #1f77b4; stroke: #1f77b4"/>
     <use xlink:href="#m8081addb78" x="321.188571" y="295.488" style="fill: #1f77b4; stroke: #1f77b4"/>
     <use xlink:href="#m8081addb78" x="326.341818" y="295.488" style="fill: #1f77b4; stroke: #1f77b4"/>
     <use xlink:href="#m8081addb78" x="331.495065" y="53.568" style="fill: #1f77b4; stroke: #1f77b4"/>
     <use xlink:href="#m8081addb78" x="336.648312" y="53.568" style="fill: #1f77b4; stroke: #1f77b4"/>
     <use xlink:href="#m8081addb78" x="341.801558" y="295.488" style="fill: #1f77b4; stroke: #1f77b4"/>
     <use xlink:href="#m8081addb78" x="346.954805" y="53.568" style="fill: #1f77b4; stroke: #1f77b4"/>
     <use xlink:href="#m8081addb78" x="352.108052" y="53.568" style="fill: #1f77b4; stroke: #1f77b4"/>
     <use xlink:href="#m8081addb78" x="357.261299" y="53.568" style="fill: #1f77b4; stroke: #1f77b4"/>
     <use xlink:href="#m8081addb78" x="362.414545" y="295.488" style="fill: #1f77b4; stroke: #1f77b4"/>
     <use xlink:href="#m8081addb78" x="367.567792" y="295.488" style="fill: #1f77b4; stroke: #1f77b4"/>
     <use xlink:href="#m8081addb78" x="372.721039" y="295.488" style="fill: #1f77b4; stroke: #1f77b4"/>
     <use xlink:href="#m8081addb78" x="377.874286" y="295.488" style="fill: #1f77b4; stroke: #1f77b4"/>
     <use xlink:href="#m8081addb78" x="383.027532" y="53.568" style="fill: #1f77b4; stroke: #1f77b4"/>
     <use xlink:href="#m8081addb78" x="388.180779" y="295.488" style="fill: #1f77b4; stroke: #1f77b4"/>
     <use xlink:href="#m8081addb78" x="393.334026" y="295.488" style="fill: #1f77b4; stroke: #1f77b4"/>
     <use xlink:href="#m8081addb78" x="398.487273" y="295.488" style="fill: #1f77b4; stroke: #1f77b4"/>
    </g>
   </g>
   <g id="line2d_18">
    <path d="M 73.832727 174.528 
L 398.487273 174.528 
" clip-path="url(#pddda250992)" style="fill: none; stroke: #d62728; stroke-width: 1.5; stroke-linecap: square"/>
   </g>
   <g id="patch_3">
    <path d="M 57.6 307.584 
L 57.6 41.472 
" style="fill: none; stroke: #000000; stroke-width: 0.8; stroke-linejoin: miter; stroke-linecap: square"/>
   </g>
   <g id="patch_4">
    <path d="M 414.72 307.584 
L 414.72 41.472 
" style="fill: none; stroke: #000000; stroke-width: 0.8; stroke-linejoin: miter; stroke-linecap: square"/>
   </g>
   <g id="patch_5">
    <path d="M 57.6 307.584 
L 414.72 307.584 
" style="fill: none; stroke: #000000; stroke-width: 0.8; stroke-linejoin: miter; stroke-linecap: square"/>
   </g>
   <g id="patch_6">
    <path d="M 57.6 41.472 
L 414.72 41.472 
" style="fill: none; stroke: #000000; stroke-width: 0.8; stroke-linejoin: miter; stroke-linecap: square"/>
   </g>
  </g>
 </g>
 <defs>
  <clipPath id="pddda250992">
   <rect x="57.6" y="41.472" width="357.12" height="266.112"/>
  </clipPath>
 </defs>
</svg>
